G04*
G04 #@! TF.GenerationSoftware,Altium Limited,Altium Designer,21.3.2 (30)*
G04*
G04 Layer_Physical_Order=2*
G04 Layer_Color=16711680*
%FSLAX25Y25*%
%MOIN*%
G70*
G04*
G04 #@! TF.SameCoordinates,82E3065C-4493-458C-8774-CE3C9F48797D*
G04*
G04*
G04 #@! TF.FilePolarity,Positive*
G04*
G01*
G75*
%ADD10C,0.01000*%
%ADD14C,0.01500*%
%ADD15C,0.00800*%
%ADD18C,0.10000*%
%ADD47C,0.05000*%
%ADD48C,0.02000*%
%ADD49C,0.08000*%
%ADD50C,0.12000*%
%ADD52C,0.20000*%
%ADD53C,0.03000*%
%ADD55P,0.05540X8X22.5*%
%ADD56C,0.05118*%
%ADD57C,0.07874*%
%ADD58P,0.05540X8X292.5*%
%ADD59C,0.05512*%
%ADD60C,0.11811*%
%ADD61C,0.12992*%
%ADD62P,0.14063X8X22.5*%
%ADD63O,0.10630X0.08819*%
%ADD64C,0.09055*%
%ADD65C,0.07087*%
%ADD66C,0.06000*%
%ADD67P,0.06494X8X22.5*%
%ADD68C,0.06500*%
G04:AMPARAMS|DCode=69|XSize=65mil|YSize=65mil|CornerRadius=3.25mil|HoleSize=0mil|Usage=FLASHONLY|Rotation=180.000|XOffset=0mil|YOffset=0mil|HoleType=Round|Shape=RoundedRectangle|*
%AMROUNDEDRECTD69*
21,1,0.06500,0.05850,0,0,180.0*
21,1,0.05850,0.06500,0,0,180.0*
1,1,0.00650,-0.02925,0.02925*
1,1,0.00650,0.02925,0.02925*
1,1,0.00650,0.02925,-0.02925*
1,1,0.00650,-0.02925,-0.02925*
%
%ADD69ROUNDEDRECTD69*%
%ADD70P,0.12784X8X292.5*%
G04:AMPARAMS|DCode=71|XSize=65mil|YSize=65mil|CornerRadius=3.25mil|HoleSize=0mil|Usage=FLASHONLY|Rotation=90.000|XOffset=0mil|YOffset=0mil|HoleType=Round|Shape=RoundedRectangle|*
%AMROUNDEDRECTD71*
21,1,0.06500,0.05850,0,0,90.0*
21,1,0.05850,0.06500,0,0,90.0*
1,1,0.00650,0.02925,0.02925*
1,1,0.00650,0.02925,-0.02925*
1,1,0.00650,-0.02925,-0.02925*
1,1,0.00650,-0.02925,0.02925*
%
%ADD71ROUNDEDRECTD71*%
%ADD72C,0.09843*%
G04:AMPARAMS|DCode=73|XSize=98.43mil|YSize=98.43mil|CornerRadius=9.84mil|HoleSize=0mil|Usage=FLASHONLY|Rotation=0.000|XOffset=0mil|YOffset=0mil|HoleType=Round|Shape=RoundedRectangle|*
%AMROUNDEDRECTD73*
21,1,0.09843,0.07874,0,0,0.0*
21,1,0.07874,0.09843,0,0,0.0*
1,1,0.01968,0.03937,-0.03937*
1,1,0.01968,-0.03937,-0.03937*
1,1,0.01968,-0.03937,0.03937*
1,1,0.01968,0.03937,0.03937*
%
%ADD73ROUNDEDRECTD73*%
%ADD74C,0.06299*%
%ADD75P,0.12784X8X202.5*%
%ADD76P,0.14063X8X292.5*%
%ADD77C,0.09449*%
%ADD78O,0.05906X0.04724*%
%ADD79O,0.06400X0.09000*%
%ADD80R,0.06400X0.09000*%
%ADD81C,0.17717*%
%ADD82C,0.04500*%
%ADD83C,0.02598*%
G04:AMPARAMS|DCode=84|XSize=40mil|YSize=40mil|CornerRadius=3mil|HoleSize=0mil|Usage=FLASHONLY|Rotation=0.000|XOffset=0mil|YOffset=0mil|HoleType=Round|Shape=RoundedRectangle|*
%AMROUNDEDRECTD84*
21,1,0.04000,0.03400,0,0,0.0*
21,1,0.03400,0.04000,0,0,0.0*
1,1,0.00600,0.01700,-0.01700*
1,1,0.00600,-0.01700,-0.01700*
1,1,0.00600,-0.01700,0.01700*
1,1,0.00600,0.01700,0.01700*
%
%ADD84ROUNDEDRECTD84*%
%ADD85P,0.03835X8X22.5*%
%ADD86R,0.03543X0.03543*%
G04:AMPARAMS|DCode=87|XSize=31.5mil|YSize=39.37mil|CornerRadius=4.72mil|HoleSize=0mil|Usage=FLASHONLY|Rotation=270.000|XOffset=0mil|YOffset=0mil|HoleType=Round|Shape=RoundedRectangle|*
%AMROUNDEDRECTD87*
21,1,0.03150,0.02992,0,0,270.0*
21,1,0.02205,0.03937,0,0,270.0*
1,1,0.00945,-0.01496,-0.01102*
1,1,0.00945,-0.01496,0.01102*
1,1,0.00945,0.01496,0.01102*
1,1,0.00945,0.01496,-0.01102*
%
%ADD87ROUNDEDRECTD87*%
%ADD88O,0.06299X0.02362*%
%ADD89R,0.06299X0.02362*%
G04:AMPARAMS|DCode=90|XSize=40mil|YSize=40mil|CornerRadius=3mil|HoleSize=0mil|Usage=FLASHONLY|Rotation=270.000|XOffset=0mil|YOffset=0mil|HoleType=Round|Shape=RoundedRectangle|*
%AMROUNDEDRECTD90*
21,1,0.04000,0.03400,0,0,270.0*
21,1,0.03400,0.04000,0,0,270.0*
1,1,0.00600,-0.01700,-0.01700*
1,1,0.00600,-0.01700,0.01700*
1,1,0.00600,0.01700,0.01700*
1,1,0.00600,0.01700,-0.01700*
%
%ADD90ROUNDEDRECTD90*%
G04:AMPARAMS|DCode=91|XSize=63mil|YSize=71mil|CornerRadius=4.72mil|HoleSize=0mil|Usage=FLASHONLY|Rotation=90.000|XOffset=0mil|YOffset=0mil|HoleType=Round|Shape=RoundedRectangle|*
%AMROUNDEDRECTD91*
21,1,0.06300,0.06155,0,0,90.0*
21,1,0.05355,0.07100,0,0,90.0*
1,1,0.00945,0.03078,0.02678*
1,1,0.00945,0.03078,-0.02678*
1,1,0.00945,-0.03078,-0.02678*
1,1,0.00945,-0.03078,0.02678*
%
%ADD91ROUNDEDRECTD91*%
%ADD92R,0.03543X0.03543*%
%ADD93P,0.03835X8X292.5*%
%ADD94R,0.04000X0.03000*%
%ADD95O,0.04000X0.03000*%
%ADD96R,0.03000X0.04000*%
%ADD97O,0.03000X0.04000*%
%ADD98O,0.02362X0.03543*%
%ADD99R,0.02362X0.03543*%
%ADD100O,0.06890X0.02362*%
%ADD101R,0.06890X0.02362*%
%ADD102R,0.09449X0.12205*%
G04:AMPARAMS|DCode=103|XSize=23.62mil|YSize=80.71mil|CornerRadius=0mil|HoleSize=0mil|Usage=FLASHONLY|Rotation=270.000|XOffset=0mil|YOffset=0mil|HoleType=Round|Shape=Octagon|*
%AMOCTAGOND103*
4,1,8,0.04035,0.00591,0.04035,-0.00591,0.03445,-0.01181,-0.03445,-0.01181,-0.04035,-0.00591,-0.04035,0.00591,-0.03445,0.01181,0.03445,0.01181,0.04035,0.00591,0.0*
%
%ADD103OCTAGOND103*%

%ADD104R,0.08071X0.02362*%
%ADD105R,0.02362X0.06890*%
%ADD106O,0.02362X0.06890*%
G04:AMPARAMS|DCode=107|XSize=63mil|YSize=71mil|CornerRadius=4.72mil|HoleSize=0mil|Usage=FLASHONLY|Rotation=0.000|XOffset=0mil|YOffset=0mil|HoleType=Round|Shape=RoundedRectangle|*
%AMROUNDEDRECTD107*
21,1,0.06300,0.06155,0,0,0.0*
21,1,0.05355,0.07100,0,0,0.0*
1,1,0.00945,0.02678,-0.03078*
1,1,0.00945,-0.02678,-0.03078*
1,1,0.00945,-0.02678,0.03078*
1,1,0.00945,0.02678,0.03078*
%
%ADD107ROUNDEDRECTD107*%
%ADD108R,0.08661X0.08071*%
G04:AMPARAMS|DCode=109|XSize=86.61mil|YSize=80.71mil|CornerRadius=0mil|HoleSize=0mil|Usage=FLASHONLY|Rotation=0.000|XOffset=0mil|YOffset=0mil|HoleType=Round|Shape=Octagon|*
%AMOCTAGOND109*
4,1,8,0.04331,-0.02018,0.04331,0.02018,0.02313,0.04035,-0.02313,0.04035,-0.04331,0.02018,-0.04331,-0.02018,-0.02313,-0.04035,0.02313,-0.04035,0.04331,-0.02018,0.0*
%
%ADD109OCTAGOND109*%

%ADD110R,0.06693X0.06299*%
G04:AMPARAMS|DCode=111|XSize=66.93mil|YSize=62.99mil|CornerRadius=0mil|HoleSize=0mil|Usage=FLASHONLY|Rotation=0.000|XOffset=0mil|YOffset=0mil|HoleType=Round|Shape=Octagon|*
%AMOCTAGOND111*
4,1,8,0.03347,-0.01575,0.03347,0.01575,0.01772,0.03150,-0.01772,0.03150,-0.03347,0.01575,-0.03347,-0.01575,-0.01772,-0.03150,0.01772,-0.03150,0.03347,-0.01575,0.0*
%
%ADD111OCTAGOND111*%

G04:AMPARAMS|DCode=112|XSize=66.93mil|YSize=62.99mil|CornerRadius=0mil|HoleSize=0mil|Usage=FLASHONLY|Rotation=270.000|XOffset=0mil|YOffset=0mil|HoleType=Round|Shape=Octagon|*
%AMOCTAGOND112*
4,1,8,-0.01575,-0.03347,0.01575,-0.03347,0.03150,-0.01772,0.03150,0.01772,0.01575,0.03347,-0.01575,0.03347,-0.03150,0.01772,-0.03150,-0.01772,-0.01575,-0.03347,0.0*
%
%ADD112OCTAGOND112*%

%ADD113R,0.06299X0.06693*%
G04:AMPARAMS|DCode=114|XSize=35.43mil|YSize=33.47mil|CornerRadius=0mil|HoleSize=0mil|Usage=FLASHONLY|Rotation=0.000|XOffset=0mil|YOffset=0mil|HoleType=Round|Shape=Octagon|*
%AMOCTAGOND114*
4,1,8,0.01772,-0.00837,0.01772,0.00837,0.00935,0.01673,-0.00935,0.01673,-0.01772,0.00837,-0.01772,-0.00837,-0.00935,-0.01673,0.00935,-0.01673,0.01772,-0.00837,0.0*
%
%ADD114OCTAGOND114*%

%ADD115R,0.03543X0.03347*%
%ADD116R,0.03543X0.02362*%
%ADD117O,0.03543X0.02362*%
G04:AMPARAMS|DCode=118|XSize=55.12mil|YSize=70.87mil|CornerRadius=4.13mil|HoleSize=0mil|Usage=FLASHONLY|Rotation=90.000|XOffset=0mil|YOffset=0mil|HoleType=Round|Shape=RoundedRectangle|*
%AMROUNDEDRECTD118*
21,1,0.05512,0.06260,0,0,90.0*
21,1,0.04685,0.07087,0,0,90.0*
1,1,0.00827,0.03130,0.02343*
1,1,0.00827,0.03130,-0.02343*
1,1,0.00827,-0.03130,-0.02343*
1,1,0.00827,-0.03130,0.02343*
%
%ADD118ROUNDEDRECTD118*%
G04:AMPARAMS|DCode=119|XSize=55.12mil|YSize=70.87mil|CornerRadius=4.13mil|HoleSize=0mil|Usage=FLASHONLY|Rotation=0.000|XOffset=0mil|YOffset=0mil|HoleType=Round|Shape=RoundedRectangle|*
%AMROUNDEDRECTD119*
21,1,0.05512,0.06260,0,0,0.0*
21,1,0.04685,0.07087,0,0,0.0*
1,1,0.00827,0.02343,-0.03130*
1,1,0.00827,-0.02343,-0.03130*
1,1,0.00827,-0.02343,0.03130*
1,1,0.00827,0.02343,0.03130*
%
%ADD119ROUNDEDRECTD119*%
%ADD120C,0.09000*%
%ADD121C,0.14000*%
G36*
X718504Y399606D02*
X706693Y399606D01*
X694882Y387795D01*
X694882Y368110D01*
X701772Y361221D01*
X728346Y361221D01*
X728346Y187000D01*
X576000D01*
Y236140D01*
X576424Y237538D01*
X576588Y239205D01*
X576424Y240871D01*
X576000Y242270D01*
X576000Y250000D01*
X544000D01*
Y308871D01*
X544462Y309062D01*
X545094Y308429D01*
Y308221D01*
X545398Y306694D01*
X545994Y305255D01*
X546859Y303960D01*
X547961Y302859D01*
X549255Y301994D01*
X550694Y301398D01*
X552221Y301095D01*
X553779D01*
X555306Y301398D01*
X556745Y301994D01*
X558040Y302859D01*
X559141Y303960D01*
X560006Y305255D01*
X560602Y306694D01*
X560906Y308221D01*
Y309779D01*
X560602Y311306D01*
X560006Y312745D01*
X559141Y314039D01*
X558040Y315141D01*
X556745Y316006D01*
X555459Y316538D01*
X554531Y317466D01*
Y326236D01*
X554406Y327510D01*
X554034Y328736D01*
X553431Y329865D01*
X552618Y330855D01*
X551855Y331618D01*
X551390Y332000D01*
X550865Y332431D01*
X549736Y333034D01*
X548510Y333406D01*
X547236Y333531D01*
X545962Y333406D01*
X544737Y333034D01*
X543608Y332431D01*
X543083Y332000D01*
X513000D01*
Y419000D01*
X576000D01*
Y419291D01*
X635827D01*
X648907Y432371D01*
X653927Y427350D01*
X664333D01*
X669535Y432553D01*
Y442959D01*
X664515Y447979D01*
X669291Y452756D01*
X679134Y462598D01*
X718504D01*
X718504Y399606D01*
D02*
G37*
%LPC*%
G36*
X709750Y450477D02*
Y445750D01*
X714476D01*
X714385Y446443D01*
X713828Y447788D01*
X712942Y448942D01*
X711788Y449828D01*
X710443Y450385D01*
X709750Y450477D01*
D02*
G37*
G36*
X708250D02*
X707557Y450385D01*
X706212Y449828D01*
X705058Y448942D01*
X704172Y447788D01*
X703615Y446443D01*
X703523Y445750D01*
X708250D01*
Y450477D01*
D02*
G37*
G36*
X714476Y444250D02*
X709750D01*
Y439524D01*
X710443Y439615D01*
X711788Y440172D01*
X712942Y441058D01*
X713828Y442212D01*
X714385Y443557D01*
X714476Y444250D01*
D02*
G37*
G36*
X699250Y444621D02*
Y438506D01*
X705365D01*
X705306Y439110D01*
X704911Y440411D01*
X704794Y440630D01*
X705184Y440961D01*
X706212Y440172D01*
X707557Y439615D01*
X708250Y439524D01*
Y444250D01*
X703523D01*
X703615Y443557D01*
X703916Y442830D01*
X703482Y442570D01*
X703407Y442662D01*
X702355Y443525D01*
X701155Y444167D01*
X699854Y444561D01*
X699250Y444621D01*
D02*
G37*
G36*
X697750D02*
X697146Y444561D01*
X695845Y444167D01*
X694645Y443525D01*
X693593Y442662D01*
X692731Y441611D01*
X692089Y440411D01*
X691694Y439110D01*
X691635Y438506D01*
X697750D01*
Y444621D01*
D02*
G37*
G36*
X679472Y454071D02*
X677703Y453897D01*
X676001Y453381D01*
X674433Y452542D01*
X673058Y451414D01*
X671930Y450040D01*
X671092Y448471D01*
X670576Y446770D01*
X670401Y445000D01*
X670576Y443230D01*
X671092Y441529D01*
X671930Y439960D01*
X673058Y438586D01*
X674433Y437458D01*
X676001Y436619D01*
X677703Y436103D01*
X679472Y435929D01*
X681242Y436103D01*
X682944Y436619D01*
X684512Y437458D01*
X685887Y438586D01*
X687015Y439960D01*
X687853Y441529D01*
X688369Y443230D01*
X688544Y445000D01*
X688369Y446770D01*
X687853Y448471D01*
X687015Y450040D01*
X685887Y451414D01*
X684512Y452542D01*
X682944Y453381D01*
X681242Y453897D01*
X679472Y454071D01*
D02*
G37*
G36*
X697750Y437006D02*
X691635D01*
X691694Y436402D01*
X692089Y435101D01*
X692731Y433901D01*
X693593Y432849D01*
X694645Y431986D01*
X695845Y431345D01*
X697146Y430950D01*
X697750Y430891D01*
Y437006D01*
D02*
G37*
G36*
X705365D02*
X699250D01*
Y430891D01*
X699854Y430950D01*
X701155Y431345D01*
X702355Y431986D01*
X703407Y432849D01*
X704270Y433901D01*
X704911Y435101D01*
X705306Y436402D01*
X705365Y437006D01*
D02*
G37*
G36*
X697750Y419690D02*
Y416750D01*
X700690D01*
X700659Y416981D01*
X700281Y417894D01*
X699679Y418679D01*
X698894Y419281D01*
X697980Y419659D01*
X697750Y419690D01*
D02*
G37*
G36*
X696250D02*
X696020Y419659D01*
X695106Y419281D01*
X694321Y418679D01*
X693719Y417894D01*
X693341Y416981D01*
X693310Y416750D01*
X696250D01*
Y419690D01*
D02*
G37*
G36*
X700690Y415250D02*
X697750D01*
Y412310D01*
X697980Y412341D01*
X698894Y412719D01*
X699679Y413321D01*
X700281Y414106D01*
X700659Y415020D01*
X700690Y415250D01*
D02*
G37*
G36*
X696250D02*
X693310D01*
X693341Y415020D01*
X693719Y414106D01*
X694321Y413321D01*
X695106Y412719D01*
X696020Y412341D01*
X696250Y412310D01*
Y415250D01*
D02*
G37*
G36*
X667472Y423291D02*
X666050Y423151D01*
X664682Y422736D01*
X663422Y422062D01*
X662317Y421156D01*
X661410Y420051D01*
X660736Y418790D01*
X660322Y417422D01*
X660181Y416000D01*
X660322Y414578D01*
X660736Y413210D01*
X661410Y411949D01*
X662317Y410845D01*
X663422Y409938D01*
X664682Y409264D01*
X666050Y408849D01*
X667472Y408709D01*
X668895Y408849D01*
X670263Y409264D01*
X671523Y409938D01*
X672628Y410845D01*
X673535Y411949D01*
X674208Y413210D01*
X674623Y414578D01*
X674763Y416000D01*
X674623Y417422D01*
X674208Y418790D01*
X673535Y420051D01*
X672628Y421156D01*
X671523Y422062D01*
X670263Y422736D01*
X668895Y423151D01*
X667472Y423291D01*
D02*
G37*
G36*
X548754Y404882D02*
X548750D01*
Y399907D01*
X553724D01*
Y399911D01*
X553334Y401367D01*
X552581Y402672D01*
X551515Y403738D01*
X550210Y404492D01*
X548754Y404882D01*
D02*
G37*
G36*
X547250D02*
X547246D01*
X545790Y404492D01*
X544485Y403738D01*
X543419Y402672D01*
X542666Y401367D01*
X542276Y399911D01*
Y399907D01*
X547250D01*
Y404882D01*
D02*
G37*
G36*
X553724Y398408D02*
X548750D01*
Y393433D01*
X548754D01*
X550210Y393823D01*
X551515Y394577D01*
X552581Y395643D01*
X553334Y396948D01*
X553724Y398404D01*
Y398408D01*
D02*
G37*
G36*
X547250D02*
X542276D01*
Y398404D01*
X542666Y396948D01*
X543419Y395643D01*
X544485Y394577D01*
X545790Y393823D01*
X547246Y393433D01*
X547250D01*
Y398408D01*
D02*
G37*
G36*
X587443Y408028D02*
X586556D01*
X585674Y407941D01*
X584804Y407768D01*
X583955Y407510D01*
X583136Y407171D01*
X582353Y406752D01*
X581616Y406260D01*
X580930Y405697D01*
X580303Y405070D01*
X579740Y404384D01*
X579248Y403647D01*
X578829Y402864D01*
X578490Y402045D01*
X578232Y401196D01*
X578059Y400326D01*
X577972Y399444D01*
Y398556D01*
X578059Y397674D01*
X578232Y396804D01*
X578490Y395955D01*
X578829Y395136D01*
X579248Y394353D01*
X579740Y393616D01*
X580303Y392930D01*
X580930Y392303D01*
X581616Y391740D01*
X582353Y391248D01*
X583136Y390829D01*
X583955Y390490D01*
X584804Y390232D01*
X585674Y390059D01*
X586556Y389972D01*
X587443D01*
X588326Y390059D01*
X588614Y390117D01*
X588645Y390091D01*
X588770Y390103D01*
X590471Y390619D01*
X592040Y391458D01*
X593414Y392586D01*
X594543Y393960D01*
X595381Y395529D01*
X595897Y397230D01*
X596071Y399000D01*
X595897Y400770D01*
X595381Y402471D01*
X594543Y404040D01*
X593414Y405414D01*
X592040Y406542D01*
X590471Y407381D01*
X588770Y407897D01*
X588645Y407909D01*
X588614Y407884D01*
X588326Y407941D01*
X587443Y408028D01*
D02*
G37*
G36*
X656000Y408496D02*
X654230Y408322D01*
X652529Y407806D01*
X650960Y406968D01*
X649586Y405839D01*
X648457Y404465D01*
X647619Y402897D01*
X647103Y401195D01*
X646929Y399425D01*
X646943Y399279D01*
X646929Y399134D01*
X647103Y397364D01*
X647619Y395662D01*
X648457Y394094D01*
X649586Y392720D01*
X649685Y392638D01*
X649714Y392603D01*
X651118Y391451D01*
X652721Y390594D01*
X654459Y390067D01*
X656268Y389888D01*
X658076Y390067D01*
X659815Y390594D01*
X661417Y391451D01*
X662822Y392603D01*
X663975Y394008D01*
X664831Y395610D01*
X665359Y397349D01*
X665537Y399158D01*
X665359Y400966D01*
X664831Y402705D01*
X663975Y404307D01*
X662822Y405712D01*
X661417Y406864D01*
X659815Y407721D01*
X658076Y408248D01*
X657982Y408258D01*
X657770Y408322D01*
X656000Y408496D01*
D02*
G37*
G36*
X548754Y364724D02*
X548750D01*
Y359750D01*
X553724D01*
Y359754D01*
X553334Y361210D01*
X552581Y362515D01*
X551515Y363581D01*
X550210Y364334D01*
X548754Y364724D01*
D02*
G37*
G36*
X547250D02*
X547246D01*
X545790Y364334D01*
X544485Y363581D01*
X543419Y362515D01*
X542666Y361210D01*
X542276Y359754D01*
Y359750D01*
X547250D01*
Y364724D01*
D02*
G37*
G36*
X553724Y358250D02*
X548750D01*
Y353276D01*
X548754D01*
X550210Y353666D01*
X551515Y354419D01*
X552581Y355485D01*
X553334Y356790D01*
X553724Y358246D01*
Y358250D01*
D02*
G37*
G36*
X547250D02*
X542276D01*
Y358246D01*
X542666Y356790D01*
X543419Y355485D01*
X544485Y354419D01*
X545790Y353666D01*
X547246Y353276D01*
X547250D01*
Y358250D01*
D02*
G37*
G36*
X656268Y368269D02*
X654459Y368091D01*
X652721Y367564D01*
X651118Y366707D01*
X649714Y365554D01*
X648561Y364150D01*
X647704Y362547D01*
X647177Y360808D01*
X646999Y359000D01*
X647177Y357192D01*
X647704Y355453D01*
X648561Y353850D01*
X649714Y352446D01*
X651118Y351293D01*
X652721Y350436D01*
X654459Y349909D01*
X655068Y349849D01*
X655103Y349498D01*
X655619Y347796D01*
X656458Y346228D01*
X657586Y344853D01*
X658960Y343725D01*
X660529Y342887D01*
X662230Y342371D01*
X664000Y342196D01*
X665770Y342371D01*
X667471Y342887D01*
X669040Y343725D01*
X670414Y344853D01*
X671543Y346228D01*
X672381Y347796D01*
X672897Y349498D01*
X673071Y351268D01*
X672897Y353037D01*
X672381Y354739D01*
X671543Y356307D01*
X670414Y357682D01*
X669040Y358810D01*
X667471Y359648D01*
X665770Y360165D01*
X665419Y360199D01*
X665359Y360808D01*
X664831Y362547D01*
X663975Y364150D01*
X662822Y365554D01*
X661417Y366707D01*
X659815Y367564D01*
X658076Y368091D01*
X656268Y368269D01*
D02*
G37*
G36*
X577514Y330687D02*
Y327750D01*
X580453D01*
X580423Y327980D01*
X580045Y328894D01*
X579517Y329582D01*
X579500Y329575D01*
X579246Y329830D01*
X578855Y330130D01*
X578429Y330376D01*
X577974Y330564D01*
X577514Y330687D01*
D02*
G37*
G36*
X576014D02*
X575314Y330500D01*
X574458Y330006D01*
X573758Y329306D01*
X573264Y328450D01*
X573076Y327750D01*
X576014D01*
Y330687D01*
D02*
G37*
G36*
X580453Y326250D02*
X577514D01*
Y323313D01*
X577974Y323436D01*
X578429Y323624D01*
X578855Y323870D01*
X579246Y324170D01*
X579500Y324425D01*
X579517Y324418D01*
X580045Y325106D01*
X580423Y326020D01*
X580453Y326250D01*
D02*
G37*
G36*
X576014D02*
X573076D01*
X573264Y325550D01*
X573758Y324694D01*
X574458Y323994D01*
X575314Y323500D01*
X576014Y323313D01*
Y326250D01*
D02*
G37*
G36*
X656750Y296343D02*
Y291616D01*
X661477D01*
X661385Y292309D01*
X660828Y293654D01*
X659942Y294808D01*
X658788Y295694D01*
X657443Y296251D01*
X656750Y296343D01*
D02*
G37*
G36*
X655250D02*
X654557Y296251D01*
X653212Y295694D01*
X652058Y294808D01*
X651172Y293654D01*
X650615Y292309D01*
X650524Y291616D01*
X655250D01*
Y296343D01*
D02*
G37*
G36*
X587750Y296209D02*
Y291482D01*
X592477D01*
X592385Y292175D01*
X591828Y293520D01*
X590942Y294675D01*
X589788Y295561D01*
X588443Y296118D01*
X587750Y296209D01*
D02*
G37*
G36*
X586250D02*
X585557Y296118D01*
X584212Y295561D01*
X583058Y294675D01*
X582172Y293520D01*
X581615Y292175D01*
X581524Y291482D01*
X586250D01*
Y296209D01*
D02*
G37*
G36*
X661477Y290116D02*
X656750D01*
Y285390D01*
X657443Y285481D01*
X658788Y286038D01*
X659942Y286924D01*
X660828Y288078D01*
X661385Y289423D01*
X661477Y290116D01*
D02*
G37*
G36*
X655250D02*
X650524D01*
X650615Y289423D01*
X651172Y288078D01*
X652058Y286924D01*
X653212Y286038D01*
X654557Y285481D01*
X655250Y285390D01*
Y290116D01*
D02*
G37*
G36*
X592477Y289982D02*
X587750D01*
Y285256D01*
X588443Y285347D01*
X589788Y285904D01*
X590942Y286790D01*
X591828Y287945D01*
X592385Y289289D01*
X592477Y289982D01*
D02*
G37*
G36*
X586250D02*
X581524D01*
X581615Y289289D01*
X582172Y287945D01*
X583058Y286790D01*
X584212Y285904D01*
X585557Y285347D01*
X586250Y285256D01*
Y289982D01*
D02*
G37*
G36*
X574703Y269706D02*
Y265545D01*
X578834D01*
X578805Y265760D01*
X578638Y266386D01*
X578390Y266984D01*
X578066Y267544D01*
X577673Y268057D01*
X577215Y268515D01*
X576701Y268909D01*
X576141Y269233D01*
X576000Y269291D01*
Y269314D01*
X575858Y269396D01*
X574703Y269706D01*
D02*
G37*
G36*
X573203D02*
X572047Y269396D01*
X570921Y268746D01*
X570002Y267827D01*
X569352Y266701D01*
X569043Y265545D01*
X573203D01*
Y269706D01*
D02*
G37*
G36*
X578834Y264045D02*
X574703D01*
Y259885D01*
X575858Y260195D01*
X576000Y260277D01*
Y260299D01*
X576141Y260358D01*
X576701Y260682D01*
X577215Y261075D01*
X577673Y261533D01*
X578066Y262047D01*
X578390Y262607D01*
X578638Y263205D01*
X578805Y263830D01*
X578834Y264045D01*
D02*
G37*
G36*
X573203D02*
X569043D01*
X569352Y262890D01*
X570002Y261764D01*
X570921Y260845D01*
X572047Y260195D01*
X573203Y259885D01*
Y264045D01*
D02*
G37*
G36*
X589616Y263476D02*
Y258750D01*
X594343D01*
X594251Y259443D01*
X593694Y260788D01*
X592808Y261942D01*
X591654Y262828D01*
X590309Y263385D01*
X589616Y263476D01*
D02*
G37*
G36*
X588116Y263476D02*
X587423Y263385D01*
X586079Y262828D01*
X584924Y261942D01*
X584038Y260788D01*
X583481Y259443D01*
X583390Y258750D01*
X588116D01*
Y263476D01*
D02*
G37*
G36*
X594343Y257250D02*
X589616D01*
Y252523D01*
X590309Y252615D01*
X591654Y253172D01*
X592808Y254058D01*
X593694Y255212D01*
X594251Y256557D01*
X594343Y257250D01*
D02*
G37*
G36*
X588116D02*
X583390D01*
X583481Y256557D01*
X584038Y255212D01*
X584924Y254058D01*
X586079Y253172D01*
X587423Y252615D01*
X588116Y252523D01*
Y257250D01*
D02*
G37*
G36*
X697134Y267071D02*
X695364Y266897D01*
X693662Y266381D01*
X692094Y265543D01*
X690720Y264414D01*
X689591Y263040D01*
X688753Y261471D01*
X688237Y259770D01*
X688063Y258000D01*
X688237Y256230D01*
X688753Y254529D01*
X689591Y252960D01*
X690720Y251586D01*
X692094Y250458D01*
X693662Y249619D01*
X695364Y249103D01*
X697134Y248929D01*
X698904Y249103D01*
X700605Y249619D01*
X702174Y250458D01*
X703548Y251586D01*
X704676Y252960D01*
X705515Y254529D01*
X706031Y256230D01*
X706205Y258000D01*
X706031Y259770D01*
X705515Y261471D01*
X704676Y263040D01*
X703548Y264414D01*
X702174Y265543D01*
X700605Y266381D01*
X698904Y266897D01*
X697134Y267071D01*
D02*
G37*
G36*
X664750Y248477D02*
Y243750D01*
X669477D01*
X669385Y244443D01*
X668828Y245788D01*
X667942Y246942D01*
X666788Y247828D01*
X665443Y248385D01*
X664750Y248477D01*
D02*
G37*
G36*
X663250D02*
X662557Y248385D01*
X661212Y247828D01*
X660058Y246942D01*
X659172Y245788D01*
X658615Y244443D01*
X658524Y243750D01*
X663250D01*
Y248477D01*
D02*
G37*
G36*
X669477Y242250D02*
X664750D01*
Y237524D01*
X665443Y237615D01*
X666788Y238172D01*
X667942Y239058D01*
X668828Y240212D01*
X669385Y241557D01*
X669477Y242250D01*
D02*
G37*
G36*
X663250D02*
X658524D01*
X658615Y241557D01*
X659172Y240212D01*
X660058Y239058D01*
X661212Y238172D01*
X662557Y237615D01*
X663250Y237524D01*
Y242250D01*
D02*
G37*
G36*
X656750Y208051D02*
Y203325D01*
X661477D01*
X661385Y204018D01*
X660828Y205362D01*
X659942Y206517D01*
X658788Y207403D01*
X657443Y207960D01*
X656750Y208051D01*
D02*
G37*
G36*
X655250D02*
X654557Y207960D01*
X653212Y207403D01*
X652058Y206517D01*
X651172Y205362D01*
X650615Y204018D01*
X650524Y203325D01*
X655250D01*
Y208051D01*
D02*
G37*
G36*
X661477Y201825D02*
X656750D01*
Y197098D01*
X657443Y197189D01*
X658788Y197747D01*
X659942Y198633D01*
X660828Y199787D01*
X661385Y201132D01*
X661477Y201825D01*
D02*
G37*
G36*
X655250D02*
X650524D01*
X650615Y201132D01*
X651172Y199787D01*
X652058Y198633D01*
X653212Y197747D01*
X654557Y197189D01*
X655250Y197098D01*
Y201825D01*
D02*
G37*
G36*
X714685Y210892D02*
X712981Y210758D01*
X711319Y210359D01*
X709740Y209705D01*
X708283Y208812D01*
X706983Y207702D01*
X705873Y206402D01*
X704980Y204945D01*
X704326Y203366D01*
X703927Y201704D01*
X703793Y200000D01*
X703927Y198296D01*
X704326Y196634D01*
X704980Y195055D01*
X705873Y193598D01*
X706983Y192298D01*
X708283Y191188D01*
X709740Y190295D01*
X711319Y189641D01*
X712981Y189242D01*
X714685Y189108D01*
X716389Y189242D01*
X718051Y189641D01*
X719630Y190295D01*
X721087Y191188D01*
X722387Y192298D01*
X723497Y193598D01*
X724390Y195055D01*
X725044Y196634D01*
X725443Y198296D01*
X725577Y200000D01*
X725443Y201704D01*
X725044Y203366D01*
X724390Y204945D01*
X723497Y206402D01*
X722387Y207702D01*
X721087Y208812D01*
X719630Y209705D01*
X718051Y210359D01*
X716389Y210758D01*
X714685Y210892D01*
D02*
G37*
%LPD*%
G54D10*
X222000Y247500D02*
X232000D01*
X332000Y258000D02*
Y268000D01*
X352000D01*
X355000Y271000D01*
Y283405D01*
X355059Y283465D01*
X360898Y277500D02*
X367846D01*
X368000Y277346D01*
Y270654D02*
X374500D01*
X376654Y268500D01*
X383449D01*
Y278500D02*
X395156D01*
X395242Y278414D01*
X403414D01*
X407000Y282000D01*
Y300000D01*
X433071Y298600D02*
Y305118D01*
X442500Y298600D02*
X446746D01*
X451500Y293847D01*
X455653D01*
X457000Y292500D01*
Y284000D01*
X460000Y281000D01*
X468000D01*
X472000Y285000D01*
X484346D01*
X489500Y279847D01*
X451653Y335000D02*
X446654Y340000D01*
X434000D01*
X431000Y343000D01*
X428000D01*
X418795D01*
X457000Y378500D02*
Y384000D01*
X455154Y385846D01*
X451500D01*
X446746Y390600D01*
X442500D01*
X457000Y378500D02*
X461000Y374500D01*
X467000D01*
X469500Y377000D01*
Y380500D01*
X471500Y382500D01*
X484363D01*
X489517Y377346D01*
X458653Y440500D02*
X451448D01*
X377594Y435500D02*
X370500D01*
X363000Y428000D01*
X336500D01*
X331153Y433347D01*
Y440500D01*
X324346D01*
X374500Y277346D02*
X375654Y278500D01*
X383449D01*
X390000Y241000D02*
Y234398D01*
G54D14*
X180500Y186500D02*
X200500D01*
X216535Y187008D02*
X228354D01*
X235000Y193654D01*
X238154D01*
X239874Y195374D01*
X243721D01*
X239154Y204500D02*
X252000D01*
Y189087D01*
X248839Y185925D01*
X261811Y190276D02*
Y208661D01*
X277559D01*
X279528Y210630D01*
X293307D01*
X297000Y214323D01*
Y223000D01*
X295974Y228346D02*
X301654D01*
X307000Y223000D01*
X295974Y228346D02*
X292494Y224866D01*
Y221628D01*
X287402Y216535D01*
X279528D01*
X259842Y236221D01*
X248031D01*
X240158Y244094D01*
Y265748D01*
X238189Y267717D01*
X228346D01*
X226378Y269685D01*
Y291339D01*
X228039Y293000D01*
X234295D01*
Y303000D02*
X228496D01*
X226378Y305118D01*
Y326772D01*
X229606Y330000D01*
X234295D01*
X212598Y345866D02*
Y362748D01*
X207500Y367846D01*
X210630Y343898D02*
X212598Y345866D01*
X252276Y309362D02*
X259842Y316929D01*
X279776D01*
X284190Y321342D01*
X288894D01*
X292494Y317742D01*
Y314961D01*
X297244D01*
X301506Y310699D01*
Y300856D01*
X305118Y297244D01*
X324803D01*
X338583Y283465D01*
X355059D01*
X371535D01*
X374000Y281000D01*
Y277847D01*
X374500Y277346D01*
X382000Y300374D02*
Y311374D01*
X384000Y313374D01*
Y322874D01*
X382500Y324374D01*
X373500D01*
X372689Y325185D01*
Y329028D01*
X372760Y329098D01*
Y335268D01*
X372654Y335374D01*
X372689Y329028D02*
X365500D01*
X358000Y335874D02*
X353000D01*
X343870D01*
X343000Y335004D01*
Y326374D01*
X338500Y321874D01*
Y309374D01*
X342000Y305874D01*
Y300374D01*
X361154Y319721D02*
X365500D01*
X365571Y319650D01*
X372760D01*
X386000Y334653D02*
X387653Y333000D01*
X393205D01*
X401000Y315000D02*
Y326000D01*
Y372047D01*
Y409500D01*
X396500Y414000D01*
X353000D01*
X360000Y441815D02*
X370185Y452000D01*
X406000D01*
X399500Y435500D02*
X406500Y428500D01*
X399500Y435500D02*
X389405D01*
X402000Y423000D02*
X408500Y416500D01*
Y348425D01*
X412575D01*
X413000Y348000D01*
X408500Y348425D02*
Y318000D01*
X427900Y298600D01*
X433071D01*
X442500D01*
X425100Y295900D02*
X404500Y316500D01*
Y414500D01*
X399500Y419500D01*
X333500D01*
X317653Y435347D01*
Y440500D01*
X346500Y450100D02*
X352000Y455600D01*
Y463500D01*
X357000D01*
X377300Y470500D02*
X377500Y470700D01*
Y479500D01*
X387500Y471500D02*
X388500Y470500D01*
X387500Y471500D02*
Y479500D01*
X377594Y435500D02*
Y426905D01*
X381500Y423000D01*
X402000D01*
X418500Y427000D02*
X427500Y436000D01*
X436500D01*
X437647Y437148D01*
Y440500D01*
X444756D01*
X451448D02*
Y437449D01*
X447000Y433000D01*
X431000D01*
X426500Y428500D01*
X422000Y424000D01*
Y395500D01*
X426900Y390600D01*
X442500D01*
X442400Y379500D02*
X442500Y379400D01*
X442746Y379153D01*
X451500D01*
X452500Y372000D02*
X463480D01*
Y367000D02*
X473517D01*
Y370654D01*
Y377346D02*
X481517D01*
X482824D01*
X489517Y370654D01*
X490670Y369500D01*
X501500D01*
X488595Y360000D02*
X483000D01*
X481517Y361483D01*
Y370654D01*
X473517Y367000D02*
Y360079D01*
X473438Y360000D01*
X471438Y362000D01*
X463480D01*
Y357000D02*
X462980Y356500D01*
X438500D01*
X438900Y356100D01*
Y347000D01*
X450100D02*
X457500D01*
X452850Y367256D02*
X452500Y367606D01*
Y372000D01*
X442220D01*
X442500Y372280D01*
Y379400D01*
X442400Y379500D02*
X425100D01*
X418500Y386100D01*
Y427000D01*
X437647Y440500D02*
Y444352D01*
X435000Y447000D01*
X446000Y458336D02*
X448400Y460736D01*
Y461000D01*
X448301Y461099D01*
Y471701D01*
X446000Y458336D02*
X441336D01*
X441000Y458000D01*
X448000Y483600D02*
Y491801D01*
X417500Y433000D02*
X413900Y429400D01*
Y379500D01*
X422292Y367500D02*
X430670D01*
X432517Y369346D01*
X435170Y372000D01*
X442220D01*
Y362000D02*
X433170D01*
X432517Y362653D01*
X432363Y362500D01*
X422292D01*
Y357500D02*
X431000D01*
X432000Y356500D01*
X438500D01*
X418795Y333000D02*
X419000Y332795D01*
Y326000D01*
X401000D02*
X399000D01*
X401000Y315000D02*
X413900Y302100D01*
Y290500D01*
Y270100D01*
X415500Y268500D01*
X424000D01*
X427000D01*
X432774Y262726D01*
X439000D01*
X463856D01*
X464130Y263000D01*
X473421Y262500D02*
Y268000D01*
Y273075D01*
X473500Y273153D01*
X473421Y273075D02*
X473347Y273000D01*
X464130D01*
Y268000D02*
X473421D01*
X481500Y269579D02*
X488579Y262500D01*
X488193Y273153D02*
X489500D01*
X501346D01*
X501500Y273000D01*
X488193Y273153D02*
X481500Y279847D01*
X473500D01*
X481500Y273153D02*
Y269579D01*
X442870Y268000D02*
X437153D01*
X433500Y271654D01*
X431653Y273500D01*
X424000D01*
X438900Y262626D02*
X439000Y262726D01*
X438900Y262626D02*
Y254500D01*
X450100D02*
X457000D01*
X436252Y234252D02*
X443219D01*
X442913Y233946D01*
Y224410D01*
X454419Y224715D02*
Y234252D01*
Y224715D02*
X454724Y224410D01*
X462598D01*
X431000Y229000D02*
X436252Y234252D01*
X431000Y229000D02*
X356000D01*
X349716Y209953D02*
X336000Y223669D01*
Y254000D01*
X332000Y258000D01*
X347980Y277622D02*
X348102Y277500D01*
X347980Y277622D02*
X327083D01*
X326961Y277500D01*
X314154D01*
X313653Y278000D01*
X325307Y270189D02*
X328740Y273622D01*
X325307Y270189D02*
Y268000D01*
X321500Y284846D02*
X320866Y285480D01*
Y291339D01*
X343000Y313744D02*
Y319874D01*
X345500Y322374D01*
X353000D01*
X358500D01*
X361154Y319721D01*
X353000Y322374D02*
Y313744D01*
X311000Y328189D02*
Y333602D01*
X291339Y366142D02*
X297244Y372047D01*
X401000D01*
X392342Y367500D02*
X396000Y363843D01*
Y351000D01*
X392342Y367500D02*
X381741D01*
Y357500D02*
X370670D01*
X369017Y359154D01*
X362000D01*
X361846Y359000D01*
X378472Y400543D02*
X378669Y400740D01*
X352000Y463500D02*
Y472600D01*
X344000Y480600D01*
X342900Y479500D01*
X318500D01*
X321600Y476400D01*
Y469500D01*
X258500Y479500D02*
Y470100D01*
X258400Y470000D01*
X252000D01*
X247000Y475000D01*
X242579D01*
X141732Y324803D02*
Y273031D01*
X155512Y259252D01*
Y252559D02*
X150197D01*
X143701Y246063D01*
X140748D01*
Y238189D02*
X150591D01*
X157480D01*
X173228Y253937D01*
Y258328D01*
X177400Y262500D01*
X179500Y245500D02*
X201500D01*
X210500Y236500D01*
X221900D01*
X222000Y236600D01*
Y247500D01*
X232000D02*
Y236405D01*
X231194Y225400D02*
X232000Y224594D01*
X231194Y225400D02*
X222000D01*
X221600Y225000D01*
X211600D01*
X212598Y224002D01*
Y214567D01*
X212347Y196500D02*
X218752D01*
X219500Y195752D01*
X221252Y194000D01*
X227000D01*
Y204000D02*
X221252D01*
X219500Y202248D01*
X185547D01*
X157480Y230315D01*
Y238189D01*
X159449Y246063D02*
X163386Y250000D01*
Y252559D01*
Y259252D02*
Y259842D01*
X151575Y271654D01*
Y285827D01*
X160748Y295000D01*
X147638Y295276D02*
Y300138D01*
X152500Y305000D01*
X150591Y246063D02*
X159449D01*
X159449Y222441D02*
X185390Y196500D01*
X205654D01*
X200787Y214567D02*
Y224613D01*
X200400Y225000D01*
X200787Y214567D02*
X192913D01*
X235000Y200346D02*
X239154Y204500D01*
X261811Y190276D02*
X266161Y185925D01*
X284000Y194000D02*
X288748D01*
X290500Y195752D01*
X292209D01*
X295276Y198819D01*
Y204724D01*
X305118Y214567D01*
X309055D01*
X314961Y220472D01*
Y226378D01*
X321500Y221106D02*
Y241653D01*
Y221106D02*
X311024Y210630D01*
Y199265D01*
X306000Y194242D01*
Y194000D01*
X301252D01*
X299500Y195752D01*
Y202248D02*
X301252Y204000D01*
X306000D01*
X323339Y186425D02*
X326500Y189587D01*
Y204000D01*
X345779Y196268D02*
X361732D01*
X366079Y191921D01*
X378441D01*
X417811D01*
X425100Y290500D02*
Y295900D01*
X292494Y314961D02*
Y300368D01*
X290620Y298494D01*
X276847D01*
Y298500D01*
Y298494D02*
Y292653D01*
X283653Y285846D01*
Y278000D01*
Y259653D02*
X287154D01*
X289370Y261870D01*
Y261811D01*
X273654Y266347D02*
X267000D01*
X263653Y271528D02*
Y278000D01*
Y271528D02*
X261528Y269402D01*
X253654D01*
Y278000D01*
Y269402D02*
X244094Y259842D01*
Y246063D01*
X250000Y240158D01*
X261811D01*
X278969Y223000D01*
X287000D01*
X288748Y204000D02*
X290500Y202248D01*
X288748Y204000D02*
X284000D01*
X263653Y248000D02*
Y255346D01*
X261000Y258000D01*
X254000D01*
X253654Y257653D01*
Y248000D01*
X252276Y306240D02*
Y309362D01*
X285846Y311500D02*
Y317342D01*
X179500Y245500D02*
X170500Y236500D01*
X159449Y222441D02*
X155512D01*
G54D15*
X288653Y233000D02*
Y255000D01*
X294989Y261335D01*
Y267260D01*
X292850Y269398D01*
X292102D01*
X288653Y272847D01*
Y293000D01*
X328740Y240158D02*
Y226378D01*
X324803Y222441D01*
Y208661D01*
X332677D01*
X334646Y206693D01*
Y192441D01*
X340661Y186425D01*
X324803Y208661D02*
X320866D01*
X313174Y200969D01*
Y198375D01*
X312883Y198085D01*
Y192289D01*
X307345Y186750D01*
G54D18*
X187874Y455000D02*
X160748D01*
G54D47*
X197047Y261417D02*
X178483D01*
X177400Y262500D01*
Y269000D01*
Y275416D01*
X179760Y277776D01*
X177400Y269000D02*
X166402D01*
X160902Y274500D01*
X173653Y294500D02*
X160902D01*
X165248Y359500D02*
X173705D01*
X165248D02*
X160748Y355000D01*
X158327Y357421D01*
X147000D01*
X158327Y372579D02*
X160748Y375000D01*
X168205D01*
X173705Y369500D01*
X160748Y395000D02*
X165748Y400000D01*
X173705D01*
Y410000D02*
X165748D01*
X160748Y415000D01*
X147921D01*
X145500Y412579D01*
Y397421D02*
X158327D01*
X160748Y395000D01*
X158327Y372579D02*
X147000D01*
X185000Y443347D02*
Y452126D01*
X187874Y455000D01*
X230000Y425472D02*
Y436654D01*
Y443347D02*
Y455000D01*
Y460000D01*
X227421Y462579D01*
Y475000D01*
X300100Y469500D02*
X310400D01*
X310500Y461346D02*
Y477500D01*
X308500Y479500D01*
X310500Y454654D02*
Y447500D01*
X337846Y440500D02*
X344900D01*
X346500Y438900D01*
X337846Y445154D02*
X333000Y450000D01*
X333500Y450500D01*
Y469095D01*
X337846Y445154D02*
Y440500D01*
X464500Y349500D02*
X470500Y343500D01*
X482500D01*
X464500Y379028D02*
Y388657D01*
X464547Y388705D01*
X471382D01*
X472177Y389500D01*
X501500D01*
X535500D01*
X536000Y390000D01*
G54D48*
X204528Y261417D02*
Y269488D01*
X210630Y275590D01*
Y280118D01*
X233000Y274000D02*
X238567D01*
X240158Y275590D01*
X246063D01*
X248031Y277559D01*
Y283465D01*
X250067Y285500D01*
X268807D01*
X270153Y286846D01*
X273654Y283347D01*
Y278000D01*
X283653Y259653D02*
Y248000D01*
X270153Y286846D02*
Y298500D01*
Y302500D01*
X279153Y311500D01*
X278958Y320000D02*
X283050Y324093D01*
X295986D01*
X307000Y313079D01*
Y303000D01*
X278958Y320000D02*
X234295D01*
X245000Y299153D02*
X245394Y298760D01*
X252276D01*
Y293071D01*
X254346Y291000D01*
X254847Y290500D01*
X263154D01*
X269894Y298760D02*
X270153Y298500D01*
X269894Y298760D02*
X261724D01*
X302480Y342520D02*
X334646D01*
X336500Y344374D01*
X362000D01*
X373626D01*
X378953Y339047D01*
Y335768D01*
X379346Y335374D01*
X380240Y334480D01*
Y329098D01*
X386000Y341347D02*
Y349000D01*
X387653Y343000D02*
X393205D01*
X387653D02*
X386000Y341347D01*
X413900Y359100D02*
Y379500D01*
Y359100D02*
X415500Y357500D01*
X422292D01*
X428000Y336307D02*
Y318000D01*
X438000Y308000D01*
X436346Y287154D02*
X442746D01*
X442870Y287030D01*
Y278000D01*
X453000D01*
X464130D01*
X451500Y287154D02*
X442746D01*
X442500Y287400D01*
X436346Y287154D02*
X433000Y290500D01*
X425100D01*
X424000Y278500D02*
X433347D01*
X433500Y278346D01*
X433847Y278000D01*
X442870D01*
X453000D02*
Y271000D01*
X453500Y270500D01*
X390000Y221602D02*
X390126Y221476D01*
Y196968D01*
X390252Y196843D01*
X311000Y346398D02*
Y353000D01*
X317000Y359000D01*
X355153D01*
X380000Y378000D02*
X380173Y377827D01*
X386827D01*
X387000Y377654D01*
Y384347D02*
X387165Y384512D01*
Y396835D01*
X387331Y397000D01*
X378472Y400543D02*
X378016Y401000D01*
X371000D01*
X364000D01*
X361400Y403600D01*
X346000D01*
X321600D01*
X314000Y396000D01*
Y385000D01*
X309000Y380000D01*
X291000D01*
X282000Y371000D01*
Y356100D01*
X288900D01*
X302480Y342520D01*
X282000Y356100D02*
X269758D01*
X266000Y359858D01*
X258500D01*
X258000Y360358D01*
Y370500D01*
X258500Y359858D02*
X249645D01*
X235142D01*
X232000Y363000D01*
Y413669D01*
X230000Y415669D01*
Y425472D01*
X238154Y436654D02*
X241500Y440000D01*
Y447500D01*
X244000Y450000D01*
X249815D01*
X258500D01*
X269600Y461100D01*
Y470000D01*
X268500Y471100D01*
Y479500D01*
X278500Y489500D01*
X360000D01*
X383000D01*
X387500Y485000D01*
Y479500D01*
X406000Y468000D02*
X417500Y479500D01*
X427500D02*
Y459546D01*
X427400Y468500D02*
X416799D01*
X418000Y450000D02*
X423846Y444153D01*
Y440500D01*
X430955D01*
X452199Y449801D02*
X460000D01*
X462400D01*
X465346Y446854D01*
Y440500D01*
X465373Y440473D01*
Y432027D01*
X465400Y432000D01*
X471000Y442000D02*
X475622Y437378D01*
Y432978D01*
X476600Y432000D01*
X471000Y449000D02*
Y442000D01*
Y449000D02*
X467000Y453000D01*
X460000Y449801D02*
Y460600D01*
X459600Y461000D01*
Y471494D01*
X459000Y472094D01*
Y483405D02*
X441405D01*
X437500Y479500D01*
Y469600D01*
X438600Y468500D01*
X436648Y452852D02*
X439500Y450000D01*
X452000D01*
X452199Y449801D01*
X436648Y452852D02*
X427500D01*
X417154Y440500D02*
X411500D01*
X406000Y446000D01*
Y452000D01*
Y468000D01*
X360000Y489500D02*
Y481185D01*
X344000Y469400D02*
X337900Y475500D01*
X329500D01*
X327000Y473000D01*
Y461000D01*
X317653Y451653D01*
Y440500D01*
X311347D01*
X298847Y449847D02*
X299000Y450000D01*
X298847Y449847D02*
Y440500D01*
X304654D01*
X307602Y392000D02*
X301000D01*
X320398D02*
X329654D01*
X329000Y391347D01*
Y382000D01*
X333000Y378000D01*
X355000D01*
X355153Y378153D01*
X371000Y393130D02*
X378539D01*
X378669Y393260D01*
X371000Y393130D02*
X362130D01*
X362000Y393000D01*
X355307D02*
X354807Y392500D01*
X336846D01*
X336347Y392000D01*
X344000Y461100D02*
X344600Y460500D01*
X344000Y461100D02*
Y469400D01*
X238154Y436654D02*
X230000D01*
X206347Y392000D02*
X218000D01*
X218504Y369496D02*
X206347Y381653D01*
Y392000D01*
X218504Y369496D02*
Y303000D01*
X216000D01*
X208705D01*
X202500D01*
X200847Y301346D01*
X196500D01*
X201181Y307283D02*
X204921Y311024D01*
X208661D01*
X208705Y320000D02*
X211732D01*
X214567Y322835D01*
Y333268D01*
X210630Y337205D01*
X207996Y330709D02*
X208705Y330000D01*
X207996Y330709D02*
X200787D01*
Y342520D01*
X206347Y348079D01*
Y351000D01*
X200787Y330709D02*
Y328150D01*
X194882D01*
Y328213D01*
Y334646D01*
X194028Y335500D01*
X189347D01*
X181559Y328213D02*
X194882D01*
X200787Y321457D02*
X202244Y320000D01*
X208705D01*
X216000Y303000D02*
Y291000D01*
X212224Y287224D01*
X187240D01*
X181563Y283453D02*
X187240Y277776D01*
X189583Y280118D01*
X194882D01*
X197638Y282874D01*
X202756D01*
Y276181D02*
X200787Y274213D01*
Y270079D01*
X181563Y283453D02*
X178442D01*
X178430Y283465D01*
X175197D01*
X173653Y285008D01*
Y294500D01*
X187240Y277776D02*
Y270860D01*
X189100Y269000D01*
X173534Y309055D02*
X173425Y309164D01*
Y314961D01*
Y318110D01*
Y314961D02*
X160787D01*
X160748Y315000D01*
X180905Y327559D02*
X181559Y328213D01*
X489517Y377346D02*
X491670Y379500D01*
X501500D01*
G54D49*
X187874Y425472D02*
Y432126D01*
X185000Y435000D01*
X160748D01*
X452000Y204748D02*
X466496Y190252D01*
X507252D01*
X516000Y199000D01*
Y221000D01*
X532000Y237000D01*
X534205Y239205D01*
X553000D01*
X568047D01*
G54D50*
X471248Y413500D02*
X475248Y409500D01*
X501500D01*
Y443000D01*
X477000Y467500D01*
Y474252D01*
X470453Y414295D02*
X471248Y413500D01*
X482500D01*
X497500D01*
X501500Y409500D01*
G54D52*
X552500Y474252D02*
X562500D01*
X572500D01*
X562500D02*
Y454724D01*
Y440000D01*
X595883Y441066D02*
Y473883D01*
X596252Y474252D01*
X612500D01*
X616142Y470610D01*
Y461614D01*
X612500Y465256D01*
X618957D01*
X627953Y474252D01*
X648382D01*
X659130Y485000D01*
X677347D01*
X679472Y487126D01*
X616142Y461614D02*
X601870Y447342D01*
X595883Y441066D02*
X596949Y440000D01*
G54D53*
X273654Y248000D02*
Y259653D01*
X267000D01*
X293653Y248000D02*
X295346Y246307D01*
Y233000D01*
X305307D01*
X312000D02*
X313653Y234653D01*
Y248000D01*
X321153D01*
X321500Y248346D01*
X325307Y258000D02*
X307000D01*
X303654Y254654D01*
Y248000D01*
X325307Y268000D02*
X307000D01*
X303654Y271346D01*
Y278000D01*
X313653D02*
Y289693D01*
X310347Y293000D01*
X338583Y291339D02*
X370243D01*
X372000Y293096D01*
Y300374D01*
Y306528D01*
X371654Y306874D01*
X365500Y313028D01*
X364784Y313744D01*
X358000D01*
X371654Y306874D02*
X349500D01*
X348000Y308374D01*
Y313744D01*
X358000Y335004D02*
X358717Y335720D01*
X365500D01*
X390000Y296000D02*
Y323000D01*
X386000Y327000D01*
Y334653D01*
X390000Y296000D02*
X387096Y293096D01*
X372000D01*
X336614Y326772D02*
Y336614D01*
X334646Y338583D01*
X297417D01*
X291100Y344900D01*
X282000D01*
X279242Y342142D01*
X266000D01*
X258000D01*
Y330500D01*
Y342142D02*
X249645D01*
X248786Y343000D01*
X232000D01*
X224410Y350590D01*
Y405590D01*
X217000Y413000D01*
Y479000D01*
X222000Y484000D01*
X239000D01*
X242579Y480421D01*
Y475000D01*
X292154Y440500D02*
X288900Y443753D01*
Y469500D01*
X298500Y479100D01*
Y479500D01*
X217000Y413000D02*
X212846Y408847D01*
X207500D01*
X206347Y410000D01*
X199295D01*
X194000D01*
X191500Y407500D01*
Y369500D01*
X199295D01*
X205847D01*
X207500Y367846D01*
Y361154D02*
X200949D01*
X199295Y359500D01*
Y351358D01*
X199653Y351000D01*
X191500Y356500D02*
Y369500D01*
Y356500D02*
X182653Y347654D01*
Y342500D01*
X182500Y342347D01*
X174500D01*
X171846Y345000D01*
X152500D01*
X148500Y341000D01*
Y309000D01*
X152500Y305000D01*
X166000D01*
X170153Y300847D01*
X174000D01*
X182000D01*
X182153Y301000D01*
X188847D02*
Y296654D01*
X190847Y294654D01*
X196500D01*
X198153Y293000D01*
X208705D01*
X233000Y284000D02*
X241193D01*
X243000Y282193D01*
Y286347D01*
X247654Y291000D01*
X251882Y305847D02*
X252276Y306240D01*
X251882Y305847D02*
X245000D01*
X240886D01*
X238039Y303000D01*
X234295D01*
X201181Y314764D02*
X199016D01*
X194882Y318898D01*
Y321457D01*
X192520Y313976D02*
Y311024D01*
Y313976D02*
X188976Y317520D01*
X187598Y322835D02*
X188976Y324213D01*
X187598Y322835D02*
X181102D01*
X171260D01*
X163386Y330709D01*
Y335500D01*
X182653D01*
X181102Y322835D02*
Y312687D01*
X184734Y309055D01*
X163386Y335500D02*
X161248D01*
X160748Y335000D01*
X199653Y392000D02*
Y399642D01*
X199295Y400000D01*
X205346D01*
X207500Y402153D01*
X293653Y287961D02*
X295346Y289653D01*
Y293000D01*
X303654D01*
X293653Y287961D02*
Y278000D01*
X283653D02*
Y266347D01*
X273654D01*
X338583Y291339D02*
X332677Y297244D01*
Y322835D01*
X336614Y326772D01*
X369017Y365846D02*
X370670Y367500D01*
X381741D01*
X458347Y335000D02*
X499000D01*
X521000Y313000D01*
X532000D01*
X501500Y283000D02*
X492654D01*
X489500Y279847D01*
G54D55*
X390252Y196843D02*
D03*
G54D56*
X150591Y230315D02*
D03*
Y238189D02*
D03*
X140748D02*
D03*
Y246063D02*
D03*
Y230315D02*
D03*
X390252Y187000D02*
D03*
X398126D02*
D03*
X406000D02*
D03*
Y196843D02*
D03*
X398126D02*
D03*
G54D57*
X145669Y218504D02*
D03*
Y257874D02*
D03*
X243721Y195374D02*
D03*
X271280Y195768D02*
D03*
X318220Y195874D02*
D03*
X345779Y196268D02*
D03*
X378441Y191921D02*
D03*
X417811D02*
D03*
X464547Y292705D02*
D03*
X470453Y318295D02*
D03*
X464547Y388705D02*
D03*
X470453Y414295D02*
D03*
X573953Y264795D02*
D03*
X568047Y239205D02*
D03*
G54D58*
X150591Y246063D02*
D03*
G54D59*
X287000Y223000D02*
D03*
X297000D02*
D03*
X307000D02*
D03*
Y303000D02*
D03*
X297000D02*
D03*
X287000D02*
D03*
X464500Y256000D02*
D03*
Y285528D02*
D03*
Y349500D02*
D03*
Y379028D02*
D03*
X547236Y327000D02*
D03*
X576764D02*
D03*
X667472Y416000D02*
D03*
X697000D02*
D03*
X616142Y461614D02*
D03*
X596949Y440000D02*
D03*
X616142Y432087D02*
D03*
X567421Y440000D02*
D03*
G54D60*
X258000Y330500D02*
D03*
Y370500D02*
D03*
Y410500D02*
D03*
X438000D02*
D03*
X482500Y413500D02*
D03*
X531496Y452756D02*
D03*
X482500Y343500D02*
D03*
Y315500D02*
D03*
Y245500D02*
D03*
X531496Y204724D02*
D03*
X553000Y239000D02*
D03*
Y309000D02*
D03*
X698500Y437756D02*
D03*
Y485000D02*
D03*
X659130D02*
D03*
G54D61*
X160748Y275000D02*
D03*
Y315000D02*
D03*
Y355000D02*
D03*
Y395000D02*
D03*
Y435000D02*
D03*
X452000Y205748D02*
D03*
X497500D02*
D03*
X592500Y474252D02*
D03*
X552500D02*
D03*
X477000D02*
D03*
G54D62*
X432000Y205748D02*
D03*
X477500D02*
D03*
X612500Y474252D02*
D03*
X572500D02*
D03*
X497000D02*
D03*
G54D63*
X501500Y273000D02*
D03*
Y283000D02*
D03*
Y293000D02*
D03*
Y313000D02*
D03*
X532000Y273000D02*
D03*
Y293000D02*
D03*
Y303000D02*
D03*
Y313000D02*
D03*
X501500Y369500D02*
D03*
Y379500D02*
D03*
Y389500D02*
D03*
Y409500D02*
D03*
G54D64*
X230000Y425472D02*
D03*
Y455000D02*
D03*
X187874D02*
D03*
Y425472D02*
D03*
X588866Y258000D02*
D03*
X587000Y290732D02*
D03*
X656000Y290866D02*
D03*
X664000Y243000D02*
D03*
X697134Y258000D02*
D03*
X656000Y202575D02*
D03*
X664000Y351268D02*
D03*
X656000Y399134D02*
D03*
Y399425D02*
D03*
X679472Y445000D02*
D03*
X709000D02*
D03*
Y487126D02*
D03*
X679472D02*
D03*
X587000Y399000D02*
D03*
G54D65*
X248839Y185925D02*
D03*
X266161D02*
D03*
X323339Y186425D02*
D03*
X340661D02*
D03*
G54D66*
X437500Y479500D02*
D03*
X427500D02*
D03*
X417500D02*
D03*
X407500D02*
D03*
X387500D02*
D03*
X318500D02*
D03*
X308500D02*
D03*
X298500D02*
D03*
X288500D02*
D03*
X268500D02*
D03*
G54D67*
X377500Y479500D02*
D03*
X258500D02*
D03*
G54D68*
X232000Y247500D02*
D03*
X233000Y284000D02*
D03*
X232000Y353000D02*
D03*
Y363000D02*
D03*
X352000Y300374D02*
D03*
X362000D02*
D03*
X372000D02*
D03*
X472598Y224410D02*
D03*
G54D69*
X222000Y247500D02*
D03*
X342000Y300374D02*
D03*
X382000D02*
D03*
X462598Y224410D02*
D03*
G54D70*
X659130Y437756D02*
D03*
G54D71*
X233000Y274000D02*
D03*
X232000Y343000D02*
D03*
G54D72*
X180500Y186500D02*
D03*
X200500D02*
D03*
X210500Y236500D02*
D03*
X190500D02*
D03*
X170500D02*
D03*
X299000Y450000D02*
D03*
X418000D02*
D03*
G54D73*
X452000Y450000D02*
D03*
X333000D02*
D03*
G54D74*
X360000Y441815D02*
D03*
Y481185D02*
D03*
X289185Y450000D02*
D03*
X249815D02*
D03*
G54D75*
X438000Y330500D02*
D03*
G54D76*
X160748Y295000D02*
D03*
Y335000D02*
D03*
Y375000D02*
D03*
Y415000D02*
D03*
Y455000D02*
D03*
G54D77*
X548000Y359000D02*
D03*
Y399158D02*
D03*
X656268Y359000D02*
D03*
Y399158D02*
D03*
G54D78*
X227000Y194000D02*
D03*
Y204000D02*
D03*
X284000D02*
D03*
Y194000D02*
D03*
X306000D02*
D03*
Y204000D02*
D03*
G54D79*
X263653Y248000D02*
D03*
X273654D02*
D03*
X283653D02*
D03*
X293653D02*
D03*
X303654D02*
D03*
X313653D02*
D03*
Y278000D02*
D03*
X303654D02*
D03*
X293653D02*
D03*
X283653D02*
D03*
X273654D02*
D03*
X263653D02*
D03*
X253654D02*
D03*
G54D80*
X253654Y248000D02*
D03*
G54D81*
X155000Y200000D02*
D03*
Y480000D02*
D03*
X714685Y200000D02*
D03*
Y379000D02*
D03*
G54D82*
X216535Y187008D02*
D03*
X192913Y214567D02*
D03*
X177400Y262500D02*
D03*
X155512Y222441D02*
D03*
X147638Y295276D02*
D03*
X141732Y324803D02*
D03*
X200787Y342520D02*
D03*
X208661Y311024D02*
D03*
X254000Y258000D02*
D03*
X288653Y255000D02*
D03*
X289370Y261811D02*
D03*
X314961Y226378D02*
D03*
X328740Y240158D02*
D03*
X349716Y209953D02*
D03*
X356000Y229000D02*
D03*
X390000Y241000D02*
D03*
X433000Y290500D02*
D03*
X433071Y305118D02*
D03*
X438000Y308000D02*
D03*
X419000Y326000D02*
D03*
X413000Y348000D02*
D03*
X399000Y326000D02*
D03*
X396000Y351000D02*
D03*
X386000Y349000D02*
D03*
X380000Y378000D02*
D03*
X355000D02*
D03*
X362000Y344374D02*
D03*
X407000Y300000D02*
D03*
X457000Y254500D02*
D03*
X457500Y347000D02*
D03*
X559055Y438976D02*
D03*
X566929Y446850D02*
D03*
Y454724D02*
D03*
X559055D02*
D03*
Y446850D02*
D03*
X467000Y453000D02*
D03*
X441000Y458000D02*
D03*
X435000Y447000D02*
D03*
X426500Y428500D02*
D03*
X417500Y433000D02*
D03*
X406500Y428500D02*
D03*
X357000Y463500D02*
D03*
X353000Y414000D02*
D03*
X310500Y447500D02*
D03*
X301000Y392000D02*
D03*
X291339Y366142D02*
D03*
X311000Y328189D02*
D03*
X285846Y317342D02*
D03*
X320866Y291339D02*
D03*
X328740Y273622D02*
D03*
X326500Y204000D02*
D03*
X307345Y186750D02*
D03*
X261811Y208661D02*
D03*
X252000Y204500D02*
D03*
X218000Y392000D02*
D03*
X448000Y491801D02*
D03*
G54D83*
X450350Y265776D02*
D03*
Y270500D02*
D03*
Y275224D02*
D03*
X453500Y273256D02*
D03*
Y268138D02*
D03*
X456650Y270500D02*
D03*
Y265776D02*
D03*
Y275224D02*
D03*
X456000Y359776D02*
D03*
Y364500D02*
D03*
X452850Y362138D02*
D03*
Y367256D02*
D03*
X449701Y364500D02*
D03*
Y359776D02*
D03*
Y369224D02*
D03*
X456000D02*
D03*
G54D84*
X235000Y193654D02*
D03*
Y200346D02*
D03*
X283653Y259653D02*
D03*
Y266347D02*
D03*
X273654D02*
D03*
X267000D02*
D03*
Y259653D02*
D03*
X273654D02*
D03*
X243000Y282193D02*
D03*
Y275500D02*
D03*
X245000Y299153D02*
D03*
Y305847D02*
D03*
X210630Y337205D02*
D03*
Y343898D02*
D03*
X207500Y361154D02*
D03*
Y367846D02*
D03*
X200787Y328150D02*
D03*
X194882D02*
D03*
Y321457D02*
D03*
X200787D02*
D03*
X196500Y301346D02*
D03*
Y294654D02*
D03*
X194882Y286811D02*
D03*
X202756Y282874D02*
D03*
Y276181D02*
D03*
X194882Y280118D02*
D03*
X210630D02*
D03*
Y286811D02*
D03*
X188976Y317520D02*
D03*
Y324213D02*
D03*
X174500Y335653D02*
D03*
Y342347D02*
D03*
X174000Y300847D02*
D03*
Y294153D02*
D03*
X155512Y259252D02*
D03*
Y252559D02*
D03*
X163386D02*
D03*
Y259252D02*
D03*
X321500Y248346D02*
D03*
Y241653D02*
D03*
Y278153D02*
D03*
Y284846D02*
D03*
X368000Y277346D02*
D03*
Y270654D02*
D03*
X374500D02*
D03*
Y277346D02*
D03*
X365500Y313028D02*
D03*
Y319721D02*
D03*
Y329028D02*
D03*
Y335720D02*
D03*
X386000Y334653D02*
D03*
Y341347D02*
D03*
X369017Y359154D02*
D03*
Y365846D02*
D03*
X387000Y377654D02*
D03*
Y384347D02*
D03*
X371000Y400347D02*
D03*
Y393653D02*
D03*
X428000Y336307D02*
D03*
Y343000D02*
D03*
X432517Y362653D02*
D03*
X451500Y379153D02*
D03*
Y385846D02*
D03*
X432517Y369346D02*
D03*
X473517Y370654D02*
D03*
Y377346D02*
D03*
X481517D02*
D03*
Y370654D02*
D03*
X489517D02*
D03*
Y377346D02*
D03*
X427500Y452852D02*
D03*
Y459546D02*
D03*
X310500Y461346D02*
D03*
Y454654D02*
D03*
X230000Y443347D02*
D03*
Y436654D02*
D03*
X207500Y408847D02*
D03*
Y402153D02*
D03*
X185000Y436654D02*
D03*
Y443347D02*
D03*
X433500Y278346D02*
D03*
Y271654D02*
D03*
X451500Y287154D02*
D03*
Y293847D02*
D03*
X473500Y279847D02*
D03*
Y273153D02*
D03*
X481500D02*
D03*
Y279847D02*
D03*
X489500D02*
D03*
Y273153D02*
D03*
G54D85*
X311000Y346398D02*
D03*
X390000Y234398D02*
D03*
G54D86*
X311000Y333602D02*
D03*
X390000Y221602D02*
D03*
G54D87*
X387331Y397000D02*
D03*
X378669Y400740D02*
D03*
Y393260D02*
D03*
G54D88*
X208705Y293000D02*
D03*
Y320000D02*
D03*
X199295Y369500D02*
D03*
Y410000D02*
D03*
X393205Y333000D02*
D03*
G54D89*
X234295Y293000D02*
D03*
Y303000D02*
D03*
Y320000D02*
D03*
Y330000D02*
D03*
X208705D02*
D03*
Y303000D02*
D03*
X199295Y359500D02*
D03*
X173705Y369500D02*
D03*
Y359500D02*
D03*
X199295Y400000D02*
D03*
X173705D02*
D03*
Y410000D02*
D03*
X393205Y343000D02*
D03*
X418795Y333000D02*
D03*
Y343000D02*
D03*
G54D90*
X205654Y196500D02*
D03*
X212347D02*
D03*
X288653Y233000D02*
D03*
X295346D02*
D03*
X305307D02*
D03*
X312000D02*
D03*
X325307Y258000D02*
D03*
X332000D02*
D03*
Y268000D02*
D03*
X325307D02*
D03*
X310347Y293000D02*
D03*
X303654D02*
D03*
X295346D02*
D03*
X288653D02*
D03*
X276847Y298500D02*
D03*
X270153D02*
D03*
X269847Y290500D02*
D03*
X263154D02*
D03*
X254346Y291000D02*
D03*
X247654D02*
D03*
X279153Y311500D02*
D03*
X285846D02*
D03*
X355153Y359000D02*
D03*
X361846D02*
D03*
X372654Y335374D02*
D03*
X379346D02*
D03*
X362000Y393000D02*
D03*
X355307D02*
D03*
X336347Y392000D02*
D03*
X329654D02*
D03*
X331153Y440500D02*
D03*
X337846D02*
D03*
X324346D02*
D03*
X317653D02*
D03*
X311347D02*
D03*
X304654D02*
D03*
X298847D02*
D03*
X292154D02*
D03*
X206347Y392000D02*
D03*
X199653D02*
D03*
Y351000D02*
D03*
X206347D02*
D03*
X189347Y335500D02*
D03*
X182653D02*
D03*
X182153Y301000D02*
D03*
X188847D02*
D03*
X417154Y440500D02*
D03*
X423846D02*
D03*
X430955D02*
D03*
X437647D02*
D03*
X444756D02*
D03*
X451448D02*
D03*
X458653D02*
D03*
X465346D02*
D03*
X451653Y335000D02*
D03*
X458347D02*
D03*
G54D91*
X222000Y225400D02*
D03*
Y236600D02*
D03*
X282000Y344900D02*
D03*
Y356100D02*
D03*
X346000Y392400D02*
D03*
Y403600D02*
D03*
X346500Y438900D02*
D03*
Y450100D02*
D03*
X344000Y469400D02*
D03*
Y480600D02*
D03*
X442500Y390600D02*
D03*
Y379400D02*
D03*
Y298600D02*
D03*
Y287400D02*
D03*
X448000Y472400D02*
D03*
Y483600D02*
D03*
G54D92*
X348102Y277500D02*
D03*
X307602Y392000D02*
D03*
G54D93*
X360898Y277500D02*
D03*
X320398Y392000D02*
D03*
G54D94*
X201181Y307283D02*
D03*
X192520Y311024D02*
D03*
G54D95*
X201181Y314764D02*
D03*
G54D96*
X197047Y261417D02*
D03*
X200787Y270079D02*
D03*
G54D97*
X204528Y261417D02*
D03*
G54D98*
X179760Y287224D02*
D03*
X173425Y327559D02*
D03*
X380240Y319650D02*
D03*
G54D99*
X179760Y277776D02*
D03*
X187240D02*
D03*
Y287224D02*
D03*
X183500D02*
D03*
X180905Y318110D02*
D03*
Y327559D02*
D03*
X177165D02*
D03*
X173425Y318110D02*
D03*
X372760Y319650D02*
D03*
X376500D02*
D03*
X372760Y329098D02*
D03*
X380240D02*
D03*
G54D100*
X442220Y357000D02*
D03*
X442870Y263000D02*
D03*
G54D101*
X442220Y362000D02*
D03*
Y367000D02*
D03*
Y372000D02*
D03*
X463480Y367000D02*
D03*
Y362000D02*
D03*
Y357000D02*
D03*
Y372000D02*
D03*
X442870Y278000D02*
D03*
Y273000D02*
D03*
Y268000D02*
D03*
X464130Y263000D02*
D03*
Y268000D02*
D03*
Y273000D02*
D03*
Y278000D02*
D03*
G54D102*
X453500Y270500D02*
D03*
X452850Y364500D02*
D03*
G54D103*
X383449Y268500D02*
D03*
X381741Y357500D02*
D03*
G54D104*
X383449Y273500D02*
D03*
Y278500D02*
D03*
X424000D02*
D03*
Y273500D02*
D03*
Y268500D02*
D03*
X422292Y357500D02*
D03*
Y362500D02*
D03*
Y367500D02*
D03*
X381741D02*
D03*
Y362500D02*
D03*
G54D105*
X343000Y313744D02*
D03*
X348000D02*
D03*
X353000D02*
D03*
X358000Y335004D02*
D03*
X353000D02*
D03*
X348000D02*
D03*
X343000D02*
D03*
G54D106*
X358000Y313744D02*
D03*
G54D107*
X211600Y225000D02*
D03*
X200400D02*
D03*
X189100Y269000D02*
D03*
X177900D02*
D03*
X184734Y309055D02*
D03*
X173534D02*
D03*
X333400Y460500D02*
D03*
X344600D02*
D03*
X377300Y470500D02*
D03*
X388500D02*
D03*
X405599Y468500D02*
D03*
X416799D02*
D03*
X427400D02*
D03*
X438600D02*
D03*
X448400Y461000D02*
D03*
X459600D02*
D03*
X465400Y432000D02*
D03*
X476600D02*
D03*
X425100Y379500D02*
D03*
X413900D02*
D03*
X438900Y347000D02*
D03*
X450100D02*
D03*
X425100Y290500D02*
D03*
X413900D02*
D03*
X438900Y254500D02*
D03*
X450100D02*
D03*
X454419Y234252D02*
D03*
X443219D02*
D03*
X321600Y469500D02*
D03*
X310400D02*
D03*
X300100D02*
D03*
X288900D02*
D03*
X269600Y470000D02*
D03*
X258400D02*
D03*
G54D108*
X266000Y359858D02*
D03*
X249645D02*
D03*
G54D109*
X266000Y342142D02*
D03*
X249645D02*
D03*
G54D110*
X147000Y357421D02*
D03*
X145500Y397421D02*
D03*
G54D111*
X147000Y372579D02*
D03*
X145500Y412579D02*
D03*
G54D112*
X473421Y262500D02*
D03*
X473438Y360000D02*
D03*
X242579Y475000D02*
D03*
G54D113*
X227421Y475000D02*
D03*
X488579Y262500D02*
D03*
X488595Y360000D02*
D03*
G54D114*
X219500Y202248D02*
D03*
X290500D02*
D03*
X299500D02*
D03*
G54D115*
X219500Y195752D02*
D03*
X290500D02*
D03*
X299500D02*
D03*
G54D116*
X252276Y298760D02*
D03*
Y306240D02*
D03*
X261724Y302500D02*
D03*
Y298760D02*
D03*
G54D117*
X261724Y306240D02*
D03*
G54D118*
X232000Y224594D02*
D03*
Y236405D02*
D03*
X333500Y469095D02*
D03*
Y480905D02*
D03*
X459000Y472094D02*
D03*
Y483906D02*
D03*
G54D119*
X212598Y214567D02*
D03*
X200787D02*
D03*
X389405Y435500D02*
D03*
X377594D02*
D03*
X442913Y224410D02*
D03*
X454724D02*
D03*
G54D120*
X438000Y326500D02*
Y330500D01*
Y326500D02*
X464547Y299953D01*
Y292705D01*
X464843Y293000D01*
X501500D01*
X532000D01*
X555000D01*
X556000Y292000D01*
X553000Y309000D02*
Y309761D01*
X548000Y314761D01*
Y326236D01*
X547236Y327000D01*
G54D121*
X532000Y237000D02*
Y273000D01*
M02*
