G04*
G04 #@! TF.GenerationSoftware,Altium Limited,Altium Designer,21.3.2 (30)*
G04*
G04 Layer_Color=2752767*
%FSLAX25Y25*%
%MOIN*%
G70*
G04*
G04 #@! TF.SameCoordinates,82E3065C-4493-458C-8774-CE3C9F48797D*
G04*
G04*
G04 #@! TF.FilePolarity,Positive*
G04*
G01*
G75*
%ADD163C,0.00200*%
%ADD164C,0.00267*%
%ADD165C,0.00133*%
G54D163*
X179700Y186100D02*
X180100D01*
X180500Y185700D01*
X180900Y186100D01*
X181300D01*
X180900Y186500D01*
X181300Y186900D01*
X180900D01*
X180500Y187300D01*
X180100Y186900D01*
X179700D01*
X180100Y186500D01*
X179700Y186100D01*
X180100Y186300D02*
X180300D01*
X180500Y186100D01*
X180700Y186300D01*
X180900D01*
X180700Y186500D01*
X180900Y186700D01*
X180700D01*
X180500Y186900D01*
X180300Y186700D01*
X180100D01*
X180300Y186500D01*
X180100Y186300D01*
X199700Y186100D02*
X200100D01*
X200500Y185700D01*
X200900Y186100D01*
X201300D01*
X200900Y186500D01*
X201300Y186900D01*
X200900D01*
X200500Y187300D01*
X200100Y186900D01*
X199700D01*
X200100Y186500D01*
X199700Y186100D01*
X200100Y186300D02*
X200300D01*
X200500Y186100D01*
X200700Y186300D01*
X200900D01*
X200700Y186500D01*
X200900Y186700D01*
X200700D01*
X200500Y186900D01*
X200300Y186700D01*
X200100D01*
X200300Y186500D01*
X200100Y186300D01*
X216535Y187008D02*
X217535D01*
X217868Y187341D01*
Y187674D01*
X217535Y188007D01*
X216535D01*
X217535D01*
X217868Y188341D01*
Y188674D01*
X217535Y189007D01*
X216535D01*
Y187008D01*
X226200Y193200D02*
Y194800D01*
X227800D01*
Y193200D01*
X226200D01*
Y203200D02*
Y204800D01*
X227800D01*
Y203200D01*
X226200D01*
X248039Y185925D02*
X248839Y186725D01*
X249639Y185925D01*
X248839Y185125D01*
X248039Y185925D01*
X265361D02*
X266161Y186725D01*
X266961Y185925D01*
X266161Y185125D01*
X265361Y185925D01*
X270479Y194968D02*
X270880D01*
X271280Y195368D01*
X271679Y194968D01*
X272079D01*
Y195368D01*
X271679Y195768D01*
X272079Y196168D01*
Y196568D01*
X271679D01*
X271280Y196168D01*
X270880Y196568D01*
X270479D01*
Y196168D01*
X270880Y195768D01*
X270479Y195368D01*
Y194968D01*
X283200Y194800D02*
X284800D01*
Y193200D01*
X283200D01*
Y194800D01*
Y203200D02*
Y204800D01*
X284800D01*
Y203200D01*
X283200D01*
X307345Y188749D02*
Y186750D01*
X308344D01*
X308677Y187083D01*
Y187417D01*
X308344Y187750D01*
X307345D01*
X308344D01*
X308677Y188083D01*
Y188416D01*
X308344Y188749D01*
X307345D01*
X322539Y186425D02*
X323339Y187225D01*
X324139Y186425D01*
X323339Y185625D01*
X322539Y186425D01*
X326500Y204000D02*
X327500D01*
X327833Y204333D01*
Y204666D01*
X327500Y205000D01*
X326500D01*
X327500D01*
X327833Y205333D01*
Y205666D01*
X327500Y205999D01*
X326500D01*
Y204000D01*
X339861Y186425D02*
X340661Y187225D01*
X341461Y186425D01*
X340661Y185625D01*
X339861Y186425D01*
X344980Y195468D02*
X345379D01*
X345779Y195868D01*
X346180Y195468D01*
X346580D01*
Y195868D01*
X346180Y196268D01*
X346580Y196668D01*
Y197068D01*
X346180D01*
X345779Y196668D01*
X345379Y197068D01*
X344980D01*
Y196668D01*
X345379Y196268D01*
X344980Y195868D01*
Y195468D01*
X349716Y209953D02*
X350716D01*
X351049Y210286D01*
Y210619D01*
X350716Y210952D01*
X349716D01*
X350716D01*
X351049Y211286D01*
Y211619D01*
X350716Y211952D01*
X349716D01*
Y209953D01*
X356000Y229000D02*
X357000D01*
X357333Y229333D01*
Y229666D01*
X357000Y230000D01*
X356000D01*
X357000D01*
X357333Y230333D01*
Y230666D01*
X357000Y230999D01*
X356000D01*
Y229000D01*
X389452Y197643D02*
X391052D01*
Y196043D01*
X389452D01*
Y197643D01*
X397326D02*
X398926D01*
Y196043D01*
X397326D01*
Y197643D01*
Y187800D02*
X398926D01*
Y186200D01*
X397326D01*
Y187800D01*
X391052D02*
Y186200D01*
X389452D01*
Y187800D01*
X391052D01*
X405200D02*
X406800D01*
Y186200D01*
X405200D01*
Y187800D01*
Y196043D02*
Y197643D01*
X406800D01*
Y196043D01*
X405200D01*
X431200Y204948D02*
X431600Y205748D01*
X431200Y206548D01*
X432000Y206148D01*
X432800Y206548D01*
X432400Y205748D01*
X432800Y204948D01*
X432000Y205348D01*
X431200Y204948D01*
X451200D02*
X451600Y205748D01*
X451200Y206548D01*
X452000Y206148D01*
X452800Y206548D01*
X452400Y205748D01*
X452800Y204948D01*
X452000Y205348D01*
X451200Y204948D01*
X476700D02*
X477100Y205748D01*
X476700Y206548D01*
X477500Y206148D01*
X478300Y206548D01*
X477900Y205748D01*
X478300Y204948D01*
X477500Y205348D01*
X476700Y204948D01*
X496700D02*
X497100Y205748D01*
X496700Y206548D01*
X497500Y206148D01*
X498300Y206548D01*
X497900Y205748D01*
X498300Y204948D01*
X497500Y205348D01*
X496700Y204948D01*
X472598Y223609D02*
X471798Y225209D01*
X473398D01*
X472598Y223609D01*
X462598D02*
X461798Y225209D01*
X463398D01*
X462598Y223609D01*
X463700Y255600D02*
X464100D01*
X464500Y255200D01*
X464900Y255600D01*
X465300D01*
X464900Y256000D01*
X465300Y256400D01*
X464900D01*
X464500Y256800D01*
X464100Y256400D01*
X463700D01*
X464100Y256000D01*
X463700Y255600D01*
X458333Y255833D02*
Y256166D01*
X458000Y256499D01*
X457000D01*
Y254500D01*
X458000D01*
X458333Y254833D01*
Y255166D01*
X458000Y255500D01*
X457000D01*
X458000D01*
X458333Y255833D01*
X457649Y265776D02*
X457982Y266109D01*
X457649Y265776D02*
X456983D01*
X456650Y266109D01*
Y267442D01*
X456983Y267775D01*
X457649D01*
X457982Y267442D01*
X457649Y270500D02*
X457982Y270833D01*
X457649Y270500D02*
X456983D01*
X456650Y270833D01*
Y272166D01*
X456983Y272499D01*
X457649D01*
X457982Y272166D01*
X457649Y275224D02*
X457982Y275558D01*
X457649Y275224D02*
X456983D01*
X456650Y275558D01*
Y276890D01*
X456983Y277224D01*
X457649D01*
X457982Y276890D01*
X463700Y285128D02*
X464100D01*
X464500Y284728D01*
X464900Y285128D01*
X465300D01*
X464900Y285528D01*
X465300Y285928D01*
X464900D01*
X464500Y286328D01*
X464100Y285928D01*
X463700D01*
X464100Y285528D01*
X463700Y285128D01*
X464547Y291905D02*
X463747Y293505D01*
X465347D01*
X464547Y291905D01*
X454833Y274922D02*
X454500Y275255D01*
X453833D01*
X453500Y274922D01*
Y273589D01*
X453833Y273256D01*
X454500D01*
X454833Y273589D01*
Y269804D02*
X454500Y270137D01*
X453833D01*
X453500Y269804D01*
Y268471D01*
X453833Y268138D01*
X454500D01*
X454833Y268471D01*
X451683Y267442D02*
X451350Y267775D01*
X450684D01*
X450350Y267442D01*
Y266109D01*
X450684Y265776D01*
X451350D01*
X451683Y266109D01*
X451350Y270500D02*
X451683Y270833D01*
X451350Y270500D02*
X450684D01*
X450350Y270833D01*
Y272166D01*
X450684Y272499D01*
X451350D01*
X451683Y272166D01*
X451350Y275224D02*
X451683Y275558D01*
X451350Y275224D02*
X450684D01*
X450350Y275558D01*
Y276890D01*
X450684Y277224D01*
X451350D01*
X451683Y276890D01*
X434000Y290500D02*
X434333Y290833D01*
Y291166D01*
X434000Y291500D01*
X433000D01*
X434000D01*
X434333Y291833D01*
Y292166D01*
X434000Y292499D01*
X433000D01*
Y290500D01*
X434000D01*
X434071Y305118D02*
X434404Y305451D01*
Y305785D01*
X434071Y306118D01*
X433071D01*
X434071D01*
X434404Y306451D01*
Y306784D01*
X434071Y307118D01*
X433071D01*
Y305118D01*
X434071D01*
X438000Y308000D02*
X439000D01*
X439333Y308333D01*
Y308666D01*
X439000Y309000D01*
X438000D01*
X439000D01*
X439333Y309333D01*
Y309666D01*
X439000Y309999D01*
X438000D01*
Y308000D01*
X470453Y317495D02*
X469653Y319095D01*
X471253D01*
X470453Y317495D01*
X501100Y293800D02*
Y293400D01*
X500700D01*
Y292600D01*
X501100D01*
Y292200D01*
X501900D01*
Y292600D01*
X502300D01*
Y293400D01*
X501900D01*
Y293800D01*
X501100D01*
Y283800D02*
Y283400D01*
X500700D01*
Y282600D01*
X501100D01*
Y282200D01*
X501900D01*
Y282600D01*
X502300D01*
Y283400D01*
X501900D01*
Y283800D01*
X501100D01*
Y273800D02*
Y273400D01*
X500700D01*
Y272600D01*
X501100D01*
Y272200D01*
X501900D01*
Y272600D01*
X502300D01*
Y273400D01*
X501900D01*
Y273800D01*
X501100D01*
X531600D02*
Y273400D01*
X531200D01*
Y272600D01*
X531600D01*
Y272200D01*
X532400D01*
Y272600D01*
X532800D01*
Y273400D01*
X532400D01*
Y273800D01*
X531600D01*
Y292200D02*
X532400D01*
Y292600D01*
X532800D01*
Y293400D01*
X532400D01*
Y293800D01*
X531600D01*
Y293400D01*
X531200D01*
Y292600D01*
X531600D01*
Y292200D01*
Y302200D02*
X532400D01*
Y302600D01*
X532800D01*
Y303400D01*
X532400D01*
Y303800D01*
X531600D01*
Y303400D01*
X531200D01*
Y302600D01*
X531600D01*
Y302200D01*
Y312200D02*
X532400D01*
Y312600D01*
X532800D01*
Y313400D01*
X532400D01*
Y313800D01*
X531600D01*
Y313400D01*
X531200D01*
Y312600D01*
X531600D01*
Y312200D01*
X546436Y326600D02*
X546836D01*
X547236Y326200D01*
X547636Y326600D01*
X548036D01*
X547636Y327000D01*
X548036Y327400D01*
X547636D01*
X547236Y327800D01*
X546836Y327400D01*
X546436D01*
X546836Y327000D01*
X546436Y326600D01*
X575964D02*
X576364D01*
X576764Y326200D01*
X577164Y326600D01*
X577564D01*
X577164Y327000D01*
X577564Y327400D01*
X577164D01*
X576764Y327800D01*
X576364Y327400D01*
X575964D01*
X576364Y327000D01*
X575964Y326600D01*
X548800Y358600D02*
X548400Y359000D01*
X548800Y359400D01*
X548400D01*
X548000Y359800D01*
X547600Y359400D01*
X547200D01*
X547600Y359000D01*
X547200Y358600D01*
X547600D01*
X548000Y358200D01*
X548400Y358600D01*
X548800D01*
X548400Y358800D02*
X548200Y359000D01*
X548400Y359200D01*
X548200D01*
X548000Y359400D01*
X547800Y359200D01*
X547600D01*
X547800Y359000D01*
X547600Y358800D01*
X547800D01*
X548000Y358600D01*
X548200Y358800D01*
X548400D01*
X586200Y398200D02*
X586600D01*
X587000Y398600D01*
X587400Y398200D01*
X587800D01*
Y398600D01*
X587400Y399000D01*
X587800Y399400D01*
Y399800D01*
X587400D01*
X587000Y399400D01*
X586600Y399800D01*
X586200D01*
Y399400D01*
X586600Y399000D01*
X586200Y398600D01*
Y398200D01*
X548800Y398758D02*
X548400Y399158D01*
X548800Y399557D01*
X548400D01*
X548000Y399957D01*
X547600Y399557D01*
X547200D01*
X547600Y399158D01*
X547200Y398758D01*
X547600D01*
X548000Y398358D01*
X548400Y398758D01*
X548800D01*
X548400Y398957D02*
X548200Y399158D01*
X548400Y399358D01*
X548200D01*
X548000Y399557D01*
X547800Y399358D01*
X547600D01*
X547800Y399158D01*
X547600Y398957D01*
X547800D01*
X548000Y398758D01*
X548200Y398957D01*
X548400D01*
X566621Y439600D02*
X567021D01*
X567421Y439200D01*
X567821Y439600D01*
X568221D01*
X567821Y440000D01*
X568221Y440400D01*
X567821D01*
X567421Y440800D01*
X567021Y440400D01*
X566621D01*
X567021Y440000D01*
X566621Y439600D01*
X566929Y446850D02*
X567929D01*
X568262Y447184D01*
Y447517D01*
X567929Y447850D01*
X566929D01*
X567929D01*
X568262Y448183D01*
Y448517D01*
X567929Y448850D01*
X566929D01*
Y446850D01*
Y454724D02*
X567929D01*
X568262Y455058D01*
Y455391D01*
X567929Y455724D01*
X566929D01*
X567929D01*
X568262Y456057D01*
Y456390D01*
X567929Y456724D01*
X566929D01*
Y454724D01*
X560055D02*
X560388Y455058D01*
Y455391D01*
X560055Y455724D01*
X559055D01*
X560055D01*
X560388Y456057D01*
Y456390D01*
X560055Y456724D01*
X559055D01*
Y454724D01*
X560055D01*
Y448850D02*
X559055D01*
Y446850D01*
X560055D01*
X560388Y447184D01*
Y447517D01*
X560055Y447850D01*
X559055D01*
X560055D01*
X560388Y448183D01*
Y448517D01*
X560055Y448850D01*
Y440976D02*
X559055D01*
Y438976D01*
X560055D01*
X560388Y439310D01*
Y439643D01*
X560055Y439976D01*
X559055D01*
X560055D01*
X560388Y440309D01*
Y440642D01*
X560055Y440976D01*
X532829Y452756D02*
Y453756D01*
X531496D01*
Y454089D02*
X532163Y454755D01*
X532829Y454089D01*
Y452756D01*
X531496D02*
Y454089D01*
X571700Y473452D02*
X572100Y474252D01*
X571700Y475052D01*
X572500Y474652D01*
X573300Y475052D01*
X572900Y474252D01*
X573300Y473452D01*
X572500Y473852D01*
X571700Y473452D01*
X553300D02*
X552500Y473852D01*
X551700Y473452D01*
X552100Y474252D01*
X551700Y475052D01*
X552500Y474652D01*
X553300Y475052D01*
X552900Y474252D01*
X553300Y473452D01*
X596149Y440400D02*
X596549Y440000D01*
X596149Y439600D01*
X596549D01*
X596949Y439200D01*
X597349Y439600D01*
X597749D01*
X597349Y440000D01*
X597749Y440400D01*
X597349D01*
X596949Y440800D01*
X596549Y440400D01*
X596149D01*
X615342Y432487D02*
X615742Y432087D01*
X615342Y431687D01*
X615742D01*
X616142Y431287D01*
X616542Y431687D01*
X616942D01*
X616542Y432087D01*
X616942Y432487D01*
X616542D01*
X616142Y432887D01*
X615742Y432487D01*
X615342D01*
Y461214D02*
X615742D01*
X616142Y460814D01*
X616542Y461214D01*
X616942D01*
X616542Y461614D01*
X616942Y462014D01*
X616542D01*
X616142Y462414D01*
X615742Y462014D01*
X615342D01*
X615742Y461614D01*
X615342Y461214D01*
X613300Y473452D02*
X612500Y473852D01*
X611700Y473452D01*
X612100Y474252D01*
X611700Y475052D01*
X612500Y474652D01*
X613300Y475052D01*
X612900Y474252D01*
X613300Y473452D01*
X593300D02*
X592500Y473852D01*
X591700Y473452D01*
X592100Y474252D01*
X591700Y475052D01*
X592500Y474652D01*
X593300Y475052D01*
X592900Y474252D01*
X593300Y473452D01*
X655200Y400225D02*
Y399825D01*
X655600Y399425D01*
X655200Y399025D01*
Y398625D01*
X655600D01*
X656000Y399025D01*
X656400Y398625D01*
X656800D01*
Y399025D01*
X656400Y399425D01*
X656800Y399825D01*
Y400225D01*
X656400D01*
X656000Y399825D01*
X655600Y400225D01*
X655200D01*
Y399934D02*
Y399534D01*
X655600Y399134D01*
X655200Y398734D01*
Y398334D01*
X655600D01*
X656000Y398734D01*
X656400Y398334D01*
X656800D01*
Y398734D01*
X656400Y399134D01*
X656800Y399534D01*
Y399934D01*
X656400D01*
X656000Y399534D01*
X655600Y399934D01*
X655200D01*
X655468Y399557D02*
X655868Y399158D01*
X655468Y398758D01*
X655868D01*
X656268Y398358D01*
X656668Y398758D01*
X657068D01*
X656668Y399158D01*
X657068Y399557D01*
X656668D01*
X656268Y399957D01*
X655868Y399557D01*
X655468D01*
X655868Y399358D02*
X656068Y399158D01*
X655868Y398957D01*
X656068D01*
X656268Y398758D01*
X656468Y398957D01*
X656668D01*
X656468Y399158D01*
X656668Y399358D01*
X656468D01*
X656268Y399557D01*
X656068Y399358D01*
X655868D01*
X666672Y415600D02*
X667072D01*
X667472Y415200D01*
X667872Y415600D01*
X668272D01*
X667872Y416000D01*
X668272Y416400D01*
X667872D01*
X667472Y416800D01*
X667072Y416400D01*
X666672D01*
X667072Y416000D01*
X666672Y415600D01*
X696200D02*
X696600D01*
X697000Y415200D01*
X697400Y415600D01*
X697800D01*
X697400Y416000D01*
X697800Y416400D01*
X697400D01*
X697000Y416800D01*
X696600Y416400D01*
X696200D01*
X696600Y416000D01*
X696200Y415600D01*
X709000Y444200D02*
X709400Y444600D01*
X709800D01*
X709400Y445000D01*
X709800Y445400D01*
X709400D01*
X709000Y445800D01*
X708600Y445400D01*
X708200D01*
X708600Y445000D01*
X708200Y444600D01*
X708600D01*
X709000Y444200D01*
Y444600D02*
X709200Y444800D01*
X709400D01*
X709200Y445000D01*
X709400Y445200D01*
X709200D01*
X709000Y445400D01*
X708800Y445200D01*
X708600D01*
X708800Y445000D01*
X708600Y444800D01*
X708800D01*
X709000Y444600D01*
Y486326D02*
X709400Y486726D01*
X709800D01*
X709400Y487126D01*
X709800Y487526D01*
X709400D01*
X709000Y487926D01*
X708600Y487526D01*
X708200D01*
X708600Y487126D01*
X708200Y486726D01*
X708600D01*
X709000Y486326D01*
Y486726D02*
X709200Y486926D01*
X709400D01*
X709200Y487126D01*
X709400Y487326D01*
X709200D01*
X709000Y487526D01*
X708800Y487326D01*
X708600D01*
X708800Y487126D01*
X708600Y486926D01*
X708800D01*
X709000Y486726D01*
X679872Y486926D02*
X679672Y487126D01*
X679872Y487326D01*
X679672D01*
X679472Y487526D01*
X679272Y487326D01*
X679072D01*
X679272Y487126D01*
X679072Y486926D01*
X679272D01*
X679472Y486726D01*
X679672Y486926D01*
X679872D01*
Y487126D02*
X680272Y487526D01*
X679872D01*
X679472Y487926D01*
X679072Y487526D01*
X678672D01*
X679072Y487126D01*
X678672Y486726D01*
X679072D01*
X679472Y486326D01*
X679872Y486726D01*
X680272D01*
X679872Y487126D01*
X678672Y445400D02*
X679072Y445000D01*
X678672Y444600D01*
X679072D01*
X679472Y444200D01*
X679872Y444600D01*
X680272D01*
X679872Y445000D01*
X680272Y445400D01*
X679872D01*
X679472Y445800D01*
X679072Y445400D01*
X678672D01*
X679072Y445200D02*
X679272Y445000D01*
X679072Y444800D01*
X679272D01*
X679472Y444600D01*
X679672Y444800D01*
X679872D01*
X679672Y445000D01*
X679872Y445200D01*
X679672D01*
X679472Y445400D01*
X679272Y445200D01*
X679072D01*
X713885Y379800D02*
Y379400D01*
X714285Y379000D01*
X713885Y378600D01*
Y378200D01*
X714285D01*
X714685Y378600D01*
X715085Y378200D01*
X715485D01*
Y378600D01*
X715085Y379000D01*
X715485Y379400D01*
Y379800D01*
X715085D01*
X714685Y379400D01*
X714285Y379800D01*
X713885D01*
X714285Y379400D02*
Y379200D01*
X714485Y379000D01*
X714285Y378800D01*
Y378600D01*
X714485D01*
X714685Y378800D01*
X714885Y378600D01*
X715085D01*
Y378800D01*
X714885Y379000D01*
X715085Y379200D01*
Y379400D01*
X714885D01*
X714685Y379200D01*
X714485Y379400D01*
X714285D01*
X664800Y352068D02*
X664400D01*
X664000Y351668D01*
X663600Y352068D01*
X663200D01*
Y351668D01*
X663600Y351268D01*
X663200Y350868D01*
Y350468D01*
X663600D01*
X664000Y350868D01*
X664400Y350468D01*
X664800D01*
Y350868D01*
X664400Y351268D01*
X664800Y351668D01*
Y352068D01*
X657068Y358600D02*
X656668Y359000D01*
X657068Y359400D01*
X656668D01*
X656268Y359800D01*
X655868Y359400D01*
X655468D01*
X655868Y359000D01*
X655468Y358600D01*
X655868D01*
X656268Y358200D01*
X656668Y358600D01*
X657068D01*
X656668Y358800D02*
X656468Y359000D01*
X656668Y359200D01*
X656468D01*
X656268Y359400D01*
X656068Y359200D01*
X655868D01*
X656068Y359000D01*
X655868Y358800D01*
X656068D01*
X656268Y358600D01*
X656468Y358800D01*
X656668D01*
X656800Y291666D02*
X656400D01*
X656000Y291266D01*
X655600Y291666D01*
X655200D01*
Y291266D01*
X655600Y290866D01*
X655200Y290466D01*
Y290066D01*
X655600D01*
X656000Y290466D01*
X656400Y290066D01*
X656800D01*
Y290466D01*
X656400Y290866D01*
X656800Y291266D01*
Y291666D01*
X663200Y243800D02*
Y243400D01*
X663600Y243000D01*
X663200Y242600D01*
Y242200D01*
X663600D01*
X664000Y242600D01*
X664400Y242200D01*
X664800D01*
Y242600D01*
X664400Y243000D01*
X664800Y243400D01*
Y243800D01*
X664400D01*
X664000Y243400D01*
X663600Y243800D01*
X663200D01*
X656800Y203375D02*
X656400D01*
X656000Y202975D01*
X655600Y203375D01*
X655200D01*
Y202975D01*
X655600Y202575D01*
X655200Y202175D01*
Y201775D01*
X655600D01*
X656000Y202175D01*
X656400Y201775D01*
X656800D01*
Y202175D01*
X656400Y202575D01*
X656800Y202975D01*
Y203375D01*
X713885Y200800D02*
Y200400D01*
X714285Y200000D01*
X713885Y199600D01*
Y199200D01*
X714285D01*
X714685Y199600D01*
X715085Y199200D01*
X715485D01*
Y199600D01*
X715085Y200000D01*
X715485Y200400D01*
Y200800D01*
X715085D01*
X714685Y200400D01*
X714285Y200800D01*
X713885D01*
X714285Y200400D02*
Y200200D01*
X714485Y200000D01*
X714285Y199800D01*
Y199600D01*
X714485D01*
X714685Y199800D01*
X714885Y199600D01*
X715085D01*
Y199800D01*
X714885Y200000D01*
X715085Y200200D01*
Y200400D01*
X714885D01*
X714685Y200200D01*
X714485Y200400D01*
X714285D01*
X697934Y257200D02*
Y257600D01*
X697534Y258000D01*
X697934Y258400D01*
Y258800D01*
X697534D01*
X697134Y258400D01*
X696734Y258800D01*
X696334D01*
Y258400D01*
X696734Y258000D01*
X696334Y257600D01*
Y257200D01*
X696734D01*
X697134Y257600D01*
X697534Y257200D01*
X697934D01*
X587800Y289932D02*
Y290332D01*
X587400Y290732D01*
X587800Y291132D01*
Y291532D01*
X587400D01*
X587000Y291132D01*
X586600Y291532D01*
X586200D01*
Y291132D01*
X586600Y290732D01*
X586200Y290332D01*
Y289932D01*
X586600D01*
X587000Y290332D01*
X587400Y289932D01*
X587800D01*
X574753Y265595D02*
X573953Y263995D01*
X573153Y265595D01*
X574753D01*
X588066Y258800D02*
Y258400D01*
X588466Y258000D01*
X588066Y257600D01*
Y257200D01*
X588466D01*
X588866Y257600D01*
X589266Y257200D01*
X589666D01*
Y257600D01*
X589266Y258000D01*
X589666Y258400D01*
Y258800D01*
X589266D01*
X588866Y258400D01*
X588466Y258800D01*
X588066D01*
X568847Y240005D02*
X568047Y238405D01*
X567247Y240005D01*
X568847D01*
X532163Y206724D02*
X532829Y206057D01*
Y204724D01*
Y205724D01*
X531496D01*
Y206057D02*
X532163Y206724D01*
X531496Y206057D02*
Y204724D01*
X501900Y312200D02*
Y312600D01*
X502300D01*
Y313400D01*
X501900D01*
Y313800D01*
X501100D01*
Y313400D01*
X500700D01*
Y312600D01*
X501100D01*
Y312200D01*
X501900D01*
Y368700D02*
Y369100D01*
X502300D01*
Y369900D01*
X501900D01*
Y370300D01*
X501100D01*
Y369900D01*
X500700D01*
Y369100D01*
X501100D01*
Y368700D01*
X501900D01*
Y378700D02*
Y379100D01*
X502300D01*
Y379900D01*
X501900D01*
Y380300D01*
X501100D01*
Y379900D01*
X500700D01*
Y379100D01*
X501100D01*
Y378700D01*
X501900D01*
Y388700D02*
Y389100D01*
X502300D01*
Y389900D01*
X501900D01*
Y390300D01*
X501100D01*
Y389900D01*
X500700D01*
Y389100D01*
X501100D01*
Y388700D01*
X501900D01*
Y408700D02*
Y409100D01*
X502300D01*
Y409900D01*
X501900D01*
Y410300D01*
X501100D01*
Y409900D01*
X500700D01*
Y409100D01*
X501100D01*
Y408700D01*
X501900D01*
X468000Y453000D02*
X468333Y453333D01*
Y453666D01*
X468000Y454000D01*
X467000D01*
X468000D01*
X468333Y454333D01*
Y454666D01*
X468000Y454999D01*
X467000D01*
Y453000D01*
X468000D01*
X452800Y450800D02*
X452000Y449200D01*
X451200Y450800D01*
X452800D01*
X452400Y450400D02*
X452000Y449600D01*
X451600Y450400D01*
X452400D01*
X442000Y458000D02*
X442333Y458333D01*
Y458666D01*
X442000Y459000D01*
X441000D01*
X442000D01*
X442333Y459333D01*
Y459666D01*
X442000Y459999D01*
X441000D01*
Y458000D01*
X442000D01*
X436333Y448666D02*
X436000Y448999D01*
X435000D01*
Y447000D01*
X436000D01*
X436333Y447333D01*
Y447666D01*
X436000Y448000D01*
X435000D01*
X436000D01*
X436333Y448333D01*
Y448666D01*
X418000Y449200D02*
X417200Y450800D01*
X418800D01*
X418000Y449200D01*
Y449600D02*
X417600Y450400D01*
X418400D01*
X418000Y449600D01*
X418500Y434999D02*
X417500D01*
Y433000D01*
X418500D01*
X418833Y433333D01*
Y433666D01*
X418500Y434000D01*
X417500D01*
X418500D01*
X418833Y434333D01*
Y434666D01*
X418500Y434999D01*
X426500Y430499D02*
Y428500D01*
X427500D01*
X427833Y428833D01*
Y429166D01*
X427500Y429500D01*
X426500D01*
X427500D01*
X427833Y429833D01*
Y430166D01*
X427500Y430499D01*
X426500D01*
X407833Y430166D02*
X407500Y430499D01*
X406500D01*
Y428500D01*
X407500D01*
X407833Y428833D01*
Y429166D01*
X407500Y429500D01*
X406500D01*
X407500D01*
X407833Y429833D01*
Y430166D01*
X437200Y411300D02*
Y410900D01*
X437600Y410500D01*
X437200Y410100D01*
Y409700D01*
X437600D01*
X438000Y410100D01*
X438400Y409700D01*
X438800D01*
Y410100D01*
X438400Y410500D01*
X438800Y410900D01*
Y411300D01*
X438400D01*
X438000Y410900D01*
X437600Y411300D01*
X437200D01*
X449701Y370890D02*
Y369558D01*
X450034Y369224D01*
X450701D01*
X451034Y369558D01*
Y370890D02*
X450701Y371224D01*
X450034D01*
X449701Y370890D01*
X452850Y368922D02*
Y367589D01*
X453184Y367256D01*
X453850D01*
X454183Y367589D01*
X456000Y366166D02*
Y364833D01*
X456333Y364500D01*
X457000D01*
X457333Y364833D01*
Y366166D02*
X457000Y366499D01*
X456333D01*
X456000Y366166D01*
X454183Y363804D02*
X453850Y364137D01*
X453184D01*
X452850Y363804D01*
Y362471D01*
X453184Y362138D01*
X453850D01*
X454183Y362471D01*
X456000Y361442D02*
Y360109D01*
X456333Y359776D01*
X457000D01*
X457333Y360109D01*
Y361442D02*
X457000Y361775D01*
X456333D01*
X456000Y361442D01*
X451034D02*
X450701Y361775D01*
X450034D01*
X449701Y361442D01*
Y360109D01*
X450034Y359776D01*
X450701D01*
X451034Y360109D01*
X450701Y364500D02*
X451034Y364833D01*
X450701Y364500D02*
X450034D01*
X449701Y364833D01*
Y366166D01*
X450034Y366499D01*
X450701D01*
X451034Y366166D01*
X457500Y348999D02*
Y347000D01*
X458500D01*
X458833Y347333D01*
Y347666D01*
X458500Y348000D01*
X457500D01*
X458500D01*
X458833Y348333D01*
Y348666D01*
X458500Y348999D01*
X457500D01*
X463700Y349100D02*
X464100D01*
X464500Y348700D01*
X464900Y349100D01*
X465300D01*
X464900Y349500D01*
X465300Y349900D01*
X464900D01*
X464500Y350300D01*
X464100Y349900D01*
X463700D01*
X464100Y349500D01*
X463700Y349100D01*
Y378628D02*
X464100D01*
X464500Y378228D01*
X464900Y378628D01*
X465300D01*
X464900Y379028D01*
X465300Y379428D01*
X464900D01*
X464500Y379828D01*
X464100Y379428D01*
X463700D01*
X464100Y379028D01*
X463700Y378628D01*
X464547Y387905D02*
X463747Y389505D01*
X465347D01*
X464547Y387905D01*
X457333Y370890D02*
X457000Y371224D01*
X456333D01*
X456000Y370890D01*
Y369558D01*
X456333Y369224D01*
X457000D01*
X457333Y369558D01*
X454183Y368922D02*
X453850Y369255D01*
X453184D01*
X452850Y368922D01*
X414333Y349666D02*
X414000Y349999D01*
X413000D01*
Y348000D01*
X414000D01*
X414333Y348333D01*
Y348666D01*
X414000Y349000D01*
X413000D01*
X414000D01*
X414333Y349333D01*
Y349666D01*
X419000Y327999D02*
Y326000D01*
X420000D01*
X420333Y326333D01*
Y326666D01*
X420000Y327000D01*
X419000D01*
X420000D01*
X420333Y327333D01*
Y327666D01*
X420000Y327999D01*
X419000D01*
X437200Y329700D02*
X437600D01*
X438000Y330100D01*
X438400Y329700D01*
X438800D01*
Y330100D01*
X438400Y330500D01*
X438800Y330900D01*
Y331300D01*
X438400D01*
X438000Y330900D01*
X437600Y331300D01*
X437200D01*
Y330900D01*
X437600Y330500D01*
X437200Y330100D01*
Y329700D01*
X400333Y327666D02*
X400000Y327999D01*
X399000D01*
Y326000D01*
X400000D01*
X400333Y326333D01*
Y326666D01*
X400000Y327000D01*
X399000D01*
X400000D01*
X400333Y327333D01*
Y327666D01*
X397000Y351000D02*
X397333Y351333D01*
Y351666D01*
X397000Y352000D01*
X396000D01*
X397000D01*
X397333Y352333D01*
Y352666D01*
X397000Y352999D01*
X396000D01*
Y351000D01*
X397000D01*
X387333Y350666D02*
X387000Y350999D01*
X386000D01*
Y349000D01*
X387000D01*
X387333Y349333D01*
Y349666D01*
X387000Y350000D01*
X386000D01*
X387000D01*
X387333Y350333D01*
Y350666D01*
X381000Y378000D02*
X381333Y378333D01*
Y378666D01*
X381000Y379000D01*
X380000D01*
X381000D01*
X381333Y379333D01*
Y379666D01*
X381000Y379999D01*
X380000D01*
Y378000D01*
X381000D01*
X356000D02*
X356333Y378333D01*
Y378666D01*
X356000Y379000D01*
X355000D01*
X356000D01*
X356333Y379333D01*
Y379666D01*
X356000Y379999D01*
X355000D01*
Y378000D01*
X356000D01*
X362000Y346373D02*
Y344374D01*
X363000D01*
X363333Y344707D01*
Y345040D01*
X363000Y345374D01*
X362000D01*
X363000D01*
X363333Y345707D01*
Y346040D01*
X363000Y346373D01*
X362000D01*
X352800Y301174D02*
X352000Y299574D01*
X351200Y301174D01*
X352800D01*
X342800D02*
X342000Y299574D01*
X341200Y301174D01*
X342800D01*
X361200D02*
X362800D01*
X362000Y299574D01*
X361200Y301174D01*
X371200D02*
X372800D01*
X372000Y299574D01*
X371200Y301174D01*
X381200D02*
X382800D01*
X382000Y299574D01*
X381200Y301174D01*
X407000Y301000D02*
X408000D01*
X407000D01*
Y301999D02*
Y300000D01*
X408000D01*
X408333Y300333D01*
Y300666D01*
X408000Y301000D01*
X408333Y301333D01*
Y301666D01*
X408000Y301999D01*
X407000D01*
X391333Y242666D02*
X391000Y242999D01*
X390000D01*
Y241000D01*
X391000D01*
X391333Y241333D01*
Y241666D01*
X391000Y242000D01*
X390000D01*
X391000D01*
X391333Y242333D01*
Y242666D01*
X329740Y273622D02*
X330073Y273955D01*
Y274289D01*
X329740Y274622D01*
X328740D01*
X329740D01*
X330073Y274955D01*
Y275288D01*
X329740Y275621D01*
X328740D01*
Y273622D01*
X329740D01*
X321866Y291339D02*
X322199Y291672D01*
Y292005D01*
X321866Y292338D01*
X320866D01*
X321866D01*
X322199Y292671D01*
Y293005D01*
X321866Y293338D01*
X320866D01*
Y291339D01*
X321866D01*
X314454Y278400D02*
X314054D01*
Y278800D01*
X313253D01*
Y278400D01*
X312854D01*
Y277600D01*
X313253D01*
Y277200D01*
X314054D01*
Y277600D01*
X314454D01*
Y278400D01*
X314054Y278200D02*
X313854D01*
Y278400D01*
X313454D01*
Y278200D01*
X313253D01*
Y277800D01*
X313454D01*
Y277600D01*
X313854D01*
Y277800D01*
X314054D01*
Y278200D01*
X304453Y278400D02*
X304053D01*
Y278800D01*
X303254D01*
Y278400D01*
X302853D01*
Y277600D01*
X303254D01*
Y277200D01*
X304053D01*
Y277600D01*
X304453D01*
Y278400D01*
X304053Y278200D02*
X303854D01*
Y278400D01*
X303453D01*
Y278200D01*
X303254D01*
Y277800D01*
X303453D01*
Y277600D01*
X303854D01*
Y277800D01*
X304053D01*
Y278200D01*
X294454Y278400D02*
X294054D01*
Y278800D01*
X293253D01*
Y278400D01*
X292853D01*
Y277600D01*
X293253D01*
Y277200D01*
X294054D01*
Y277600D01*
X294454D01*
Y278400D01*
X294054Y278200D02*
X293853D01*
Y278400D01*
X293454D01*
Y278200D01*
X293253D01*
Y277800D01*
X293454D01*
Y277600D01*
X293853D01*
Y277800D01*
X294054D01*
Y278200D01*
X284454Y278400D02*
X284053D01*
Y278800D01*
X283254D01*
Y278400D01*
X282854D01*
Y277600D01*
X283254D01*
Y277200D01*
X284053D01*
Y277600D01*
X284454D01*
Y278400D01*
X284053Y278200D02*
X283854D01*
Y278400D01*
X283453D01*
Y278200D01*
X283254D01*
Y277800D01*
X283453D01*
Y277600D01*
X283854D01*
Y277800D01*
X284053D01*
Y278200D01*
X289370Y263810D02*
Y261811D01*
X290370D01*
X290703Y262144D01*
Y262477D01*
X290370Y262811D01*
X289370D01*
X290370D01*
X290703Y263144D01*
Y263477D01*
X290370Y263810D01*
X289370D01*
X289653Y256999D02*
X288653D01*
Y255000D01*
X289653D01*
X289986Y255333D01*
Y255666D01*
X289653Y256000D01*
X288653D01*
X289653D01*
X289986Y256333D01*
Y256666D01*
X289653Y256999D01*
X293253Y248800D02*
Y248400D01*
X292853D01*
Y247600D01*
X293253D01*
Y247200D01*
X294054D01*
Y247600D01*
X294454D01*
Y248400D01*
X294054D01*
Y248800D01*
X293253D01*
X293454Y248400D02*
Y248200D01*
X293253D01*
Y247800D01*
X293454D01*
Y247600D01*
X293853D01*
Y247800D01*
X294054D01*
Y248200D01*
X293853D01*
Y248400D01*
X293454D01*
X284454D02*
X284053D01*
Y248800D01*
X283254D01*
Y248400D01*
X282854D01*
Y247600D01*
X283254D01*
Y247200D01*
X284053D01*
Y247600D01*
X284454D01*
Y248400D01*
X284053Y248200D02*
X283854D01*
Y248400D01*
X283453D01*
Y248200D01*
X283254D01*
Y247800D01*
X283453D01*
Y247600D01*
X283854D01*
Y247800D01*
X284053D01*
Y248200D01*
X286200Y223800D02*
X287000Y223400D01*
X287800Y223800D01*
X287400Y223000D01*
X287800Y222200D01*
X287000Y222600D01*
X286200Y222200D01*
X286600Y223000D01*
X286200Y223800D01*
X286600Y223400D02*
X287000Y223200D01*
X287400Y223400D01*
X287200Y223000D01*
X287400Y222600D01*
X287000Y222800D01*
X286600Y222600D01*
X286800Y223000D01*
X286600Y223400D01*
X296200Y223800D02*
X297000Y223400D01*
X297800Y223800D01*
X297400Y223000D01*
X297800Y222200D01*
X297000Y222600D01*
X296200Y222200D01*
X296600Y223000D01*
X296200Y223800D01*
X296600Y223400D02*
X297000Y223200D01*
X297400Y223400D01*
X297200Y223000D01*
X297400Y222600D01*
X297000Y222800D01*
X296600Y222600D01*
X296800Y223000D01*
X296600Y223400D01*
X306200Y223800D02*
X307000Y223400D01*
X307800Y223800D01*
X307400Y223000D01*
X307800Y222200D01*
X307000Y222600D01*
X306200Y222200D01*
X306600Y223000D01*
X306200Y223800D01*
X306600Y223400D02*
X307000Y223200D01*
X307400Y223400D01*
X307200Y223000D01*
X307400Y222600D01*
X307000Y222800D01*
X306600Y222600D01*
X306800Y223000D01*
X306600Y223400D01*
X314961Y226378D02*
X315960D01*
X316294Y226711D01*
Y227044D01*
X315960Y227378D01*
X314961D01*
X315960D01*
X316294Y227711D01*
Y228044D01*
X315960Y228377D01*
X314961D01*
Y226378D01*
X328740Y240158D02*
X329740D01*
X330073Y240491D01*
Y240824D01*
X329740Y241157D01*
X328740D01*
X329740D01*
X330073Y241490D01*
Y241824D01*
X329740Y242157D01*
X328740D01*
Y240158D01*
X314054Y247200D02*
Y247600D01*
X314454D01*
Y248400D01*
X314054D01*
Y248800D01*
X313253D01*
Y248400D01*
X312854D01*
Y247600D01*
X313253D01*
Y247200D01*
X314054D01*
X313854Y247600D02*
Y247800D01*
X314054D01*
Y248200D01*
X313854D01*
Y248400D01*
X313454D01*
Y248200D01*
X313253D01*
Y247800D01*
X313454D01*
Y247600D01*
X313854D01*
X304453D02*
Y248400D01*
X304053D01*
Y248800D01*
X303254D01*
Y248400D01*
X302853D01*
Y247600D01*
X303254D01*
Y247200D01*
X304053D01*
Y247600D01*
X304453D01*
X303854D02*
Y247800D01*
X304053D01*
Y248200D01*
X303854D01*
Y248400D01*
X303453D01*
Y248200D01*
X303254D01*
Y247800D01*
X303453D01*
Y247600D01*
X303854D01*
X274054Y277200D02*
Y277600D01*
X274453D01*
Y278400D01*
X274054D01*
Y278800D01*
X273253D01*
Y278400D01*
X272853D01*
Y277600D01*
X273253D01*
Y277200D01*
X274054D01*
X273853Y277600D02*
Y277800D01*
X274054D01*
Y278200D01*
X273853D01*
Y278400D01*
X273453D01*
Y278200D01*
X273253D01*
Y277800D01*
X273453D01*
Y277600D01*
X273853D01*
X264454D02*
Y278400D01*
X264054D01*
Y278800D01*
X263253D01*
Y278400D01*
X262854D01*
Y277600D01*
X263253D01*
Y277200D01*
X264054D01*
Y277600D01*
X264454D01*
X263854D02*
Y277800D01*
X264054D01*
Y278200D01*
X263854D01*
Y278400D01*
X263454D01*
Y278200D01*
X263253D01*
Y277800D01*
X263454D01*
Y277600D01*
X263854D01*
X254453D02*
Y278400D01*
X254053D01*
Y278800D01*
X253254D01*
Y278400D01*
X252853D01*
Y277600D01*
X253254D01*
Y277200D01*
X254053D01*
Y277600D01*
X254453D01*
X253854D02*
Y277800D01*
X254053D01*
Y278200D01*
X253854D01*
Y278400D01*
X253453D01*
Y278200D01*
X253254D01*
Y277800D01*
X253453D01*
Y277600D01*
X253854D01*
X254000Y259999D02*
Y258000D01*
X255000D01*
X255333Y258333D01*
Y258666D01*
X255000Y259000D01*
X254000D01*
X255000D01*
X255333Y259333D01*
Y259666D01*
X255000Y259999D01*
X254000D01*
X254053Y248800D02*
X253254D01*
Y248400D01*
X252853D01*
Y247600D01*
X253254D01*
Y247200D01*
X254053D01*
Y247600D01*
X254453D01*
Y248400D01*
X254053D01*
Y248800D01*
Y248200D02*
X253854D01*
Y248400D01*
X253453D01*
Y248200D01*
X253254D01*
Y247800D01*
X253453D01*
Y247600D01*
X253854D01*
Y247800D01*
X254053D01*
Y248200D01*
X262854Y248400D02*
Y247600D01*
X263253D01*
Y247200D01*
X264054D01*
Y247600D01*
X264454D01*
Y248400D01*
X264054D01*
Y248800D01*
X263253D01*
Y248400D01*
X262854D01*
X263454D02*
Y248200D01*
X263253D01*
Y247800D01*
X263454D01*
Y247600D01*
X263854D01*
Y247800D01*
X264054D01*
Y248200D01*
X263854D01*
Y248400D01*
X263454D01*
X272853D02*
Y247600D01*
X273253D01*
Y247200D01*
X274054D01*
Y247600D01*
X274453D01*
Y248400D01*
X274054D01*
Y248800D01*
X273253D01*
Y248400D01*
X272853D01*
X273453D02*
Y248200D01*
X273253D01*
Y247800D01*
X273453D01*
Y247600D01*
X273853D01*
Y247800D01*
X274054D01*
Y248200D01*
X273853D01*
Y248400D01*
X273453D01*
X263144Y210328D02*
X262811Y210661D01*
X261811D01*
Y208661D01*
X262811D01*
X263144Y208995D01*
Y209328D01*
X262811Y209661D01*
X261811D01*
X262811D01*
X263144Y209994D01*
Y210328D01*
X253333Y206166D02*
X253000Y206499D01*
X252000D01*
Y204500D01*
X253000D01*
X253333Y204833D01*
Y205166D01*
X253000Y205500D01*
X252000D01*
X253000D01*
X253333Y205833D01*
Y206166D01*
X244520Y196174D02*
X244121D01*
X243721Y195774D01*
X243320Y196174D01*
X242920D01*
Y195774D01*
X243320Y195374D01*
X242920Y194974D01*
Y194574D01*
X243320D01*
X243721Y194974D01*
X244121Y194574D01*
X244520D01*
Y194974D01*
X244121Y195374D01*
X244520Y195774D01*
Y196174D01*
X210500Y235700D02*
X210900Y236100D01*
X211300D01*
X210900Y236500D01*
X211300Y236900D01*
X210900D01*
X210500Y237300D01*
X210100Y236900D01*
X209700D01*
X210100Y236500D01*
X209700Y236100D01*
X210100D01*
X210500Y235700D01*
X222000Y246700D02*
X221200Y248300D01*
X222800D01*
X222000Y246700D01*
X232000D02*
X231200Y248300D01*
X232800D01*
X232000Y246700D01*
X210900Y236700D02*
X210700D01*
X210500Y236900D01*
X210300Y236700D01*
X210100D01*
X210300Y236500D01*
X210100Y236300D01*
X210300D01*
X210500Y236100D01*
X210700Y236300D01*
X210900D01*
X210700Y236500D01*
X210900Y236700D01*
X194246Y216233D02*
X193913Y216566D01*
X192913D01*
Y214567D01*
X193913D01*
X194246Y214900D01*
Y215233D01*
X193913Y215567D01*
X192913D01*
X193913D01*
X194246Y215900D01*
Y216233D01*
X190500Y235700D02*
X190900Y236100D01*
X191300D01*
X190900Y236500D01*
X191300Y236900D01*
X190900D01*
X190500Y237300D01*
X190100Y236900D01*
X189700D01*
X190100Y236500D01*
X189700Y236100D01*
X190100D01*
X190500Y235700D01*
Y236100D02*
X190700Y236300D01*
X190900D01*
X190700Y236500D01*
X190900Y236700D01*
X190700D01*
X190500Y236900D01*
X190300Y236700D01*
X190100D01*
X190300Y236500D01*
X190100Y236300D01*
X190300D01*
X190500Y236100D01*
X178400Y262500D02*
X178733Y262833D01*
Y263166D01*
X178400Y263500D01*
X177400D01*
X178400D01*
X178733Y263833D01*
Y264166D01*
X178400Y264499D01*
X177400D01*
Y262500D01*
X178400D01*
X171300Y236900D02*
X170900D01*
X170500Y237300D01*
X170100Y236900D01*
X169700D01*
X170100Y236500D01*
X169700Y236100D01*
X170100D01*
X170500Y235700D01*
X170900Y236100D01*
X171300D01*
X170900Y236500D01*
X171300Y236900D01*
X170900Y236700D02*
X170700D01*
X170500Y236900D01*
X170300Y236700D01*
X170100D01*
X170300Y236500D01*
X170100Y236300D01*
X170300D01*
X170500Y236100D01*
X170700Y236300D01*
X170900D01*
X170700Y236500D01*
X170900Y236700D01*
X151391Y237389D02*
X149791D01*
Y238989D01*
X151391D01*
Y237389D01*
Y245263D02*
X149791D01*
Y246863D01*
X151391D01*
Y245263D01*
Y231115D02*
Y229515D01*
X149791D01*
Y231115D01*
X151391D01*
X155512Y224440D02*
Y222441D01*
X156511D01*
X156845Y222774D01*
Y223107D01*
X156511Y223441D01*
X155512D01*
X156511D01*
X156845Y223774D01*
Y224107D01*
X156511Y224440D01*
X155512D01*
X141548Y237389D02*
X139948D01*
Y238989D01*
X141548D01*
Y237389D01*
Y245263D02*
X139948D01*
Y246863D01*
X141548D01*
Y245263D01*
Y231115D02*
Y229515D01*
X139948D01*
Y231115D01*
X141548D01*
X154200Y200800D02*
Y200400D01*
X154600Y200000D01*
X154200Y199600D01*
Y199200D01*
X154600D01*
X155000Y199600D01*
X155400Y199200D01*
X155800D01*
Y199600D01*
X155400Y200000D01*
X155800Y200400D01*
Y200800D01*
X155400D01*
X155000Y200400D01*
X154600Y200800D01*
X154200D01*
X154600Y200400D02*
Y200200D01*
X154800Y200000D01*
X154600Y199800D01*
Y199600D01*
X154800D01*
X155000Y199800D01*
X155200Y199600D01*
X155400D01*
Y199800D01*
X155200Y200000D01*
X155400Y200200D01*
Y200400D01*
X155200D01*
X155000Y200200D01*
X154800Y200400D01*
X154600D01*
X233000Y273200D02*
X232200Y274800D01*
X233800D01*
X233000Y273200D01*
Y283200D02*
X232200Y284800D01*
X233800D01*
X233000Y283200D01*
X209661Y311024D02*
X209994Y311357D01*
Y311690D01*
X209661Y312023D01*
X208661D01*
X209661D01*
X209994Y312356D01*
Y312690D01*
X209661Y313023D01*
X208661D01*
Y311024D01*
X209661D01*
X232000Y342200D02*
X231200Y343800D01*
X232800D01*
X232000Y342200D01*
Y352200D02*
X231200Y353800D01*
X232800D01*
X232000Y352200D01*
Y362200D02*
X231200Y363800D01*
X232800D01*
X232000Y362200D01*
X257200Y331300D02*
Y330900D01*
X257600Y330500D01*
X257200Y330100D01*
Y329700D01*
X257600D01*
X258000Y330100D01*
X258400Y329700D01*
X258800D01*
Y330100D01*
X258400Y330500D01*
X258800Y330900D01*
Y331300D01*
X258400D01*
X258000Y330900D01*
X257600Y331300D01*
X257200D01*
X286200Y303800D02*
X287000Y303400D01*
X287800Y303800D01*
X287400Y303000D01*
X287800Y302200D01*
X287000Y302600D01*
X286200Y302200D01*
X286600Y303000D01*
X286200Y303800D01*
X286600Y303400D02*
X287000Y303200D01*
X287400Y303400D01*
X287200Y303000D01*
X287400Y302600D01*
X287000Y302800D01*
X286600Y302600D01*
X286800Y303000D01*
X286600Y303400D01*
X296200Y303800D02*
X297000Y303400D01*
X297800Y303800D01*
X297400Y303000D01*
X297800Y302200D01*
X297000Y302600D01*
X296200Y302200D01*
X296600Y303000D01*
X296200Y303800D01*
X296600Y303400D02*
X297000Y303200D01*
X297400Y303400D01*
X297200Y303000D01*
X297400Y302600D01*
X297000Y302800D01*
X296600Y302600D01*
X296800Y303000D01*
X296600Y303400D01*
X306200Y303800D02*
X307000Y303400D01*
X307800Y303800D01*
X307400Y303000D01*
X307800Y302200D01*
X307000Y302600D01*
X306200Y302200D01*
X306600Y303000D01*
X306200Y303800D01*
X306600Y303400D02*
X307000Y303200D01*
X307400Y303400D01*
X307200Y303000D01*
X307400Y302600D01*
X307000Y302800D01*
X306600Y302600D01*
X306800Y303000D01*
X306600Y303400D01*
X286846Y317342D02*
X287179Y317676D01*
Y318009D01*
X286846Y318342D01*
X285846D01*
X286846D01*
X287179Y318675D01*
Y319009D01*
X286846Y319342D01*
X285846D01*
Y317342D01*
X286846D01*
X311000Y328189D02*
X312000D01*
X312333Y328522D01*
Y328855D01*
X312000Y329189D01*
X311000D01*
X312000D01*
X312333Y329522D01*
Y329855D01*
X312000Y330188D01*
X311000D01*
Y328189D01*
X292338Y366142D02*
X292671Y366475D01*
Y366808D01*
X292338Y367141D01*
X291339D01*
X292338D01*
X292671Y367475D01*
Y367808D01*
X292338Y368141D01*
X291339D01*
Y366142D01*
X292338D01*
X301000Y392000D02*
X302000D01*
X302333Y392333D01*
Y392666D01*
X302000Y393000D01*
X301000D01*
X302000D01*
X302333Y393333D01*
Y393666D01*
X302000Y393999D01*
X301000D01*
Y392000D01*
X353000Y414000D02*
X354000D01*
X354333Y414333D01*
Y414666D01*
X354000Y415000D01*
X353000D01*
X354000D01*
X354333Y415333D01*
Y415666D01*
X354000Y415999D01*
X353000D01*
Y414000D01*
X359200Y441015D02*
Y442615D01*
X360800D01*
Y441015D01*
X359200D01*
X358000Y463500D02*
X358333Y463833D01*
Y464166D01*
X358000Y464500D01*
X357000D01*
X358000D01*
X358333Y464833D01*
Y465166D01*
X358000Y465499D01*
X357000D01*
Y463500D01*
X358000D01*
X376700Y478700D02*
Y480300D01*
X378300D01*
Y478700D01*
X376700D01*
X377100Y479100D02*
Y479900D01*
X377900D01*
Y479100D01*
X377100D01*
X386700Y478700D02*
Y480300D01*
X388300D01*
Y478700D01*
X386700D01*
X387100Y479100D02*
Y479900D01*
X387900D01*
Y479100D01*
X387100D01*
X406700Y478700D02*
Y480300D01*
X408300D01*
Y478700D01*
X406700D01*
X407100Y479100D02*
Y479900D01*
X407900D01*
Y479100D01*
X407100D01*
X416700Y478700D02*
Y480300D01*
X418300D01*
Y478700D01*
X416700D01*
X417100Y479100D02*
Y479900D01*
X417900D01*
Y479100D01*
X417100D01*
X426700Y478700D02*
Y480300D01*
X428300D01*
Y478700D01*
X426700D01*
X427100Y479100D02*
Y479900D01*
X427900D01*
Y479100D01*
X427100D01*
X436700Y478700D02*
Y480300D01*
X438300D01*
Y478700D01*
X436700D01*
X437100Y479100D02*
Y479900D01*
X437900D01*
Y479100D01*
X437100D01*
X448000Y491801D02*
X449000D01*
X449333Y492134D01*
Y492467D01*
X449000Y492801D01*
X448000D01*
X449000D01*
X449333Y493134D01*
Y493467D01*
X449000Y493800D01*
X448000D01*
Y491801D01*
X476200Y475052D02*
X477000Y474652D01*
X477800Y475052D01*
X477400Y474252D01*
X477800Y473452D01*
X477000Y473852D01*
X476200Y473452D01*
X476600Y474252D01*
X476200Y475052D01*
X496200D02*
X497000Y474652D01*
X497800Y475052D01*
X497400Y474252D01*
X497800Y473452D01*
X497000Y473852D01*
X496200Y473452D01*
X496600Y474252D01*
X496200Y475052D01*
X471253Y415095D02*
X470453Y413495D01*
X469653Y415095D01*
X471253D01*
X360800Y480385D02*
X359200D01*
Y481985D01*
X360800D01*
Y480385D01*
X333800Y450800D02*
X333000Y449200D01*
X332200Y450800D01*
X333800D01*
X333400Y450400D02*
X333000Y449600D01*
X332600Y450400D01*
X333400D01*
X311833Y449166D02*
X311500Y449499D01*
X310500D01*
Y447500D01*
X311500D01*
X311833Y447833D01*
Y448166D01*
X311500Y448500D01*
X310500D01*
X311500D01*
X311833Y448833D01*
Y449166D01*
X299000Y449200D02*
X298200Y450800D01*
X299800D01*
X299000Y449200D01*
Y449600D02*
X298600Y450400D01*
X299400D01*
X299000Y449600D01*
X289985Y449200D02*
X288385D01*
Y450800D01*
X289985D01*
Y449200D01*
X317700Y478700D02*
Y480300D01*
X319300D01*
Y478700D01*
X317700D01*
X318100Y479100D02*
Y479900D01*
X318900D01*
Y479100D01*
X318100D01*
X309300Y478700D02*
X307700D01*
Y480300D01*
X309300D01*
Y478700D01*
X308900Y479100D02*
X308100D01*
Y479900D01*
X308900D01*
Y479100D01*
X299300Y478700D02*
X297700D01*
Y480300D01*
X299300D01*
Y478700D01*
X298900Y479100D02*
X298100D01*
Y479900D01*
X298900D01*
Y479100D01*
X289300Y478700D02*
X287700D01*
Y480300D01*
X289300D01*
Y478700D01*
X288900Y479100D02*
X288100D01*
Y479900D01*
X288900D01*
Y479100D01*
X269300Y478700D02*
X267700D01*
Y480300D01*
X269300D01*
Y478700D01*
X268900Y479100D02*
X268100D01*
Y479900D01*
X268900D01*
Y479100D01*
X259300Y478700D02*
X257700D01*
Y480300D01*
X259300D01*
Y478700D01*
X258900Y479100D02*
X258100D01*
Y479900D01*
X258900D01*
Y479100D01*
X250615Y450800D02*
Y449200D01*
X249015D01*
Y450800D01*
X250615D01*
X230800Y454600D02*
X230400Y455000D01*
X230800Y455400D01*
X230400D01*
X230000Y455800D01*
X229600Y455400D01*
X229200D01*
X229600Y455000D01*
X229200Y454600D01*
X229600D01*
X230000Y454200D01*
X230400Y454600D01*
X230800D01*
X230400Y454800D02*
X230200Y455000D01*
X230400Y455200D01*
X230200D01*
X230000Y455400D01*
X229800Y455200D01*
X229600D01*
X229800Y455000D01*
X229600Y454800D01*
X229800D01*
X230000Y454600D01*
X230200Y454800D01*
X230400D01*
Y425872D02*
X230000Y426272D01*
X229600Y425872D01*
X229200D01*
X229600Y425472D01*
X229200Y425072D01*
X229600D01*
X230000Y424672D01*
X230400Y425072D01*
X230800D01*
X230400Y425472D01*
X230800Y425872D01*
X230400D01*
Y425672D02*
X230200D01*
X230000Y425872D01*
X229800Y425672D01*
X229600D01*
X229800Y425472D01*
X229600Y425272D01*
X229800D01*
X230000Y425072D01*
X230200Y425272D01*
X230400D01*
X230200Y425472D01*
X230400Y425672D01*
X219333Y393666D02*
X219000Y393999D01*
X218000D01*
Y392000D01*
X219000D01*
X219333Y392333D01*
Y392666D01*
X219000Y393000D01*
X218000D01*
X219000D01*
X219333Y393333D01*
Y393666D01*
X188674Y425072D02*
X188274Y425472D01*
X188674Y425872D01*
X188274D01*
X187874Y426272D01*
X187474Y425872D01*
X187074D01*
X187474Y425472D01*
X187074Y425072D01*
X187474D01*
X187874Y424672D01*
X188274Y425072D01*
X188674D01*
X188274Y425272D02*
X188074Y425472D01*
X188274Y425672D01*
X188074D01*
X187874Y425872D01*
X187674Y425672D01*
X187474D01*
X187674Y425472D01*
X187474Y425272D01*
X187674D01*
X187874Y425072D01*
X188074Y425272D01*
X188274D01*
X187874Y454200D02*
X188274Y454600D01*
X188674D01*
X188274Y455000D01*
X188674Y455400D01*
X188274D01*
X187874Y455800D01*
X187474Y455400D01*
X187074D01*
X187474Y455000D01*
X187074Y454600D01*
X187474D01*
X187874Y454200D01*
Y454600D02*
X188074Y454800D01*
X188274D01*
X188074Y455000D01*
X188274Y455200D01*
X188074D01*
X187874Y455400D01*
X187674Y455200D01*
X187474D01*
X187674Y455000D01*
X187474Y454800D01*
X187674D01*
X187874Y454600D01*
X155800Y479200D02*
Y479600D01*
X155400Y480000D01*
X155800Y480400D01*
Y480800D01*
X155400D01*
X155000Y480400D01*
X154600Y480800D01*
X154200D01*
Y480400D01*
X154600Y480000D01*
X154200Y479600D01*
Y479200D01*
X154600D01*
X155000Y479600D01*
X155400Y479200D01*
X155800D01*
X155400Y479600D02*
Y479800D01*
X155200Y480000D01*
X155400Y480200D01*
Y480400D01*
X155200D01*
X155000Y480200D01*
X154800Y480400D01*
X154600D01*
Y480200D01*
X154800Y480000D01*
X154600Y479800D01*
Y479600D01*
X154800D01*
X155000Y479800D01*
X155200Y479600D01*
X155400D01*
X159948Y455800D02*
X160748Y455400D01*
X161548Y455800D01*
X161148Y455000D01*
X161548Y454200D01*
X160748Y454600D01*
X159948Y454200D01*
X160348Y455000D01*
X159948Y455800D01*
Y435800D02*
X160748Y435400D01*
X161548Y435800D01*
X161148Y435000D01*
X161548Y434200D01*
X160748Y434600D01*
X159948Y434200D01*
X160348Y435000D01*
X159948Y435800D01*
Y415800D02*
X160748Y415400D01*
X161548Y415800D01*
X161148Y415000D01*
X161548Y414200D01*
X160748Y414600D01*
X159948Y414200D01*
X160348Y415000D01*
X159948Y415800D01*
Y395800D02*
X160748Y395400D01*
X161548Y395800D01*
X161148Y395000D01*
X161548Y394200D01*
X160748Y394600D01*
X159948Y394200D01*
X160348Y395000D01*
X159948Y395800D01*
Y375800D02*
X160748Y375400D01*
X161548Y375800D01*
X161148Y375000D01*
X161548Y374200D01*
X160748Y374600D01*
X159948Y374200D01*
X160348Y375000D01*
X159948Y375800D01*
Y355800D02*
X160748Y355400D01*
X161548Y355800D01*
X161148Y355000D01*
X161548Y354200D01*
X160748Y354600D01*
X159948Y354200D01*
X160348Y355000D01*
X159948Y355800D01*
X143065Y326469D02*
X142732Y326802D01*
X141732D01*
Y324803D01*
X142732D01*
X143065Y325136D01*
Y325470D01*
X142732Y325803D01*
X141732D01*
X142732D01*
X143065Y326136D01*
Y326469D01*
X159948Y315800D02*
X160748Y315400D01*
X161548Y315800D01*
X161148Y315000D01*
X161548Y314200D01*
X160748Y314600D01*
X159948Y314200D01*
X160348Y315000D01*
X159948Y315800D01*
Y295800D02*
X160748Y295400D01*
X161548Y295800D01*
X161148Y295000D01*
X161548Y294200D01*
X160748Y294600D01*
X159948Y294200D01*
X160348Y295000D01*
X159948Y295800D01*
X148971Y295942D02*
X148637Y296275D01*
X147638D01*
X148637D01*
X148971Y296608D01*
Y296942D01*
X148637Y297275D01*
X147638D01*
Y295276D01*
X148637D01*
X148971Y295609D01*
Y295942D01*
X159948Y275800D02*
X160748Y275400D01*
X161548Y275800D01*
X161148Y275000D01*
X161548Y274200D01*
X160748Y274600D01*
X159948Y274200D01*
X160348Y275000D01*
X159948Y275800D01*
Y334200D02*
X160348Y335000D01*
X159948Y335800D01*
X160748Y335400D01*
X161548Y335800D01*
X161148Y335000D01*
X161548Y334200D01*
X160748Y334600D01*
X159948Y334200D01*
X200787Y342520D02*
X201787D01*
X202120Y342853D01*
Y343186D01*
X201787Y343519D01*
X200787D01*
X201787D01*
X202120Y343853D01*
Y344186D01*
X201787Y344519D01*
X200787D01*
Y342520D01*
X257200Y369700D02*
X257600D01*
X258000Y370100D01*
X258400Y369700D01*
X258800D01*
Y370100D01*
X258400Y370500D01*
X258800Y370900D01*
Y371300D01*
X258400D01*
X258000Y370900D01*
X257600Y371300D01*
X257200D01*
Y370900D01*
X257600Y370500D01*
X257200Y370100D01*
Y369700D01*
Y409700D02*
X257600D01*
X258000Y410100D01*
X258400Y409700D01*
X258800D01*
Y410100D01*
X258400Y410500D01*
X258800Y410900D01*
Y411300D01*
X258400D01*
X258000Y410900D01*
X257600Y411300D01*
X257200D01*
Y410900D01*
X257600Y410500D01*
X257200Y410100D01*
Y409700D01*
X305200Y204800D02*
X306800D01*
Y203200D01*
X305200D01*
Y204800D01*
Y194800D02*
X306800D01*
Y193200D01*
X305200D01*
Y194800D01*
X317421Y195074D02*
X317821D01*
X318220Y195474D01*
X318620Y195074D01*
X319021D01*
Y195474D01*
X318620Y195874D01*
X319021Y196274D01*
Y196674D01*
X318620D01*
X318220Y196274D01*
X317821Y196674D01*
X317421D01*
Y196274D01*
X317821Y195874D01*
X317421Y195474D01*
Y195074D01*
G54D164*
X145022Y218034D02*
X145916Y217743D01*
X146469Y218504D01*
X145916Y219265D01*
X145022Y218974D01*
Y218034D01*
Y257404D02*
X145916Y257113D01*
X146469Y257874D01*
X145916Y258635D01*
X145022Y258344D01*
Y257404D01*
X377794Y191451D02*
X378688Y191160D01*
X379241Y191921D01*
X378688Y192682D01*
X377794Y192392D01*
Y191451D01*
X417164D02*
X418058Y191160D01*
X418611Y191921D01*
X418058Y192682D01*
X417164Y192392D01*
Y191451D01*
X481853Y245030D02*
X482747Y244739D01*
X483300Y245500D01*
X482747Y246261D01*
X481853Y245970D01*
Y245030D01*
X552353Y239470D02*
Y238530D01*
X553247Y238239D01*
X553800Y239000D01*
X553247Y239761D01*
X552353Y239470D01*
Y308530D02*
X553247Y308239D01*
X553800Y309000D01*
X553247Y309761D01*
X552353Y309470D01*
Y308530D01*
X482747Y342739D02*
X483300Y343500D01*
X482747Y344261D01*
X481853Y343970D01*
Y343030D01*
X482747Y342739D01*
Y316261D02*
X481853Y315970D01*
Y315030D01*
X482747Y314739D01*
X483300Y315500D01*
X482747Y316261D01*
Y412739D02*
X483300Y413500D01*
X482747Y414261D01*
X481853Y413970D01*
Y413030D01*
X482747Y412739D01*
X658483Y437286D02*
X659377Y436995D01*
X659930Y437756D01*
X659377Y438517D01*
X658483Y438226D01*
Y437286D01*
X697853D02*
X698747Y436995D01*
X699300Y437756D01*
X698747Y438517D01*
X697853Y438226D01*
Y437286D01*
Y484530D02*
X698747Y484239D01*
X699300Y485000D01*
X698747Y485761D01*
X697853Y485470D01*
Y484530D01*
X659930Y485000D02*
X659377Y485761D01*
X658483Y485470D01*
Y484530D01*
X659377Y484239D01*
X659930Y485000D01*
G54D165*
X658930Y437409D02*
X659530Y437756D01*
X658930Y438102D01*
Y437409D01*
X698300D02*
X698900Y437756D01*
X698300Y438102D01*
Y437409D01*
Y484654D02*
X698900Y485000D01*
X698300Y485346D01*
Y484654D01*
X659530Y485000D02*
X658930Y485346D01*
Y484654D01*
X659530Y485000D01*
M02*
