G04*
G04 #@! TF.GenerationSoftware,Altium Limited,Altium Designer,21.3.2 (30)*
G04*
G04 Layer_Color=16711935*
%FSLAX25Y25*%
%MOIN*%
G70*
G04*
G04 #@! TF.SameCoordinates,82E3065C-4493-458C-8774-CE3C9F48797D*
G04*
G04*
G04 #@! TF.FilePolarity,Negative*
G04*
G01*
G75*
%ADD18C,0.10000*%
%ADD20P,0.06406X8X22.5*%
%ADD21C,0.05918*%
%ADD22C,0.08674*%
%ADD23P,0.06406X8X292.5*%
%ADD24C,0.06312*%
%ADD25C,0.12611*%
%ADD26C,0.13792*%
%ADD27P,0.14929X8X22.5*%
%ADD28O,0.11430X0.09619*%
%ADD29C,0.09855*%
%ADD30C,0.07887*%
%ADD31C,0.06800*%
%ADD32P,0.07360X8X22.5*%
%ADD33C,0.07300*%
G04:AMPARAMS|DCode=34|XSize=73mil|YSize=73mil|CornerRadius=7.25mil|HoleSize=0mil|Usage=FLASHONLY|Rotation=180.000|XOffset=0mil|YOffset=0mil|HoleType=Round|Shape=RoundedRectangle|*
%AMROUNDEDRECTD34*
21,1,0.07300,0.05850,0,0,180.0*
21,1,0.05850,0.07300,0,0,180.0*
1,1,0.01450,-0.02925,0.02925*
1,1,0.01450,0.02925,0.02925*
1,1,0.01450,0.02925,-0.02925*
1,1,0.01450,-0.02925,-0.02925*
%
%ADD34ROUNDEDRECTD34*%
%ADD35P,0.13650X8X292.5*%
G04:AMPARAMS|DCode=36|XSize=73mil|YSize=73mil|CornerRadius=7.25mil|HoleSize=0mil|Usage=FLASHONLY|Rotation=90.000|XOffset=0mil|YOffset=0mil|HoleType=Round|Shape=RoundedRectangle|*
%AMROUNDEDRECTD36*
21,1,0.07300,0.05850,0,0,90.0*
21,1,0.05850,0.07300,0,0,90.0*
1,1,0.01450,0.02925,0.02925*
1,1,0.01450,0.02925,-0.02925*
1,1,0.01450,-0.02925,-0.02925*
1,1,0.01450,-0.02925,0.02925*
%
%ADD36ROUNDEDRECTD36*%
%ADD37C,0.10642*%
G04:AMPARAMS|DCode=38|XSize=106.42mil|YSize=106.42mil|CornerRadius=13.84mil|HoleSize=0mil|Usage=FLASHONLY|Rotation=0.000|XOffset=0mil|YOffset=0mil|HoleType=Round|Shape=RoundedRectangle|*
%AMROUNDEDRECTD38*
21,1,0.10642,0.07874,0,0,0.0*
21,1,0.07874,0.10642,0,0,0.0*
1,1,0.02769,0.03937,-0.03937*
1,1,0.02769,-0.03937,-0.03937*
1,1,0.02769,-0.03937,0.03937*
1,1,0.02769,0.03937,0.03937*
%
%ADD38ROUNDEDRECTD38*%
%ADD39C,0.07099*%
%ADD40P,0.13650X8X202.5*%
%ADD41P,0.14929X8X292.5*%
%ADD42C,0.10249*%
%ADD43O,0.06706X0.05524*%
%ADD44O,0.07200X0.09800*%
%ADD45R,0.07200X0.09800*%
%ADD46C,0.18517*%
G04:AMPARAMS|DCode=122|XSize=48mil|YSize=48mil|CornerRadius=7mil|HoleSize=0mil|Usage=FLASHONLY|Rotation=0.000|XOffset=0mil|YOffset=0mil|HoleType=Round|Shape=RoundedRectangle|*
%AMROUNDEDRECTD122*
21,1,0.04800,0.03400,0,0,0.0*
21,1,0.03400,0.04800,0,0,0.0*
1,1,0.01400,0.01700,-0.01700*
1,1,0.01400,-0.01700,-0.01700*
1,1,0.01400,-0.01700,0.01700*
1,1,0.01400,0.01700,0.01700*
%
%ADD122ROUNDEDRECTD122*%
%ADD123P,0.04701X8X22.5*%
%ADD124R,0.04343X0.04343*%
G04:AMPARAMS|DCode=125|XSize=39.5mil|YSize=47.37mil|CornerRadius=8.72mil|HoleSize=0mil|Usage=FLASHONLY|Rotation=270.000|XOffset=0mil|YOffset=0mil|HoleType=Round|Shape=RoundedRectangle|*
%AMROUNDEDRECTD125*
21,1,0.03950,0.02992,0,0,270.0*
21,1,0.02205,0.04737,0,0,270.0*
1,1,0.01745,-0.01496,-0.01102*
1,1,0.01745,-0.01496,0.01102*
1,1,0.01745,0.01496,0.01102*
1,1,0.01745,0.01496,-0.01102*
%
%ADD125ROUNDEDRECTD125*%
%ADD126O,0.07099X0.03162*%
%ADD127R,0.07099X0.03162*%
G04:AMPARAMS|DCode=128|XSize=48mil|YSize=48mil|CornerRadius=7mil|HoleSize=0mil|Usage=FLASHONLY|Rotation=270.000|XOffset=0mil|YOffset=0mil|HoleType=Round|Shape=RoundedRectangle|*
%AMROUNDEDRECTD128*
21,1,0.04800,0.03400,0,0,270.0*
21,1,0.03400,0.04800,0,0,270.0*
1,1,0.01400,-0.01700,-0.01700*
1,1,0.01400,-0.01700,0.01700*
1,1,0.01400,0.01700,0.01700*
1,1,0.01400,0.01700,-0.01700*
%
%ADD128ROUNDEDRECTD128*%
G04:AMPARAMS|DCode=129|XSize=71mil|YSize=79mil|CornerRadius=8.73mil|HoleSize=0mil|Usage=FLASHONLY|Rotation=90.000|XOffset=0mil|YOffset=0mil|HoleType=Round|Shape=RoundedRectangle|*
%AMROUNDEDRECTD129*
21,1,0.07100,0.06155,0,0,90.0*
21,1,0.05355,0.07900,0,0,90.0*
1,1,0.01745,0.03078,0.02678*
1,1,0.01745,0.03078,-0.02678*
1,1,0.01745,-0.03078,-0.02678*
1,1,0.01745,-0.03078,0.02678*
%
%ADD129ROUNDEDRECTD129*%
%ADD130R,0.04343X0.04343*%
%ADD131P,0.04701X8X292.5*%
%ADD132R,0.04800X0.03800*%
%ADD133O,0.04800X0.03800*%
%ADD134R,0.03800X0.04800*%
%ADD135O,0.03800X0.04800*%
%ADD136O,0.03162X0.04343*%
%ADD137R,0.03162X0.04343*%
%ADD138O,0.07690X0.03162*%
%ADD139R,0.07690X0.03162*%
%ADD140R,0.10249X0.13005*%
G04:AMPARAMS|DCode=141|XSize=31.62mil|YSize=88.71mil|CornerRadius=0mil|HoleSize=0mil|Usage=FLASHONLY|Rotation=270.000|XOffset=0mil|YOffset=0mil|HoleType=Round|Shape=Octagon|*
%AMOCTAGOND141*
4,1,8,0.04435,0.00791,0.04435,-0.00791,0.03645,-0.01581,-0.03645,-0.01581,-0.04435,-0.00791,-0.04435,0.00791,-0.03645,0.01581,0.03645,0.01581,0.04435,0.00791,0.0*
%
%ADD141OCTAGOND141*%

%ADD142R,0.08871X0.03162*%
%ADD143R,0.03162X0.07690*%
%ADD144O,0.03162X0.07690*%
G04:AMPARAMS|DCode=145|XSize=71mil|YSize=79mil|CornerRadius=8.73mil|HoleSize=0mil|Usage=FLASHONLY|Rotation=0.000|XOffset=0mil|YOffset=0mil|HoleType=Round|Shape=RoundedRectangle|*
%AMROUNDEDRECTD145*
21,1,0.07100,0.06155,0,0,0.0*
21,1,0.05355,0.07900,0,0,0.0*
1,1,0.01745,0.02678,-0.03078*
1,1,0.01745,-0.02678,-0.03078*
1,1,0.01745,-0.02678,0.03078*
1,1,0.01745,0.02678,0.03078*
%
%ADD145ROUNDEDRECTD145*%
%ADD146R,0.09461X0.08871*%
G04:AMPARAMS|DCode=147|XSize=94.61mil|YSize=88.71mil|CornerRadius=0mil|HoleSize=0mil|Usage=FLASHONLY|Rotation=0.000|XOffset=0mil|YOffset=0mil|HoleType=Round|Shape=Octagon|*
%AMOCTAGOND147*
4,1,8,0.04731,-0.02218,0.04731,0.02218,0.02513,0.04435,-0.02513,0.04435,-0.04731,0.02218,-0.04731,-0.02218,-0.02513,-0.04435,0.02513,-0.04435,0.04731,-0.02218,0.0*
%
%ADD147OCTAGOND147*%

%ADD148R,0.07493X0.07099*%
G04:AMPARAMS|DCode=149|XSize=74.93mil|YSize=70.99mil|CornerRadius=0mil|HoleSize=0mil|Usage=FLASHONLY|Rotation=0.000|XOffset=0mil|YOffset=0mil|HoleType=Round|Shape=Octagon|*
%AMOCTAGOND149*
4,1,8,0.03747,-0.01775,0.03747,0.01775,0.01972,0.03550,-0.01972,0.03550,-0.03747,0.01775,-0.03747,-0.01775,-0.01972,-0.03550,0.01972,-0.03550,0.03747,-0.01775,0.0*
%
%ADD149OCTAGOND149*%

G04:AMPARAMS|DCode=150|XSize=74.93mil|YSize=70.99mil|CornerRadius=0mil|HoleSize=0mil|Usage=FLASHONLY|Rotation=270.000|XOffset=0mil|YOffset=0mil|HoleType=Round|Shape=Octagon|*
%AMOCTAGOND150*
4,1,8,-0.01775,-0.03747,0.01775,-0.03747,0.03550,-0.01972,0.03550,0.01972,0.01775,0.03747,-0.01775,0.03747,-0.03550,0.01972,-0.03550,-0.01972,-0.01775,-0.03747,0.0*
%
%ADD150OCTAGOND150*%

%ADD151R,0.07099X0.07493*%
G04:AMPARAMS|DCode=152|XSize=43.43mil|YSize=41.47mil|CornerRadius=0mil|HoleSize=0mil|Usage=FLASHONLY|Rotation=0.000|XOffset=0mil|YOffset=0mil|HoleType=Round|Shape=Octagon|*
%AMOCTAGOND152*
4,1,8,0.02172,-0.01037,0.02172,0.01037,0.01135,0.02073,-0.01135,0.02073,-0.02172,0.01037,-0.02172,-0.01037,-0.01135,-0.02073,0.01135,-0.02073,0.02172,-0.01037,0.0*
%
%ADD152OCTAGOND152*%

%ADD153R,0.04343X0.04147*%
%ADD154R,0.04343X0.03162*%
%ADD155O,0.04343X0.03162*%
G04:AMPARAMS|DCode=156|XSize=63.12mil|YSize=78.87mil|CornerRadius=8.13mil|HoleSize=0mil|Usage=FLASHONLY|Rotation=90.000|XOffset=0mil|YOffset=0mil|HoleType=Round|Shape=RoundedRectangle|*
%AMROUNDEDRECTD156*
21,1,0.06312,0.06260,0,0,90.0*
21,1,0.04685,0.07887,0,0,90.0*
1,1,0.01627,0.03130,0.02343*
1,1,0.01627,0.03130,-0.02343*
1,1,0.01627,-0.03130,-0.02343*
1,1,0.01627,-0.03130,0.02343*
%
%ADD156ROUNDEDRECTD156*%
G04:AMPARAMS|DCode=157|XSize=63.12mil|YSize=78.87mil|CornerRadius=8.13mil|HoleSize=0mil|Usage=FLASHONLY|Rotation=0.000|XOffset=0mil|YOffset=0mil|HoleType=Round|Shape=RoundedRectangle|*
%AMROUNDEDRECTD157*
21,1,0.06312,0.06260,0,0,0.0*
21,1,0.04685,0.07887,0,0,0.0*
1,1,0.01627,0.02343,-0.03130*
1,1,0.01627,-0.02343,-0.03130*
1,1,0.01627,-0.02343,0.03130*
1,1,0.01627,0.02343,0.03130*
%
%ADD157ROUNDEDRECTD157*%
G54D18*
X477000Y467882D02*
X501500Y443382D01*
Y409500D01*
X562992Y438976D02*
Y474409D01*
X604331Y452756D02*
X625984Y474409D01*
X649606D01*
X661417Y486221D01*
X681102D01*
X602362Y474409D02*
Y440945D01*
G54D20*
X390252Y196843D02*
D03*
G54D21*
X150591Y230315D02*
D03*
Y238189D02*
D03*
X140748D02*
D03*
Y246063D02*
D03*
Y230315D02*
D03*
X390252Y187000D02*
D03*
X398126D02*
D03*
X406000D02*
D03*
Y196843D02*
D03*
X398126D02*
D03*
G54D22*
X145669Y218504D02*
D03*
Y257874D02*
D03*
X243721Y195374D02*
D03*
X271280Y195768D02*
D03*
X318220Y195874D02*
D03*
X345779Y196268D02*
D03*
X378441Y191921D02*
D03*
X417811D02*
D03*
X464547Y292705D02*
D03*
X470453Y318295D02*
D03*
X464547Y388705D02*
D03*
X470453Y414295D02*
D03*
X573953Y264795D02*
D03*
X568047Y239205D02*
D03*
G54D23*
X150591Y246063D02*
D03*
G54D24*
X287000Y223000D02*
D03*
X297000D02*
D03*
X307000D02*
D03*
Y303000D02*
D03*
X297000D02*
D03*
X287000D02*
D03*
X464500Y256000D02*
D03*
Y285528D02*
D03*
Y349500D02*
D03*
Y379028D02*
D03*
X547236Y327000D02*
D03*
X576764D02*
D03*
X667472Y416000D02*
D03*
X697000D02*
D03*
X616142Y461614D02*
D03*
X596949Y440000D02*
D03*
X616142Y432087D02*
D03*
X567421Y440000D02*
D03*
G54D25*
X258000Y330500D02*
D03*
Y370500D02*
D03*
Y410500D02*
D03*
X438000D02*
D03*
X482500Y413500D02*
D03*
X531496Y452756D02*
D03*
X482500Y343500D02*
D03*
Y315500D02*
D03*
Y245500D02*
D03*
X531496Y204724D02*
D03*
X553000Y239000D02*
D03*
Y309000D02*
D03*
X698500Y437756D02*
D03*
Y485000D02*
D03*
X659130D02*
D03*
G54D26*
X160748Y275000D02*
D03*
Y315000D02*
D03*
Y355000D02*
D03*
Y395000D02*
D03*
Y435000D02*
D03*
X452000Y205748D02*
D03*
X497500D02*
D03*
X592500Y474252D02*
D03*
X552500D02*
D03*
X477000D02*
D03*
G54D27*
X432000Y205748D02*
D03*
X477500D02*
D03*
X612500Y474252D02*
D03*
X572500D02*
D03*
X497000D02*
D03*
G54D28*
X501500Y273000D02*
D03*
Y283000D02*
D03*
Y293000D02*
D03*
Y313000D02*
D03*
X532000Y273000D02*
D03*
Y293000D02*
D03*
Y303000D02*
D03*
Y313000D02*
D03*
X501500Y369500D02*
D03*
Y379500D02*
D03*
Y389500D02*
D03*
Y409500D02*
D03*
G54D29*
X230000Y425472D02*
D03*
Y455000D02*
D03*
X187874D02*
D03*
Y425472D02*
D03*
X588866Y258000D02*
D03*
X587000Y290732D02*
D03*
X656000Y290866D02*
D03*
X664000Y243000D02*
D03*
X697134Y258000D02*
D03*
X656000Y202575D02*
D03*
X664000Y351268D02*
D03*
X656000Y399134D02*
D03*
Y399425D02*
D03*
X679472Y445000D02*
D03*
X709000D02*
D03*
Y487126D02*
D03*
X679472D02*
D03*
X587000Y399000D02*
D03*
G54D30*
X248839Y185925D02*
D03*
X266161D02*
D03*
X323339Y186425D02*
D03*
X340661D02*
D03*
G54D31*
X437500Y479500D02*
D03*
X427500D02*
D03*
X417500D02*
D03*
X407500D02*
D03*
X387500D02*
D03*
X318500D02*
D03*
X308500D02*
D03*
X298500D02*
D03*
X288500D02*
D03*
X268500D02*
D03*
G54D32*
X377500Y479500D02*
D03*
X258500D02*
D03*
G54D33*
X232000Y247500D02*
D03*
X233000Y284000D02*
D03*
X232000Y353000D02*
D03*
Y363000D02*
D03*
X352000Y300374D02*
D03*
X362000D02*
D03*
X372000D02*
D03*
X472598Y224410D02*
D03*
G54D34*
X222000Y247500D02*
D03*
X342000Y300374D02*
D03*
X382000D02*
D03*
X462598Y224410D02*
D03*
G54D35*
X659130Y437756D02*
D03*
G54D36*
X233000Y274000D02*
D03*
X232000Y343000D02*
D03*
G54D37*
X180500Y186500D02*
D03*
X200500D02*
D03*
X210500Y236500D02*
D03*
X190500D02*
D03*
X170500D02*
D03*
X299000Y450000D02*
D03*
X418000D02*
D03*
G54D38*
X452000Y450000D02*
D03*
X333000D02*
D03*
G54D39*
X360000Y441815D02*
D03*
Y481185D02*
D03*
X289185Y450000D02*
D03*
X249815D02*
D03*
G54D40*
X438000Y330500D02*
D03*
G54D41*
X160748Y295000D02*
D03*
Y335000D02*
D03*
Y375000D02*
D03*
Y415000D02*
D03*
Y455000D02*
D03*
G54D42*
X548000Y359000D02*
D03*
Y399158D02*
D03*
X656268Y359000D02*
D03*
Y399158D02*
D03*
G54D43*
X227000Y194000D02*
D03*
Y204000D02*
D03*
X284000D02*
D03*
Y194000D02*
D03*
X306000D02*
D03*
Y204000D02*
D03*
G54D44*
X263653Y248000D02*
D03*
X273654D02*
D03*
X283653D02*
D03*
X293653D02*
D03*
X303654D02*
D03*
X313653D02*
D03*
Y278000D02*
D03*
X303654D02*
D03*
X293653D02*
D03*
X283653D02*
D03*
X273654D02*
D03*
X263653D02*
D03*
X253654D02*
D03*
G54D45*
X253654Y248000D02*
D03*
G54D46*
X155000Y200000D02*
D03*
Y480000D02*
D03*
X714685Y200000D02*
D03*
Y379000D02*
D03*
G54D122*
X235000Y193654D02*
D03*
Y200346D02*
D03*
X283653Y259653D02*
D03*
Y266347D02*
D03*
X273654D02*
D03*
X267000D02*
D03*
Y259653D02*
D03*
X273654D02*
D03*
X243000Y282193D02*
D03*
Y275500D02*
D03*
X245000Y299153D02*
D03*
Y305847D02*
D03*
X210630Y337205D02*
D03*
Y343898D02*
D03*
X207500Y361154D02*
D03*
Y367846D02*
D03*
X200787Y328150D02*
D03*
X194882D02*
D03*
Y321457D02*
D03*
X200787D02*
D03*
X196500Y301346D02*
D03*
Y294654D02*
D03*
X194882Y286811D02*
D03*
X202756Y282874D02*
D03*
Y276181D02*
D03*
X194882Y280118D02*
D03*
X210630D02*
D03*
Y286811D02*
D03*
X188976Y317520D02*
D03*
Y324213D02*
D03*
X174500Y335653D02*
D03*
Y342347D02*
D03*
X174000Y300847D02*
D03*
Y294153D02*
D03*
X155512Y259252D02*
D03*
Y252559D02*
D03*
X163386D02*
D03*
Y259252D02*
D03*
X321500Y248346D02*
D03*
Y241653D02*
D03*
Y278153D02*
D03*
Y284846D02*
D03*
X368000Y277346D02*
D03*
Y270654D02*
D03*
X374500D02*
D03*
Y277346D02*
D03*
X365500Y313028D02*
D03*
Y319721D02*
D03*
Y329028D02*
D03*
Y335720D02*
D03*
X386000Y334653D02*
D03*
Y341347D02*
D03*
X369017Y359154D02*
D03*
Y365846D02*
D03*
X387000Y377654D02*
D03*
Y384347D02*
D03*
X371000Y400347D02*
D03*
Y393653D02*
D03*
X428000Y336307D02*
D03*
Y343000D02*
D03*
X432517Y362653D02*
D03*
X451500Y379153D02*
D03*
Y385846D02*
D03*
X432517Y369346D02*
D03*
X473517Y370654D02*
D03*
Y377346D02*
D03*
X481517D02*
D03*
Y370654D02*
D03*
X489517D02*
D03*
Y377346D02*
D03*
X427500Y452852D02*
D03*
Y459546D02*
D03*
X310500Y461346D02*
D03*
Y454654D02*
D03*
X230000Y443347D02*
D03*
Y436654D02*
D03*
X207500Y408847D02*
D03*
Y402153D02*
D03*
X185000Y436654D02*
D03*
Y443347D02*
D03*
X433500Y278346D02*
D03*
Y271654D02*
D03*
X451500Y287154D02*
D03*
Y293847D02*
D03*
X473500Y279847D02*
D03*
Y273153D02*
D03*
X481500D02*
D03*
Y279847D02*
D03*
X489500D02*
D03*
Y273153D02*
D03*
G54D123*
X311000Y346398D02*
D03*
X390000Y234398D02*
D03*
G54D124*
X311000Y333602D02*
D03*
X390000Y221602D02*
D03*
G54D125*
X387331Y397000D02*
D03*
X378669Y400740D02*
D03*
Y393260D02*
D03*
G54D126*
X208705Y293000D02*
D03*
Y320000D02*
D03*
X199295Y369500D02*
D03*
Y410000D02*
D03*
X393205Y333000D02*
D03*
G54D127*
X234295Y293000D02*
D03*
Y303000D02*
D03*
Y320000D02*
D03*
Y330000D02*
D03*
X208705D02*
D03*
Y303000D02*
D03*
X199295Y359500D02*
D03*
X173705Y369500D02*
D03*
Y359500D02*
D03*
X199295Y400000D02*
D03*
X173705D02*
D03*
Y410000D02*
D03*
X393205Y343000D02*
D03*
X418795Y333000D02*
D03*
Y343000D02*
D03*
G54D128*
X205654Y196500D02*
D03*
X212347D02*
D03*
X288653Y233000D02*
D03*
X295346D02*
D03*
X305307D02*
D03*
X312000D02*
D03*
X325307Y258000D02*
D03*
X332000D02*
D03*
Y268000D02*
D03*
X325307D02*
D03*
X310347Y293000D02*
D03*
X303654D02*
D03*
X295346D02*
D03*
X288653D02*
D03*
X276847Y298500D02*
D03*
X270153D02*
D03*
X269847Y290500D02*
D03*
X263154D02*
D03*
X254346Y291000D02*
D03*
X247654D02*
D03*
X279153Y311500D02*
D03*
X285846D02*
D03*
X355153Y359000D02*
D03*
X361846D02*
D03*
X372654Y335374D02*
D03*
X379346D02*
D03*
X362000Y393000D02*
D03*
X355307D02*
D03*
X336347Y392000D02*
D03*
X329654D02*
D03*
X331153Y440500D02*
D03*
X337846D02*
D03*
X324346D02*
D03*
X317653D02*
D03*
X311347D02*
D03*
X304654D02*
D03*
X298847D02*
D03*
X292154D02*
D03*
X206347Y392000D02*
D03*
X199653D02*
D03*
Y351000D02*
D03*
X206347D02*
D03*
X189347Y335500D02*
D03*
X182653D02*
D03*
X182153Y301000D02*
D03*
X188847D02*
D03*
X417154Y440500D02*
D03*
X423846D02*
D03*
X430955D02*
D03*
X437647D02*
D03*
X444756D02*
D03*
X451448D02*
D03*
X458653D02*
D03*
X465346D02*
D03*
X451653Y335000D02*
D03*
X458347D02*
D03*
G54D129*
X222000Y225400D02*
D03*
Y236600D02*
D03*
X282000Y344900D02*
D03*
Y356100D02*
D03*
X346000Y392400D02*
D03*
Y403600D02*
D03*
X346500Y438900D02*
D03*
Y450100D02*
D03*
X344000Y469400D02*
D03*
Y480600D02*
D03*
X442500Y390600D02*
D03*
Y379400D02*
D03*
Y298600D02*
D03*
Y287400D02*
D03*
X448000Y472400D02*
D03*
Y483600D02*
D03*
G54D130*
X348102Y277500D02*
D03*
X307602Y392000D02*
D03*
G54D131*
X360898Y277500D02*
D03*
X320398Y392000D02*
D03*
G54D132*
X201181Y307283D02*
D03*
X192520Y311024D02*
D03*
G54D133*
X201181Y314764D02*
D03*
G54D134*
X197047Y261417D02*
D03*
X200787Y270079D02*
D03*
G54D135*
X204528Y261417D02*
D03*
G54D136*
X179760Y287224D02*
D03*
X173425Y327559D02*
D03*
X380240Y319650D02*
D03*
G54D137*
X179760Y277776D02*
D03*
X187240D02*
D03*
Y287224D02*
D03*
X183500D02*
D03*
X180905Y318110D02*
D03*
Y327559D02*
D03*
X177165D02*
D03*
X173425Y318110D02*
D03*
X372760Y319650D02*
D03*
X376500D02*
D03*
X372760Y329098D02*
D03*
X380240D02*
D03*
G54D138*
X442220Y357000D02*
D03*
X442870Y263000D02*
D03*
G54D139*
X442220Y362000D02*
D03*
Y367000D02*
D03*
Y372000D02*
D03*
X463480Y367000D02*
D03*
Y362000D02*
D03*
Y357000D02*
D03*
Y372000D02*
D03*
X442870Y278000D02*
D03*
Y273000D02*
D03*
Y268000D02*
D03*
X464130Y263000D02*
D03*
Y268000D02*
D03*
Y273000D02*
D03*
Y278000D02*
D03*
G54D140*
X453500Y270500D02*
D03*
X452850Y364500D02*
D03*
G54D141*
X383449Y268500D02*
D03*
X381741Y357500D02*
D03*
G54D142*
X383449Y273500D02*
D03*
Y278500D02*
D03*
X424000D02*
D03*
Y273500D02*
D03*
Y268500D02*
D03*
X422292Y357500D02*
D03*
Y362500D02*
D03*
Y367500D02*
D03*
X381741D02*
D03*
Y362500D02*
D03*
G54D143*
X343000Y313744D02*
D03*
X348000D02*
D03*
X353000D02*
D03*
X358000Y335004D02*
D03*
X353000D02*
D03*
X348000D02*
D03*
X343000D02*
D03*
G54D144*
X358000Y313744D02*
D03*
G54D145*
X211600Y225000D02*
D03*
X200400D02*
D03*
X189100Y269000D02*
D03*
X177900D02*
D03*
X184734Y309055D02*
D03*
X173534D02*
D03*
X333400Y460500D02*
D03*
X344600D02*
D03*
X377300Y470500D02*
D03*
X388500D02*
D03*
X405599Y468500D02*
D03*
X416799D02*
D03*
X427400D02*
D03*
X438600D02*
D03*
X448400Y461000D02*
D03*
X459600D02*
D03*
X465400Y432000D02*
D03*
X476600D02*
D03*
X425100Y379500D02*
D03*
X413900D02*
D03*
X438900Y347000D02*
D03*
X450100D02*
D03*
X425100Y290500D02*
D03*
X413900D02*
D03*
X438900Y254500D02*
D03*
X450100D02*
D03*
X454419Y234252D02*
D03*
X443219D02*
D03*
X321600Y469500D02*
D03*
X310400D02*
D03*
X300100D02*
D03*
X288900D02*
D03*
X269600Y470000D02*
D03*
X258400D02*
D03*
G54D146*
X266000Y359858D02*
D03*
X249645D02*
D03*
G54D147*
X266000Y342142D02*
D03*
X249645D02*
D03*
G54D148*
X147000Y357421D02*
D03*
X145500Y397421D02*
D03*
G54D149*
X147000Y372579D02*
D03*
X145500Y412579D02*
D03*
G54D150*
X473421Y262500D02*
D03*
X473438Y360000D02*
D03*
X242579Y475000D02*
D03*
G54D151*
X227421Y475000D02*
D03*
X488579Y262500D02*
D03*
X488595Y360000D02*
D03*
G54D152*
X219500Y202248D02*
D03*
X290500D02*
D03*
X299500D02*
D03*
G54D153*
X219500Y195752D02*
D03*
X290500D02*
D03*
X299500D02*
D03*
G54D154*
X252276Y298760D02*
D03*
Y306240D02*
D03*
X261724Y302500D02*
D03*
Y298760D02*
D03*
G54D155*
X261724Y306240D02*
D03*
G54D156*
X232000Y224594D02*
D03*
Y236405D02*
D03*
X333500Y469095D02*
D03*
Y480905D02*
D03*
X459000Y472094D02*
D03*
Y483906D02*
D03*
G54D157*
X212598Y214567D02*
D03*
X200787D02*
D03*
X389405Y435500D02*
D03*
X377594D02*
D03*
X442913Y224410D02*
D03*
X454724D02*
D03*
M02*
