G04*
G04 #@! TF.GenerationSoftware,Altium Limited,Altium Designer,21.3.2 (30)*
G04*
G04 Layer_Physical_Order=1*
G04 Layer_Color=255*
%FSLAX25Y25*%
%MOIN*%
G70*
G04*
G04 #@! TF.SameCoordinates,82E3065C-4493-458C-8774-CE3C9F48797D*
G04*
G04*
G04 #@! TF.FilePolarity,Positive*
G04*
G01*
G75*
%ADD10C,0.01000*%
%ADD14C,0.01500*%
%ADD17R,0.06000X0.04000*%
%ADD47C,0.05000*%
%ADD48C,0.02000*%
%ADD49C,0.08000*%
%ADD50C,0.12000*%
%ADD51C,0.08500*%
%ADD52C,0.20000*%
%ADD53C,0.03000*%
%ADD54C,0.18000*%
%ADD55P,0.05540X8X22.5*%
%ADD56C,0.05118*%
%ADD57C,0.07874*%
%ADD58P,0.05540X8X292.5*%
%ADD59C,0.05512*%
%ADD60C,0.11811*%
%ADD61C,0.12992*%
%ADD62P,0.14063X8X22.5*%
%ADD63O,0.10630X0.08819*%
%ADD64C,0.09055*%
%ADD65C,0.07087*%
%ADD66C,0.06000*%
%ADD67P,0.06494X8X22.5*%
%ADD68C,0.06500*%
G04:AMPARAMS|DCode=69|XSize=65mil|YSize=65mil|CornerRadius=3.25mil|HoleSize=0mil|Usage=FLASHONLY|Rotation=180.000|XOffset=0mil|YOffset=0mil|HoleType=Round|Shape=RoundedRectangle|*
%AMROUNDEDRECTD69*
21,1,0.06500,0.05850,0,0,180.0*
21,1,0.05850,0.06500,0,0,180.0*
1,1,0.00650,-0.02925,0.02925*
1,1,0.00650,0.02925,0.02925*
1,1,0.00650,0.02925,-0.02925*
1,1,0.00650,-0.02925,-0.02925*
%
%ADD69ROUNDEDRECTD69*%
%ADD70P,0.12784X8X292.5*%
G04:AMPARAMS|DCode=71|XSize=65mil|YSize=65mil|CornerRadius=3.25mil|HoleSize=0mil|Usage=FLASHONLY|Rotation=90.000|XOffset=0mil|YOffset=0mil|HoleType=Round|Shape=RoundedRectangle|*
%AMROUNDEDRECTD71*
21,1,0.06500,0.05850,0,0,90.0*
21,1,0.05850,0.06500,0,0,90.0*
1,1,0.00650,0.02925,0.02925*
1,1,0.00650,0.02925,-0.02925*
1,1,0.00650,-0.02925,-0.02925*
1,1,0.00650,-0.02925,0.02925*
%
%ADD71ROUNDEDRECTD71*%
%ADD72C,0.09843*%
G04:AMPARAMS|DCode=73|XSize=98.43mil|YSize=98.43mil|CornerRadius=9.84mil|HoleSize=0mil|Usage=FLASHONLY|Rotation=0.000|XOffset=0mil|YOffset=0mil|HoleType=Round|Shape=RoundedRectangle|*
%AMROUNDEDRECTD73*
21,1,0.09843,0.07874,0,0,0.0*
21,1,0.07874,0.09843,0,0,0.0*
1,1,0.01968,0.03937,-0.03937*
1,1,0.01968,-0.03937,-0.03937*
1,1,0.01968,-0.03937,0.03937*
1,1,0.01968,0.03937,0.03937*
%
%ADD73ROUNDEDRECTD73*%
%ADD74C,0.06299*%
%ADD75P,0.12784X8X202.5*%
%ADD76P,0.14063X8X292.5*%
%ADD77C,0.09449*%
%ADD78O,0.05906X0.04724*%
%ADD79O,0.06400X0.09000*%
%ADD80R,0.06400X0.09000*%
%ADD81C,0.17717*%
%ADD82C,0.04500*%
%ADD83C,0.02598*%
G36*
X692913Y451728D02*
Y446536D01*
X692365Y446200D01*
X691119Y445136D01*
X690056Y443891D01*
X689200Y442494D01*
X688573Y440981D01*
X688191Y439389D01*
X688062Y437756D01*
X688191Y436123D01*
X688573Y434530D01*
X689200Y433017D01*
X690056Y431621D01*
X691119Y430375D01*
X692365Y429312D01*
X692913Y428975D01*
X692913Y422033D01*
X691845Y421156D01*
X690938Y420051D01*
X690264Y418790D01*
X689849Y417422D01*
X689709Y416000D01*
X689849Y414578D01*
X690264Y413210D01*
X690938Y411949D01*
X691845Y410845D01*
X692913Y409967D01*
Y407480D01*
Y362205D01*
X728346D01*
Y222441D01*
X685039D01*
X669291Y206693D01*
Y187008D01*
X567000D01*
Y230458D01*
X567371Y230794D01*
X568047Y230727D01*
X569701Y230890D01*
X571292Y231372D01*
X572757Y232156D01*
X574042Y233210D01*
X575096Y234495D01*
X575880Y235960D01*
X576362Y237551D01*
X576525Y239205D01*
X576362Y240859D01*
X575880Y242449D01*
X575096Y243915D01*
X574042Y245199D01*
X572757Y246254D01*
X571292Y247037D01*
X569701Y247520D01*
X568047Y247682D01*
X567371Y247616D01*
X567000Y247952D01*
Y259226D01*
X567471Y259394D01*
X567958Y258801D01*
X569243Y257746D01*
X570708Y256963D01*
X572299Y256480D01*
X573953Y256317D01*
X575607Y256480D01*
X577197Y256963D01*
X578663Y257746D01*
X579362Y258320D01*
X579803Y258085D01*
X579795Y258000D01*
X579969Y256230D01*
X580485Y254529D01*
X581324Y252960D01*
X582452Y251586D01*
X583826Y250458D01*
X585395Y249619D01*
X587096Y249103D01*
X588866Y248929D01*
X590636Y249103D01*
X592338Y249619D01*
X593906Y250458D01*
X595281Y251586D01*
X596409Y252960D01*
X597247Y254529D01*
X597763Y256230D01*
X597937Y258000D01*
X597763Y259770D01*
X597247Y261471D01*
X596409Y263040D01*
X595281Y264414D01*
X593906Y265543D01*
X592338Y266381D01*
X590636Y266897D01*
X588866Y267071D01*
X587096Y266897D01*
X585395Y266381D01*
X583826Y265543D01*
X582914Y264793D01*
X582910Y264794D01*
X582408Y265025D01*
X582268Y266449D01*
X581785Y268040D01*
X581002Y269505D01*
X579948Y270790D01*
X578663Y271844D01*
X577197Y272628D01*
X575607Y273110D01*
X573953Y273273D01*
X572299Y273110D01*
X570708Y272628D01*
X569243Y271844D01*
X567958Y270790D01*
X567471Y270196D01*
X567000Y270365D01*
Y332000D01*
X552498D01*
X551862Y332636D01*
X550673Y333430D01*
X549353Y333977D01*
X547951Y334256D01*
X546522D01*
X545120Y333977D01*
X543799Y333430D01*
X542611Y332636D01*
X541975Y332000D01*
X519000D01*
Y428000D01*
X544000D01*
X550924Y421076D01*
X551225Y420585D01*
X552707Y418849D01*
X562550Y409007D01*
X564285Y407524D01*
X565025Y407071D01*
X566231Y406332D01*
X567286Y405895D01*
X568340Y405458D01*
X569450Y405192D01*
X570559Y404926D01*
X572000Y404812D01*
D01*
X572835Y404746D01*
X585122D01*
X585222Y404247D01*
X584212Y403828D01*
X583058Y402942D01*
X582172Y401788D01*
X581615Y400443D01*
X581524Y399750D01*
X587000D01*
X592477D01*
X592385Y400443D01*
X591828Y401788D01*
X590942Y402942D01*
X589788Y403828D01*
X588778Y404247D01*
X588877Y404746D01*
X606299D01*
X608574Y404926D01*
X610794Y405458D01*
X611848Y405895D01*
X612902Y406332D01*
X614849Y407524D01*
X616584Y409007D01*
X657060Y449483D01*
X675457D01*
X675617Y449009D01*
X675530Y448942D01*
X674644Y447788D01*
X674087Y446443D01*
X673996Y445750D01*
X679472D01*
X684949D01*
X684858Y446443D01*
X684301Y447788D01*
X683415Y448942D01*
X683327Y449009D01*
X683488Y449483D01*
X684276D01*
X686552Y449662D01*
X688771Y450195D01*
X689825Y450631D01*
X690880Y451068D01*
X692413Y452008D01*
X692913Y451728D01*
D02*
G37*
%LPC*%
G36*
X684949Y444250D02*
X680223D01*
Y439524D01*
X680915Y439615D01*
X682260Y440172D01*
X683415Y441058D01*
X684301Y442212D01*
X684858Y443557D01*
X684949Y444250D01*
D02*
G37*
G36*
X678722D02*
X673996D01*
X674087Y443557D01*
X674644Y442212D01*
X675530Y441058D01*
X676685Y440172D01*
X678029Y439615D01*
X678722Y439524D01*
Y444250D01*
D02*
G37*
G36*
X662583Y444661D02*
X659880D01*
Y438506D01*
X666035D01*
Y441209D01*
X662583Y444661D01*
D02*
G37*
G36*
X658380D02*
X655677D01*
X652224Y441209D01*
Y438506D01*
X658380D01*
Y444661D01*
D02*
G37*
G36*
X666035Y437006D02*
X659880D01*
Y430850D01*
X662583D01*
X666035Y434303D01*
Y437006D01*
D02*
G37*
G36*
X658380D02*
X652224D01*
Y434303D01*
X655677Y430850D01*
X658380D01*
Y437006D01*
D02*
G37*
G36*
X668222Y419690D02*
Y416750D01*
X671162D01*
X671132Y416981D01*
X670753Y417894D01*
X670151Y418679D01*
X669367Y419281D01*
X668453Y419659D01*
X668222Y419690D01*
D02*
G37*
G36*
X666722D02*
X666492Y419659D01*
X665578Y419281D01*
X664794Y418679D01*
X664192Y417894D01*
X663813Y416981D01*
X663783Y416750D01*
X666722D01*
Y419690D01*
D02*
G37*
G36*
X671162Y415250D02*
X668222D01*
Y412310D01*
X668453Y412341D01*
X669367Y412719D01*
X670151Y413321D01*
X670753Y414106D01*
X671132Y415020D01*
X671162Y415250D01*
D02*
G37*
G36*
X666722D02*
X663783D01*
X663813Y415020D01*
X664192Y414106D01*
X664794Y413321D01*
X665578Y412719D01*
X666492Y412341D01*
X666722Y412310D01*
Y415250D01*
D02*
G37*
G36*
X655250Y404902D02*
X654557Y404810D01*
X653212Y404253D01*
X652058Y403368D01*
X651172Y402213D01*
X650615Y400868D01*
X650524Y400175D01*
X655250D01*
Y404902D01*
D02*
G37*
G36*
X656750D02*
Y399907D01*
X661943D01*
X661845Y400652D01*
X661268Y402044D01*
X660350Y403240D01*
X659155Y404158D01*
X657762Y404735D01*
X657563Y404761D01*
X657443Y404810D01*
X656750Y404902D01*
D02*
G37*
G36*
X656268Y399425D02*
X656000D01*
Y399158D01*
X656268D01*
Y399425D01*
D02*
G37*
G36*
X592477Y398250D02*
X587750D01*
Y393524D01*
X588443Y393615D01*
X589788Y394172D01*
X590942Y395058D01*
X591828Y396212D01*
X592385Y397557D01*
X592477Y398250D01*
D02*
G37*
G36*
X586250D02*
X581524D01*
X581615Y397557D01*
X582172Y396212D01*
X583058Y395058D01*
X584212Y394172D01*
X585557Y393615D01*
X586250Y393524D01*
Y398250D01*
D02*
G37*
G36*
X661943Y398408D02*
X657018D01*
Y393482D01*
X657762Y393580D01*
X659155Y394157D01*
X660350Y395075D01*
X661268Y396271D01*
X661845Y397663D01*
X661943Y398408D01*
D02*
G37*
G36*
X655518Y398384D02*
X650524D01*
X650615Y397691D01*
X651172Y396346D01*
X652058Y395192D01*
X652149Y395121D01*
X652185Y395075D01*
X653381Y394157D01*
X654773Y393580D01*
X655518Y393482D01*
Y398384D01*
D02*
G37*
G36*
X548909Y408382D02*
X547091D01*
X545309Y408027D01*
X543631Y407332D01*
X542120Y406322D01*
X540835Y405038D01*
X539825Y403527D01*
X539130Y401848D01*
X538776Y400066D01*
Y398249D01*
X539130Y396467D01*
X539825Y394788D01*
X540835Y393277D01*
X542120Y391992D01*
X543631Y390983D01*
X545309Y390288D01*
X547091Y389933D01*
X548909D01*
X550691Y390288D01*
X552369Y390983D01*
X553880Y391992D01*
X555165Y393277D01*
X556175Y394788D01*
X556870Y396467D01*
X557224Y398249D01*
Y400066D01*
X556870Y401848D01*
X556175Y403527D01*
X555165Y405038D01*
X553880Y406322D01*
X552369Y407332D01*
X550691Y408027D01*
X548909Y408382D01*
D02*
G37*
G36*
X657018Y364675D02*
Y359750D01*
X661943D01*
X661845Y360494D01*
X661268Y361887D01*
X660350Y363083D01*
X659155Y364000D01*
X657762Y364577D01*
X657018Y364675D01*
D02*
G37*
G36*
X655518D02*
X654773Y364577D01*
X653381Y364000D01*
X652185Y363083D01*
X651267Y361887D01*
X650691Y360494D01*
X650593Y359750D01*
X655518D01*
Y364675D01*
D02*
G37*
G36*
Y358250D02*
X650593D01*
X650691Y357506D01*
X651267Y356113D01*
X652185Y354917D01*
X653381Y354000D01*
X654773Y353423D01*
X655518Y353325D01*
Y358250D01*
D02*
G37*
G36*
X664750Y356744D02*
Y352018D01*
X669477D01*
X669385Y352711D01*
X668828Y354055D01*
X667942Y355210D01*
X666788Y356096D01*
X665443Y356653D01*
X664750Y356744D01*
D02*
G37*
G36*
X661943Y358250D02*
X657018D01*
Y353325D01*
X657762Y353423D01*
X658544Y353747D01*
X658897Y353393D01*
X658615Y352711D01*
X658524Y352018D01*
X663250D01*
Y356744D01*
X662557Y356653D01*
X661874Y356370D01*
X661521Y356724D01*
X661845Y357506D01*
X661943Y358250D01*
D02*
G37*
G36*
X548909Y368224D02*
X547091D01*
X545309Y367870D01*
X543631Y367175D01*
X542120Y366165D01*
X540835Y364880D01*
X539825Y363369D01*
X539130Y361691D01*
X538776Y359909D01*
Y358091D01*
X539130Y356309D01*
X539825Y354631D01*
X540835Y353120D01*
X542120Y351835D01*
X543631Y350825D01*
X545309Y350130D01*
X547091Y349776D01*
X548909D01*
X550691Y350130D01*
X552369Y350825D01*
X553880Y351835D01*
X555165Y353120D01*
X556175Y354631D01*
X556870Y356309D01*
X557224Y358091D01*
Y359909D01*
X556870Y361691D01*
X556175Y363369D01*
X555165Y364880D01*
X553880Y366165D01*
X552369Y367175D01*
X550691Y367870D01*
X548909Y368224D01*
D02*
G37*
G36*
X669477Y350518D02*
X664750D01*
Y345791D01*
X665443Y345882D01*
X666788Y346439D01*
X667942Y347325D01*
X668828Y348480D01*
X669385Y349825D01*
X669477Y350518D01*
D02*
G37*
G36*
X663250D02*
X658524D01*
X658615Y349825D01*
X659172Y348480D01*
X660058Y347325D01*
X661212Y346439D01*
X662557Y345882D01*
X663250Y345791D01*
Y350518D01*
D02*
G37*
G36*
X576764Y334291D02*
X575341Y334151D01*
X573974Y333736D01*
X572713Y333062D01*
X571885Y332383D01*
X571502Y332000D01*
X571481D01*
X570702Y331051D01*
X570028Y329790D01*
X569613Y328422D01*
X569473Y327000D01*
X569613Y325578D01*
X570028Y324210D01*
X570702Y322949D01*
X571608Y321845D01*
X572713Y320938D01*
X573974Y320264D01*
X575341Y319849D01*
X576764Y319709D01*
X578186Y319849D01*
X579554Y320264D01*
X580815Y320938D01*
X581919Y321845D01*
X582826Y322949D01*
X583500Y324210D01*
X583915Y325578D01*
X584055Y327000D01*
X583915Y328422D01*
X583500Y329790D01*
X582826Y331051D01*
X581919Y332155D01*
X580815Y333062D01*
X579554Y333736D01*
X578186Y334151D01*
X576764Y334291D01*
D02*
G37*
G36*
X656000Y299937D02*
X654230Y299763D01*
X652529Y299247D01*
X650960Y298409D01*
X649586Y297281D01*
X648457Y295906D01*
X647619Y294338D01*
X647103Y292636D01*
X646929Y290866D01*
X647103Y289096D01*
X647619Y287395D01*
X648457Y285826D01*
X649586Y284452D01*
X650960Y283324D01*
X652529Y282485D01*
X654230Y281969D01*
X656000Y281795D01*
X657770Y281969D01*
X659471Y282485D01*
X661040Y283324D01*
X662414Y284452D01*
X663543Y285826D01*
X664381Y287395D01*
X664897Y289096D01*
X665071Y290866D01*
X664897Y292636D01*
X664381Y294338D01*
X663543Y295906D01*
X662414Y297281D01*
X661040Y298409D01*
X659471Y299247D01*
X657770Y299763D01*
X656000Y299937D01*
D02*
G37*
G36*
X587000Y299803D02*
X585230Y299629D01*
X583529Y299113D01*
X581960Y298275D01*
X580586Y297147D01*
X579458Y295772D01*
X578619Y294204D01*
X578103Y292502D01*
X577929Y290732D01*
X578103Y288963D01*
X578619Y287261D01*
X579458Y285693D01*
X580586Y284318D01*
X581960Y283190D01*
X583529Y282351D01*
X585230Y281835D01*
X587000Y281661D01*
X588770Y281835D01*
X590471Y282351D01*
X592040Y283190D01*
X593414Y284318D01*
X594543Y285693D01*
X595381Y287261D01*
X595897Y288963D01*
X596071Y290732D01*
X595897Y292502D01*
X595381Y294204D01*
X594543Y295772D01*
X593414Y297147D01*
X592040Y298275D01*
X590471Y299113D01*
X588770Y299629D01*
X587000Y299803D01*
D02*
G37*
G36*
X697884Y263476D02*
Y258750D01*
X702610D01*
X702519Y259443D01*
X701962Y260788D01*
X701076Y261942D01*
X699922Y262828D01*
X698577Y263385D01*
X697884Y263476D01*
D02*
G37*
G36*
X696384Y263476D02*
X695691Y263385D01*
X694346Y262828D01*
X693192Y261942D01*
X692306Y260788D01*
X691749Y259443D01*
X691657Y258750D01*
X696384D01*
Y263476D01*
D02*
G37*
G36*
Y257250D02*
X691657D01*
X691749Y256557D01*
X692306Y255212D01*
X693192Y254058D01*
X694346Y253172D01*
X695691Y252615D01*
X696384Y252523D01*
Y257250D01*
D02*
G37*
G36*
X702610D02*
X697884D01*
Y252523D01*
X698577Y252615D01*
X699922Y253172D01*
X701076Y254058D01*
X701962Y255212D01*
X702519Y256557D01*
X702610Y257250D01*
D02*
G37*
G36*
X664000Y252071D02*
X662230Y251897D01*
X660529Y251381D01*
X658960Y250542D01*
X657586Y249414D01*
X656458Y248040D01*
X655619Y246471D01*
X655103Y244770D01*
X654929Y243000D01*
X655103Y241230D01*
X655619Y239529D01*
X656458Y237960D01*
X657586Y236586D01*
X658960Y235457D01*
X660529Y234619D01*
X662230Y234103D01*
X664000Y233929D01*
X665770Y234103D01*
X667471Y234619D01*
X669040Y235457D01*
X670414Y236586D01*
X671543Y237960D01*
X672381Y239529D01*
X672897Y241230D01*
X673071Y243000D01*
X672897Y244770D01*
X672381Y246471D01*
X671543Y248040D01*
X670414Y249414D01*
X669040Y250542D01*
X667471Y251381D01*
X665770Y251897D01*
X664000Y252071D01*
D02*
G37*
G36*
X656000Y211646D02*
X654230Y211472D01*
X652529Y210956D01*
X650960Y210117D01*
X649586Y208989D01*
X648457Y207614D01*
X647619Y206046D01*
X647103Y204345D01*
X646929Y202575D01*
X647103Y200805D01*
X647619Y199103D01*
X648457Y197535D01*
X649586Y196160D01*
X650960Y195032D01*
X652529Y194194D01*
X654230Y193678D01*
X656000Y193504D01*
X657770Y193678D01*
X659471Y194194D01*
X661040Y195032D01*
X662414Y196160D01*
X663543Y197535D01*
X664381Y199103D01*
X664897Y200805D01*
X665071Y202575D01*
X664897Y204345D01*
X664381Y206046D01*
X663543Y207614D01*
X662414Y208989D01*
X661040Y210117D01*
X659471Y210956D01*
X657770Y211472D01*
X656000Y211646D01*
D02*
G37*
%LPD*%
G54D10*
X371000Y331000D02*
Y373000D01*
X366000Y378000D01*
X355000D01*
X366000Y383000D02*
X374000Y375000D01*
Y332000D01*
X398126Y307874D01*
Y196843D01*
X390000Y241000D02*
Y312000D01*
X371000Y331000D01*
X412118Y305118D02*
X433071D01*
X412118D02*
X407000Y300000D01*
X366000Y383000D02*
X347000D01*
G54D14*
X180500Y186500D02*
X188000Y194000D01*
X204500D01*
X211492Y187008D01*
X216535D01*
X234252Y192281D02*
X239784Y186750D01*
X243721Y195768D02*
X271280D01*
X276268D01*
X279500Y199000D01*
X309000D01*
X311732Y196268D01*
X345779D01*
X349716Y204250D02*
Y209953D01*
Y204250D02*
X314283D01*
X275217D01*
X239784D01*
X259842Y210630D02*
X261811Y208661D01*
X259842Y210630D02*
X236221D01*
X234252Y208661D01*
Y192281D01*
X192913Y214567D02*
X198819Y220472D01*
X271654D01*
X277559Y214567D01*
X334646D01*
X349079Y229000D01*
X356000D01*
X328740Y240158D02*
Y273622D01*
X320866Y291339D02*
Y240158D01*
X314961Y234252D01*
Y226378D01*
X313653Y248000D02*
Y265087D01*
X308703Y270037D01*
Y289019D01*
X311000Y291315D01*
Y298000D01*
X313000Y300000D01*
Y306000D01*
X311000Y308000D01*
Y327580D01*
X285846Y360650D02*
X291339Y366142D01*
X285846Y360650D02*
Y317342D01*
X292494Y310695D01*
Y285807D01*
X288703Y282017D01*
Y274650D01*
X289370Y273983D01*
Y261811D01*
X288653Y255000D02*
X270000D01*
X267000Y258000D01*
X254000D01*
X252500Y236500D02*
X271000D01*
X273654Y239154D01*
Y248000D01*
X252500Y236500D02*
X235500Y253500D01*
X207500D01*
X190500Y236500D01*
X147638Y269685D02*
X159449Y257874D01*
Y226378D01*
X155512Y222441D01*
X147638Y269685D02*
Y295276D01*
X151929Y335000D02*
X160748D01*
X151929D02*
X141732Y324803D01*
X266161Y185925D02*
X274392D01*
X275217Y186750D01*
X307345D02*
X314283D01*
X340986D02*
X349716D01*
X340986D02*
X340661Y186425D01*
X453500Y258000D02*
X457000Y254500D01*
X453500Y258000D02*
Y268138D01*
Y273256D01*
X419000Y326000D02*
X399000D01*
X409636Y351000D02*
X412636Y348000D01*
X413000D01*
X409636Y351000D02*
X396000D01*
X452850Y351650D02*
X457500Y347000D01*
X452850Y362138D02*
Y367256D01*
Y362138D02*
Y351650D01*
X431000Y441500D02*
Y455500D01*
X448000Y472500D01*
Y491801D01*
Y491881D01*
X441000Y458000D02*
X435000Y452000D01*
Y447000D01*
X431000Y441500D02*
X422500Y433000D01*
X417500D01*
X426500Y428500D02*
X406500D01*
X377500Y479500D02*
Y486500D01*
X374500Y489500D01*
X268500D01*
X258500Y479500D01*
X353000Y414000D02*
Y459500D01*
X357000Y463500D01*
G54D17*
X239784Y186750D02*
D03*
Y204250D02*
D03*
X275217Y186750D02*
D03*
Y204250D02*
D03*
X314283Y186750D02*
D03*
Y204250D02*
D03*
X349716Y186750D02*
D03*
Y204250D02*
D03*
G54D47*
X177400Y262500D02*
Y298348D01*
X199848D01*
X207500Y306000D01*
Y350500D01*
X220500Y363500D01*
X233500D01*
X177400Y298348D02*
X160748Y315000D01*
X310500Y447500D02*
X313000Y450000D01*
X333000D01*
X438000Y410500D02*
X456634Y429134D01*
X482189D01*
X497000Y443945D01*
X464547Y292705D02*
X464500Y292657D01*
Y285528D01*
Y256000D02*
X475000Y245500D01*
X482500D01*
G54D48*
X263653Y278000D02*
Y291213D01*
X275441Y303000D01*
X287000D01*
X362000Y300374D02*
Y344374D01*
X386000Y349000D02*
Y372000D01*
X380000Y378000D01*
X347000Y383000D02*
X224000D01*
X200787Y359787D01*
Y342520D01*
X218000Y392000D02*
X301000D01*
X433000Y290500D02*
X438000Y295500D01*
Y308000D01*
X467000Y453000D02*
X448000Y472000D01*
Y472500D01*
G54D49*
X477500Y205748D02*
X475909Y207339D01*
Y221099D01*
X472598Y224410D01*
G54D50*
X470453Y318295D02*
X475748D01*
X485000D01*
X496205D01*
X501500Y313000D01*
X496205D01*
X485000D01*
X485500Y312500D01*
Y265701D01*
X498906Y252295D01*
Y238705D01*
X497000Y236799D01*
Y206517D01*
X497500Y206016D01*
Y205748D01*
X485000Y313000D02*
X482500Y315500D01*
Y313000D02*
X475748D01*
X470453Y318295D01*
G54D51*
X440500Y189500D02*
X470000D01*
X470319Y189819D01*
X477000D01*
X559067D01*
X559248Y190000D01*
X614078D01*
X477500Y205748D02*
Y190319D01*
X477000Y189819D01*
X433591Y196409D02*
X440500Y189500D01*
X433591Y196409D02*
Y203157D01*
X432000Y204748D01*
G54D52*
X497000Y443945D02*
X520972Y419972D01*
X572835Y419291D02*
X606299D01*
X651035Y464028D01*
X684276D01*
X698500Y478251D01*
Y485000D01*
X706874D01*
X709000Y487126D01*
X572500Y474252D02*
X562992D01*
Y474409D01*
Y474252D02*
X552500D01*
X562992D02*
Y454724D01*
Y429134D01*
X572835Y419291D01*
G54D53*
X297000Y223000D02*
X303654Y229654D01*
Y248000D01*
Y278000D02*
Y286347D01*
X297000Y293000D01*
Y303000D01*
X501500Y283000D02*
X514000D01*
X517000Y286000D01*
Y299000D01*
X521000Y303000D01*
X532000D01*
G54D54*
X497000Y443945D02*
Y474252D01*
G54D55*
X390252Y196843D02*
D03*
G54D56*
X150591Y230315D02*
D03*
Y238189D02*
D03*
X140748D02*
D03*
Y246063D02*
D03*
Y230315D02*
D03*
X390252Y187000D02*
D03*
X398126D02*
D03*
X406000D02*
D03*
Y196843D02*
D03*
X398126D02*
D03*
G54D57*
X145669Y218504D02*
D03*
Y257874D02*
D03*
X243721Y195374D02*
D03*
X271280Y195768D02*
D03*
X318220Y195874D02*
D03*
X345779Y196268D02*
D03*
X378441Y191921D02*
D03*
X417811D02*
D03*
X464547Y292705D02*
D03*
X470453Y318295D02*
D03*
X464547Y388705D02*
D03*
X470453Y414295D02*
D03*
X573953Y264795D02*
D03*
X568047Y239205D02*
D03*
G54D58*
X150591Y246063D02*
D03*
G54D59*
X287000Y223000D02*
D03*
X297000D02*
D03*
X307000D02*
D03*
Y303000D02*
D03*
X297000D02*
D03*
X287000D02*
D03*
X464500Y256000D02*
D03*
Y285528D02*
D03*
Y349500D02*
D03*
Y379028D02*
D03*
X547236Y327000D02*
D03*
X576764D02*
D03*
X667472Y416000D02*
D03*
X697000D02*
D03*
X616142Y461614D02*
D03*
X596949Y440000D02*
D03*
X616142Y432087D02*
D03*
X567421Y440000D02*
D03*
G54D60*
X258000Y330500D02*
D03*
Y370500D02*
D03*
Y410500D02*
D03*
X438000D02*
D03*
X482500Y413500D02*
D03*
X531496Y452756D02*
D03*
X482500Y343500D02*
D03*
Y315500D02*
D03*
Y245500D02*
D03*
X531496Y204724D02*
D03*
X553000Y239000D02*
D03*
Y309000D02*
D03*
X698500Y437756D02*
D03*
Y485000D02*
D03*
X659130D02*
D03*
G54D61*
X160748Y275000D02*
D03*
Y315000D02*
D03*
Y355000D02*
D03*
Y395000D02*
D03*
Y435000D02*
D03*
X452000Y205748D02*
D03*
X497500D02*
D03*
X592500Y474252D02*
D03*
X552500D02*
D03*
X477000D02*
D03*
G54D62*
X432000Y205748D02*
D03*
X477500D02*
D03*
X612500Y474252D02*
D03*
X572500D02*
D03*
X497000D02*
D03*
G54D63*
X501500Y273000D02*
D03*
Y283000D02*
D03*
Y293000D02*
D03*
Y313000D02*
D03*
X532000Y273000D02*
D03*
Y293000D02*
D03*
Y303000D02*
D03*
Y313000D02*
D03*
X501500Y369500D02*
D03*
Y379500D02*
D03*
Y389500D02*
D03*
Y409500D02*
D03*
G54D64*
X230000Y425472D02*
D03*
Y455000D02*
D03*
X187874D02*
D03*
Y425472D02*
D03*
X588866Y258000D02*
D03*
X587000Y290732D02*
D03*
X656000Y290866D02*
D03*
X664000Y243000D02*
D03*
X697134Y258000D02*
D03*
X656000Y202575D02*
D03*
X664000Y351268D02*
D03*
X656000Y399134D02*
D03*
Y399425D02*
D03*
X679472Y445000D02*
D03*
X709000D02*
D03*
Y487126D02*
D03*
X679472D02*
D03*
X587000Y399000D02*
D03*
G54D65*
X248839Y185925D02*
D03*
X266161D02*
D03*
X323339Y186425D02*
D03*
X340661D02*
D03*
G54D66*
X437500Y479500D02*
D03*
X427500D02*
D03*
X417500D02*
D03*
X407500D02*
D03*
X387500D02*
D03*
X318500D02*
D03*
X308500D02*
D03*
X298500D02*
D03*
X288500D02*
D03*
X268500D02*
D03*
G54D67*
X377500Y479500D02*
D03*
X258500D02*
D03*
G54D68*
X232000Y247500D02*
D03*
X233000Y284000D02*
D03*
X232000Y353000D02*
D03*
Y363000D02*
D03*
X352000Y300374D02*
D03*
X362000D02*
D03*
X372000D02*
D03*
X472598Y224410D02*
D03*
G54D69*
X222000Y247500D02*
D03*
X342000Y300374D02*
D03*
X382000D02*
D03*
X462598Y224410D02*
D03*
G54D70*
X659130Y437756D02*
D03*
G54D71*
X233000Y274000D02*
D03*
X232000Y343000D02*
D03*
G54D72*
X180500Y186500D02*
D03*
X200500D02*
D03*
X210500Y236500D02*
D03*
X190500D02*
D03*
X170500D02*
D03*
X299000Y450000D02*
D03*
X418000D02*
D03*
G54D73*
X452000Y450000D02*
D03*
X333000D02*
D03*
G54D74*
X360000Y441815D02*
D03*
Y481185D02*
D03*
X289185Y450000D02*
D03*
X249815D02*
D03*
G54D75*
X438000Y330500D02*
D03*
G54D76*
X160748Y295000D02*
D03*
Y335000D02*
D03*
Y375000D02*
D03*
Y415000D02*
D03*
Y455000D02*
D03*
G54D77*
X548000Y359000D02*
D03*
Y399158D02*
D03*
X656268Y359000D02*
D03*
Y399158D02*
D03*
G54D78*
X227000Y194000D02*
D03*
Y204000D02*
D03*
X284000D02*
D03*
Y194000D02*
D03*
X306000D02*
D03*
Y204000D02*
D03*
G54D79*
X263653Y248000D02*
D03*
X273654D02*
D03*
X283653D02*
D03*
X293653D02*
D03*
X303654D02*
D03*
X313653D02*
D03*
Y278000D02*
D03*
X303654D02*
D03*
X293653D02*
D03*
X283653D02*
D03*
X273654D02*
D03*
X263653D02*
D03*
X253654D02*
D03*
G54D80*
X253654Y248000D02*
D03*
G54D81*
X155000Y200000D02*
D03*
Y480000D02*
D03*
X714685Y200000D02*
D03*
Y379000D02*
D03*
G54D82*
X216535Y187008D02*
D03*
X192913Y214567D02*
D03*
X177400Y262500D02*
D03*
X155512Y222441D02*
D03*
X147638Y295276D02*
D03*
X141732Y324803D02*
D03*
X200787Y342520D02*
D03*
X208661Y311024D02*
D03*
X254000Y258000D02*
D03*
X288653Y255000D02*
D03*
X289370Y261811D02*
D03*
X314961Y226378D02*
D03*
X328740Y240158D02*
D03*
X349716Y209953D02*
D03*
X356000Y229000D02*
D03*
X390000Y241000D02*
D03*
X433000Y290500D02*
D03*
X433071Y305118D02*
D03*
X438000Y308000D02*
D03*
X419000Y326000D02*
D03*
X413000Y348000D02*
D03*
X399000Y326000D02*
D03*
X396000Y351000D02*
D03*
X386000Y349000D02*
D03*
X380000Y378000D02*
D03*
X355000D02*
D03*
X362000Y344374D02*
D03*
X407000Y300000D02*
D03*
X457000Y254500D02*
D03*
X457500Y347000D02*
D03*
X559055Y438976D02*
D03*
X566929Y446850D02*
D03*
Y454724D02*
D03*
X559055D02*
D03*
Y446850D02*
D03*
X467000Y453000D02*
D03*
X441000Y458000D02*
D03*
X435000Y447000D02*
D03*
X426500Y428500D02*
D03*
X417500Y433000D02*
D03*
X406500Y428500D02*
D03*
X357000Y463500D02*
D03*
X353000Y414000D02*
D03*
X310500Y447500D02*
D03*
X301000Y392000D02*
D03*
X291339Y366142D02*
D03*
X311000Y328189D02*
D03*
X285846Y317342D02*
D03*
X320866Y291339D02*
D03*
X328740Y273622D02*
D03*
X326500Y204000D02*
D03*
X307345Y186750D02*
D03*
X261811Y208661D02*
D03*
X252000Y204500D02*
D03*
X218000Y392000D02*
D03*
X448000Y491801D02*
D03*
G54D83*
X450350Y265776D02*
D03*
Y270500D02*
D03*
Y275224D02*
D03*
X453500Y273256D02*
D03*
Y268138D02*
D03*
X456650Y270500D02*
D03*
Y265776D02*
D03*
Y275224D02*
D03*
X456000Y359776D02*
D03*
Y364500D02*
D03*
X452850Y362138D02*
D03*
Y367256D02*
D03*
X449701Y364500D02*
D03*
Y359776D02*
D03*
Y369224D02*
D03*
X456000D02*
D03*
M02*
