%TF.GenerationSoftware,Altium Limited,Altium Designer,21.3.2 (30)*%
G04 Layer_Physical_Order=1*
G04 Layer_Color=255*
%FSLAX26Y26*%
%MOIN*%
%TF.SameCoordinates,53465ED1-0DC7-484A-8DCD-68ECABD516C6*%
%TF.FilePolarity,Positive*%
%TF.FileFunction,Copper,L1,Top,Signal*%
%TF.Part,Single*%
G01*
G75*
%TA.AperFunction,SMDPad,CuDef*%
%ADD10R,0.060000X0.040000*%
%TA.AperFunction,Conductor*%
%ADD11C,0.010000*%
%ADD12C,0.050000*%
%ADD13C,0.020000*%
%ADD14C,0.080000*%
%ADD15C,0.015000*%
%ADD16C,0.120000*%
%ADD17C,0.085000*%
%ADD18C,0.200000*%
%ADD19C,0.030000*%
%ADD20C,0.180000*%
%TA.AperFunction,ComponentPad*%
G04:AMPARAMS|DCode=21|XSize=51.181mil|YSize=51.181mil|CornerRadius=0mil|HoleSize=0mil|Usage=FLASHONLY|Rotation=0.000|XOffset=0mil|YOffset=0mil|HoleType=Round|Shape=Octagon|*
%AMOCTAGOND21*
4,1,8,0.025591,-0.012795,0.025591,0.012795,0.012795,0.025591,-0.012795,0.025591,-0.025591,0.012795,-0.025591,-0.012795,-0.012795,-0.025591,0.012795,-0.025591,0.025591,-0.012795,0.0*
%
%ADD21OCTAGOND21*%

%ADD22C,0.051181*%
%ADD23C,0.078740*%
G04:AMPARAMS|DCode=24|XSize=51.181mil|YSize=51.181mil|CornerRadius=0mil|HoleSize=0mil|Usage=FLASHONLY|Rotation=270.000|XOffset=0mil|YOffset=0mil|HoleType=Round|Shape=Octagon|*
%AMOCTAGOND24*
4,1,8,-0.012795,-0.025591,0.012795,-0.025591,0.025591,-0.012795,0.025591,0.012795,0.012795,0.025591,-0.012795,0.025591,-0.025591,0.012795,-0.025591,-0.012795,-0.012795,-0.025591,0.0*
%
%ADD24OCTAGOND24*%

%ADD25C,0.055118*%
%ADD26C,0.118110*%
%ADD27C,0.129921*%
G04:AMPARAMS|DCode=28|XSize=129.921mil|YSize=129.921mil|CornerRadius=0mil|HoleSize=0mil|Usage=FLASHONLY|Rotation=0.000|XOffset=0mil|YOffset=0mil|HoleType=Round|Shape=Octagon|*
%AMOCTAGOND28*
4,1,8,0.064961,-0.032480,0.064961,0.032480,0.032480,0.064961,-0.032480,0.064961,-0.064961,0.032480,-0.064961,-0.032480,-0.032480,-0.064961,0.032480,-0.064961,0.064961,-0.032480,0.0*
%
%ADD28OCTAGOND28*%

%ADD29O,0.106299X0.088189*%
%ADD30C,0.090551*%
%ADD31C,0.070866*%
%ADD32C,0.060000*%
G04:AMPARAMS|DCode=33|XSize=60mil|YSize=60mil|CornerRadius=0mil|HoleSize=0mil|Usage=FLASHONLY|Rotation=0.000|XOffset=0mil|YOffset=0mil|HoleType=Round|Shape=Octagon|*
%AMOCTAGOND33*
4,1,8,0.030000,-0.015000,0.030000,0.015000,0.015000,0.030000,-0.015000,0.030000,-0.030000,0.015000,-0.030000,-0.015000,-0.015000,-0.030000,0.015000,-0.030000,0.030000,-0.015000,0.0*
%
%ADD33OCTAGOND33*%

%ADD34C,0.065000*%
G04:AMPARAMS|DCode=35|XSize=65mil|YSize=65mil|CornerRadius=3.25mil|HoleSize=0mil|Usage=FLASHONLY|Rotation=180.000|XOffset=0mil|YOffset=0mil|HoleType=Round|Shape=RoundedRectangle|*
%AMROUNDEDRECTD35*
21,1,0.065000,0.058500,0,0,180.0*
21,1,0.058500,0.065000,0,0,180.0*
1,1,0.006500,-0.029250,0.029250*
1,1,0.006500,0.029250,0.029250*
1,1,0.006500,0.029250,-0.029250*
1,1,0.006500,-0.029250,-0.029250*
%
%ADD35ROUNDEDRECTD35*%
G04:AMPARAMS|DCode=36|XSize=118.11mil|YSize=118.11mil|CornerRadius=0mil|HoleSize=0mil|Usage=FLASHONLY|Rotation=270.000|XOffset=0mil|YOffset=0mil|HoleType=Round|Shape=Octagon|*
%AMOCTAGOND36*
4,1,8,-0.029527,-0.059055,0.029527,-0.059055,0.059055,-0.029528,0.059055,0.029528,0.029527,0.059055,-0.029527,0.059055,-0.059055,0.029528,-0.059055,-0.029528,-0.029527,-0.059055,0.0*
%
%ADD36OCTAGOND36*%

G04:AMPARAMS|DCode=37|XSize=65mil|YSize=65mil|CornerRadius=3.25mil|HoleSize=0mil|Usage=FLASHONLY|Rotation=90.000|XOffset=0mil|YOffset=0mil|HoleType=Round|Shape=RoundedRectangle|*
%AMROUNDEDRECTD37*
21,1,0.065000,0.058500,0,0,90.0*
21,1,0.058500,0.065000,0,0,90.0*
1,1,0.006500,0.029250,0.029250*
1,1,0.006500,0.029250,-0.029250*
1,1,0.006500,-0.029250,-0.029250*
1,1,0.006500,-0.029250,0.029250*
%
%ADD37ROUNDEDRECTD37*%
%ADD38C,0.098425*%
G04:AMPARAMS|DCode=39|XSize=98.425mil|YSize=98.425mil|CornerRadius=9.842mil|HoleSize=0mil|Usage=FLASHONLY|Rotation=0.000|XOffset=0mil|YOffset=0mil|HoleType=Round|Shape=RoundedRectangle|*
%AMROUNDEDRECTD39*
21,1,0.098425,0.078740,0,0,0.0*
21,1,0.078740,0.098425,0,0,0.0*
1,1,0.019685,0.039370,-0.039370*
1,1,0.019685,-0.039370,-0.039370*
1,1,0.019685,-0.039370,0.039370*
1,1,0.019685,0.039370,0.039370*
%
%ADD39ROUNDEDRECTD39*%
%ADD40C,0.062992*%
G04:AMPARAMS|DCode=41|XSize=118.11mil|YSize=118.11mil|CornerRadius=0mil|HoleSize=0mil|Usage=FLASHONLY|Rotation=180.000|XOffset=0mil|YOffset=0mil|HoleType=Round|Shape=Octagon|*
%AMOCTAGOND41*
4,1,8,-0.059055,0.029527,-0.059055,-0.029527,-0.029528,-0.059055,0.029528,-0.059055,0.059055,-0.029527,0.059055,0.029527,0.029528,0.059055,-0.029528,0.059055,-0.059055,0.029527,0.0*
%
%ADD41OCTAGOND41*%

G04:AMPARAMS|DCode=42|XSize=129.921mil|YSize=129.921mil|CornerRadius=0mil|HoleSize=0mil|Usage=FLASHONLY|Rotation=270.000|XOffset=0mil|YOffset=0mil|HoleType=Round|Shape=Octagon|*
%AMOCTAGOND42*
4,1,8,-0.032480,-0.064961,0.032480,-0.064961,0.064961,-0.032480,0.064961,0.032480,0.032480,0.064961,-0.032480,0.064961,-0.064961,0.032480,-0.064961,-0.032480,-0.032480,-0.064961,0.0*
%
%ADD42OCTAGOND42*%

%ADD43C,0.094488*%
%ADD44O,0.059055X0.047244*%
%ADD45O,0.064000X0.090000*%
%ADD46R,0.064000X0.090000*%
%TA.AperFunction,WasherPad*%
%ADD47C,0.177165*%
%TA.AperFunction,ViaPad*%
%ADD48C,0.118110*%
%ADD49C,0.045000*%
%ADD50C,0.025984*%
G36*
X6929134Y4517279D02*
Y4465363D01*
X6923649Y4462002D01*
X6911194Y4451365D01*
X6900557Y4438910D01*
X6891999Y4424945D01*
X6885732Y4409813D01*
X6881908Y4393887D01*
X6880623Y4377559D01*
X6881908Y4361231D01*
X6885732Y4345305D01*
X6891999Y4330173D01*
X6900557Y4316208D01*
X6911194Y4303753D01*
X6923649Y4293116D01*
X6929134Y4289755D01*
X6929134Y4220327D01*
X6918445Y4211555D01*
X6909377Y4200507D01*
X6902640Y4187901D01*
X6898491Y4174224D01*
X6897090Y4160000D01*
X6898491Y4145776D01*
X6902640Y4132099D01*
X6909377Y4119493D01*
X6918445Y4108445D01*
X6929133Y4099673D01*
Y4074803D01*
Y3622047D01*
X7283465D01*
Y2224409D01*
X6850394D01*
X6692913Y2066929D01*
Y1870079D01*
X5670000D01*
Y2304578D01*
X5673705Y2307936D01*
X5680472Y2307269D01*
X5697012Y2308898D01*
X5712916Y2313722D01*
X5727573Y2321557D01*
X5740420Y2332100D01*
X5750963Y2344947D01*
X5758797Y2359604D01*
X5763622Y2375508D01*
X5765251Y2392047D01*
X5763622Y2408587D01*
X5758797Y2424490D01*
X5750963Y2439148D01*
X5740420Y2451994D01*
X5727573Y2462538D01*
X5712916Y2470372D01*
X5697012Y2475197D01*
X5680472Y2476825D01*
X5673705Y2476159D01*
X5670000Y2479517D01*
Y2592258D01*
X5674708Y2593943D01*
X5679580Y2588006D01*
X5692427Y2577462D01*
X5707084Y2569628D01*
X5722988Y2564803D01*
X5739528Y2563175D01*
X5756067Y2564803D01*
X5771971Y2569628D01*
X5786628Y2577462D01*
X5793623Y2583203D01*
X5798032Y2580846D01*
X5797949Y2580000D01*
X5799692Y2562303D01*
X5804854Y2545286D01*
X5813237Y2529603D01*
X5824518Y2515857D01*
X5838264Y2504575D01*
X5853947Y2496193D01*
X5870964Y2491031D01*
X5888661Y2489288D01*
X5906359Y2491031D01*
X5923376Y2496193D01*
X5939059Y2504575D01*
X5952805Y2515857D01*
X5964086Y2529603D01*
X5972469Y2545286D01*
X5977631Y2562303D01*
X5979374Y2580000D01*
X5977631Y2597697D01*
X5972469Y2614714D01*
X5964086Y2630397D01*
X5952805Y2644143D01*
X5939059Y2655425D01*
X5923376Y2663807D01*
X5906359Y2668969D01*
X5888661Y2670712D01*
X5870964Y2668969D01*
X5853947Y2663807D01*
X5838264Y2655425D01*
X5829139Y2647935D01*
X5829099Y2647936D01*
X5824079Y2650252D01*
X5822677Y2664492D01*
X5817852Y2680396D01*
X5810018Y2695053D01*
X5799475Y2707900D01*
X5786628Y2718443D01*
X5771971Y2726278D01*
X5756067Y2731102D01*
X5739528Y2732731D01*
X5722988Y2731102D01*
X5707084Y2726278D01*
X5692427Y2718443D01*
X5679580Y2707900D01*
X5674708Y2701963D01*
X5670000Y2703647D01*
Y3320000D01*
X5524976D01*
X5518616Y3326360D01*
X5506732Y3334301D01*
X5493527Y3339771D01*
X5479509Y3342559D01*
X5465216D01*
X5451198Y3339771D01*
X5437993Y3334301D01*
X5426109Y3326360D01*
X5419748Y3320000D01*
X5190000D01*
Y4280000D01*
X5440000D01*
X5509239Y4210761D01*
X5512251Y4205846D01*
X5527074Y4188491D01*
X5625499Y4090066D01*
X5642854Y4075243D01*
X5650248Y4070712D01*
X5662314Y4063318D01*
X5672857Y4058951D01*
X5683400Y4054584D01*
X5694497Y4051920D01*
X5705593Y4049256D01*
X5720000Y4048122D01*
D01*
X5728346Y4047465D01*
X5851225D01*
X5852219Y4042465D01*
X5842124Y4038283D01*
X5830577Y4029423D01*
X5821717Y4017876D01*
X5816147Y4004430D01*
X5815235Y3997500D01*
X5870000D01*
X5924765D01*
X5923853Y4004430D01*
X5918283Y4017876D01*
X5909423Y4029423D01*
X5897876Y4038283D01*
X5887781Y4042465D01*
X5888775Y4047465D01*
X6062992D01*
X6085745Y4049256D01*
X6107938Y4054584D01*
X6118481Y4058951D01*
X6129024Y4063318D01*
X6148485Y4075243D01*
X6165840Y4090066D01*
X6570601Y4494827D01*
X6754567D01*
X6756174Y4490092D01*
X6755301Y4489423D01*
X6746441Y4477876D01*
X6740872Y4464430D01*
X6739959Y4457500D01*
X6794725D01*
X6849490D01*
X6848577Y4464430D01*
X6843008Y4477876D01*
X6834147Y4489423D01*
X6833275Y4490092D01*
X6834882Y4494827D01*
X6842764D01*
X6865517Y4496618D01*
X6887710Y4501946D01*
X6898253Y4506313D01*
X6908796Y4510680D01*
X6924134Y4520079D01*
X6929134Y4517279D01*
D02*
G37*
%LPC*%
G36*
X6849490Y4442500D02*
X6802225D01*
Y4395235D01*
X6809154Y4396147D01*
X6822601Y4401717D01*
X6834147Y4410577D01*
X6843008Y4422124D01*
X6848577Y4435570D01*
X6849490Y4442500D01*
D02*
G37*
G36*
X6787225D02*
X6739959D01*
X6740872Y4435570D01*
X6746441Y4422124D01*
X6755301Y4410577D01*
X6766848Y4401717D01*
X6780295Y4396147D01*
X6787225Y4395235D01*
Y4442500D01*
D02*
G37*
G36*
X6625827Y4446614D02*
X6598799D01*
Y4385059D01*
X6660354D01*
Y4412087D01*
X6625827Y4446614D01*
D02*
G37*
G36*
X6583799D02*
X6556772D01*
X6522244Y4412087D01*
Y4385059D01*
X6583799D01*
Y4446614D01*
D02*
G37*
G36*
X6660354Y4370059D02*
X6598799D01*
Y4308504D01*
X6625827D01*
X6660354Y4343031D01*
Y4370059D01*
D02*
G37*
G36*
X6583799D02*
X6522244D01*
Y4343031D01*
X6556772Y4308504D01*
X6583799D01*
Y4370059D01*
D02*
G37*
G36*
X6682224Y4196896D02*
Y4167500D01*
X6711620D01*
X6711317Y4169805D01*
X6707532Y4178942D01*
X6701512Y4186787D01*
X6693666Y4192808D01*
X6684529Y4196592D01*
X6682224Y4196896D01*
D02*
G37*
G36*
X6667224D02*
X6664919Y4196592D01*
X6655783Y4192808D01*
X6647937Y4186787D01*
X6641917Y4178942D01*
X6638132Y4169805D01*
X6637829Y4167500D01*
X6667224D01*
Y4196896D01*
D02*
G37*
G36*
X6711620Y4152500D02*
X6682224D01*
Y4123104D01*
X6684529Y4123408D01*
X6693666Y4127192D01*
X6701512Y4133213D01*
X6707532Y4141058D01*
X6711317Y4150195D01*
X6711620Y4152500D01*
D02*
G37*
G36*
X6667224D02*
X6637829D01*
X6638132Y4150195D01*
X6641917Y4141058D01*
X6647937Y4133213D01*
X6655783Y4127192D01*
X6664919Y4123408D01*
X6667224Y4123104D01*
Y4152500D01*
D02*
G37*
G36*
X6552500Y4049017D02*
X6545570Y4048105D01*
X6532124Y4042535D01*
X6520577Y4033675D01*
X6511717Y4022128D01*
X6506147Y4008682D01*
X6505235Y4001752D01*
X6552500D01*
Y4049017D01*
D02*
G37*
G36*
X6567500D02*
Y3999075D01*
X6619428D01*
X6618448Y4006519D01*
X6612680Y4020444D01*
X6603504Y4032402D01*
X6591546Y4041577D01*
X6577621Y4047345D01*
X6575631Y4047608D01*
X6574430Y4048105D01*
X6567500Y4049017D01*
D02*
G37*
G36*
X6562677Y3994252D02*
X6560000D01*
Y3991575D01*
X6562677D01*
Y3994252D01*
D02*
G37*
G36*
X5924765Y3982500D02*
X5877500D01*
Y3935235D01*
X5884430Y3936147D01*
X5897876Y3941717D01*
X5909423Y3950577D01*
X5918283Y3962124D01*
X5923853Y3975570D01*
X5924765Y3982500D01*
D02*
G37*
G36*
X5862500D02*
X5815235D01*
X5816147Y3975570D01*
X5821717Y3962124D01*
X5830577Y3950577D01*
X5842124Y3941717D01*
X5855570Y3936147D01*
X5862500Y3935235D01*
Y3982500D01*
D02*
G37*
G36*
X6619428Y3984075D02*
X6570177D01*
Y3934824D01*
X6577621Y3935804D01*
X6591546Y3941572D01*
X6603504Y3950748D01*
X6612680Y3962706D01*
X6618448Y3976631D01*
X6619428Y3984075D01*
D02*
G37*
G36*
X6555177Y3983838D02*
X6505235D01*
X6506147Y3976909D01*
X6511717Y3963462D01*
X6520577Y3951916D01*
X6521494Y3951212D01*
X6521850Y3950748D01*
X6533808Y3941572D01*
X6547734Y3935804D01*
X6555177Y3934824D01*
Y3983838D01*
D02*
G37*
G36*
X5489085Y4083819D02*
X5470915D01*
X5453093Y4080274D01*
X5436306Y4073320D01*
X5421198Y4063225D01*
X5408349Y4050377D01*
X5398254Y4035269D01*
X5391301Y4018481D01*
X5387756Y4000660D01*
Y3982490D01*
X5391301Y3964668D01*
X5398254Y3947881D01*
X5408349Y3932773D01*
X5421198Y3919924D01*
X5436306Y3909829D01*
X5453093Y3902876D01*
X5470915Y3899331D01*
X5489085D01*
X5506907Y3902876D01*
X5523694Y3909829D01*
X5538802Y3919924D01*
X5551651Y3932773D01*
X5561746Y3947881D01*
X5568699Y3964668D01*
X5572244Y3982490D01*
Y4000660D01*
X5568699Y4018481D01*
X5561746Y4035269D01*
X5551651Y4050377D01*
X5538802Y4063225D01*
X5523694Y4073320D01*
X5506907Y4080274D01*
X5489085Y4083819D01*
D02*
G37*
G36*
X6570177Y3646751D02*
Y3597500D01*
X6619428D01*
X6618448Y3604944D01*
X6612680Y3618869D01*
X6603504Y3630827D01*
X6591546Y3640003D01*
X6577621Y3645771D01*
X6570177Y3646751D01*
D02*
G37*
G36*
X6555177D02*
X6547734Y3645771D01*
X6533808Y3640003D01*
X6521850Y3630827D01*
X6512675Y3618869D01*
X6506907Y3604944D01*
X6505926Y3597500D01*
X6555177D01*
Y3646751D01*
D02*
G37*
G36*
Y3582500D02*
X6505926D01*
X6506907Y3575056D01*
X6512675Y3561131D01*
X6521850Y3549173D01*
X6533808Y3539997D01*
X6547734Y3534229D01*
X6555177Y3533249D01*
Y3582500D01*
D02*
G37*
G36*
X6647500Y3567442D02*
Y3520177D01*
X6694765D01*
X6693853Y3527107D01*
X6688283Y3540553D01*
X6679423Y3552100D01*
X6667876Y3560960D01*
X6654430Y3566530D01*
X6647500Y3567442D01*
D02*
G37*
G36*
X6619428Y3582500D02*
X6570177D01*
Y3533249D01*
X6577621Y3534229D01*
X6585439Y3537467D01*
X6588974Y3533932D01*
X6586147Y3527107D01*
X6585235Y3520177D01*
X6632500D01*
Y3567442D01*
X6625570Y3566530D01*
X6618745Y3563703D01*
X6615210Y3567239D01*
X6618448Y3575056D01*
X6619428Y3582500D01*
D02*
G37*
G36*
X5489085Y3682244D02*
X5470915D01*
X5453093Y3678699D01*
X5436306Y3671746D01*
X5421198Y3661651D01*
X5408349Y3648802D01*
X5398254Y3633694D01*
X5391301Y3616907D01*
X5387756Y3599085D01*
Y3580915D01*
X5391301Y3563093D01*
X5398254Y3546306D01*
X5408349Y3531198D01*
X5421198Y3518349D01*
X5436306Y3508254D01*
X5453093Y3501301D01*
X5470915Y3497756D01*
X5489085D01*
X5506907Y3501301D01*
X5523694Y3508254D01*
X5538802Y3518349D01*
X5551651Y3531198D01*
X5561746Y3546306D01*
X5568699Y3563093D01*
X5572244Y3580915D01*
Y3599085D01*
X5568699Y3616907D01*
X5561746Y3633694D01*
X5551651Y3648802D01*
X5538802Y3661651D01*
X5523694Y3671746D01*
X5506907Y3678699D01*
X5489085Y3682244D01*
D02*
G37*
G36*
X6694765Y3505177D02*
X6647500D01*
Y3457912D01*
X6654430Y3458824D01*
X6667876Y3464394D01*
X6679423Y3473254D01*
X6688283Y3484801D01*
X6693853Y3498247D01*
X6694765Y3505177D01*
D02*
G37*
G36*
X6632500D02*
X6585235D01*
X6586147Y3498247D01*
X6591717Y3484801D01*
X6600577Y3473254D01*
X6612124Y3464394D01*
X6625570Y3458824D01*
X6632500Y3457912D01*
Y3505177D01*
D02*
G37*
G36*
X5767638Y3342910D02*
X5753414Y3341509D01*
X5739736Y3337360D01*
X5727131Y3330622D01*
X5718851Y3323827D01*
X5715024Y3320000D01*
X5714806D01*
X5707015Y3310507D01*
X5700278Y3297901D01*
X5696129Y3284224D01*
X5694728Y3270000D01*
X5696129Y3255776D01*
X5700278Y3242099D01*
X5707015Y3229493D01*
X5716083Y3218445D01*
X5727131Y3209378D01*
X5739736Y3202640D01*
X5753414Y3198491D01*
X5767638Y3197090D01*
X5781862Y3198491D01*
X5795539Y3202640D01*
X5808145Y3209378D01*
X5819193Y3218445D01*
X5828260Y3229493D01*
X5834998Y3242099D01*
X5839147Y3255776D01*
X5840548Y3270000D01*
X5839147Y3284224D01*
X5834998Y3297901D01*
X5828260Y3310507D01*
X5819193Y3321555D01*
X5808145Y3330622D01*
X5795539Y3337360D01*
X5781862Y3341509D01*
X5767638Y3342910D01*
D02*
G37*
G36*
X6560000Y2999374D02*
X6542303Y2997631D01*
X6525286Y2992469D01*
X6509603Y2984086D01*
X6495857Y2972805D01*
X6484575Y2959059D01*
X6476193Y2943376D01*
X6471031Y2926358D01*
X6469288Y2908661D01*
X6471031Y2890964D01*
X6476193Y2873947D01*
X6484575Y2858264D01*
X6495857Y2844518D01*
X6509603Y2833237D01*
X6525286Y2824854D01*
X6542303Y2819692D01*
X6560000Y2817949D01*
X6577697Y2819692D01*
X6594714Y2824854D01*
X6610397Y2833237D01*
X6624143Y2844518D01*
X6635425Y2858264D01*
X6643807Y2873947D01*
X6648969Y2890964D01*
X6650712Y2908661D01*
X6648969Y2926358D01*
X6643807Y2943376D01*
X6635425Y2959059D01*
X6624143Y2972805D01*
X6610397Y2984086D01*
X6594714Y2992469D01*
X6577697Y2997631D01*
X6560000Y2999374D01*
D02*
G37*
G36*
X5870000Y2998035D02*
X5852303Y2996292D01*
X5835286Y2991130D01*
X5819603Y2982747D01*
X5805857Y2971466D01*
X5794575Y2957720D01*
X5786193Y2942037D01*
X5781031Y2925020D01*
X5779288Y2907323D01*
X5781031Y2889626D01*
X5786193Y2872609D01*
X5794575Y2856926D01*
X5805857Y2843179D01*
X5819603Y2831898D01*
X5835286Y2823515D01*
X5852303Y2818353D01*
X5870000Y2816610D01*
X5887697Y2818353D01*
X5904714Y2823515D01*
X5920397Y2831898D01*
X5934143Y2843179D01*
X5945425Y2856926D01*
X5953807Y2872609D01*
X5958969Y2889626D01*
X5960712Y2907323D01*
X5958969Y2925020D01*
X5953807Y2942037D01*
X5945425Y2957720D01*
X5934143Y2971466D01*
X5920397Y2982747D01*
X5904714Y2991130D01*
X5887697Y2996292D01*
X5870000Y2998035D01*
D02*
G37*
G36*
X6978838Y2634765D02*
Y2587500D01*
X7026104D01*
X7025191Y2594430D01*
X7019622Y2607876D01*
X7010762Y2619423D01*
X6999215Y2628283D01*
X6985768Y2633853D01*
X6978838Y2634765D01*
D02*
G37*
G36*
X6963838Y2634765D02*
X6956909Y2633853D01*
X6943462Y2628283D01*
X6931916Y2619423D01*
X6923055Y2607876D01*
X6917486Y2594430D01*
X6916573Y2587500D01*
X6963838D01*
Y2634765D01*
D02*
G37*
G36*
Y2572500D02*
X6916573D01*
X6917486Y2565570D01*
X6923055Y2552124D01*
X6931916Y2540577D01*
X6943462Y2531717D01*
X6956909Y2526147D01*
X6963838Y2525235D01*
Y2572500D01*
D02*
G37*
G36*
X7026104D02*
X6978838D01*
Y2525235D01*
X6985768Y2526147D01*
X6999215Y2531717D01*
X7010762Y2540577D01*
X7019622Y2552124D01*
X7025191Y2565570D01*
X7026104Y2572500D01*
D02*
G37*
G36*
X6640000Y2520712D02*
X6622303Y2518969D01*
X6605286Y2513807D01*
X6589603Y2505425D01*
X6575857Y2494143D01*
X6564575Y2480397D01*
X6556193Y2464714D01*
X6551031Y2447697D01*
X6549288Y2430000D01*
X6551031Y2412303D01*
X6556193Y2395286D01*
X6564575Y2379603D01*
X6575857Y2365857D01*
X6589603Y2354575D01*
X6605286Y2346193D01*
X6622303Y2341031D01*
X6640000Y2339288D01*
X6657697Y2341031D01*
X6674714Y2346193D01*
X6690397Y2354575D01*
X6704143Y2365857D01*
X6715425Y2379603D01*
X6723807Y2395286D01*
X6728969Y2412303D01*
X6730712Y2430000D01*
X6728969Y2447697D01*
X6723807Y2464714D01*
X6715425Y2480397D01*
X6704143Y2494143D01*
X6690397Y2505425D01*
X6674714Y2513807D01*
X6657697Y2518969D01*
X6640000Y2520712D01*
D02*
G37*
G36*
X6560000Y2116460D02*
X6542303Y2114717D01*
X6525286Y2109555D01*
X6509603Y2101173D01*
X6495857Y2089891D01*
X6484575Y2076145D01*
X6476193Y2060462D01*
X6471031Y2043445D01*
X6469288Y2025748D01*
X6471031Y2008051D01*
X6476193Y1991034D01*
X6484575Y1975351D01*
X6495857Y1961605D01*
X6509603Y1950323D01*
X6525286Y1941941D01*
X6542303Y1936779D01*
X6560000Y1935036D01*
X6577697Y1936779D01*
X6594714Y1941941D01*
X6610397Y1950323D01*
X6624143Y1961605D01*
X6635425Y1975351D01*
X6643807Y1991034D01*
X6648969Y2008051D01*
X6650712Y2025748D01*
X6648969Y2043445D01*
X6643807Y2060462D01*
X6635425Y2076145D01*
X6624143Y2089891D01*
X6610397Y2101173D01*
X6594714Y2109555D01*
X6577697Y2114717D01*
X6560000Y2116460D01*
D02*
G37*
%LPD*%
D10*
X2397835Y1867500D02*
D03*
Y2042500D02*
D03*
X2752165Y1867500D02*
D03*
Y2042500D02*
D03*
X3142835Y1867500D02*
D03*
Y2042500D02*
D03*
X3497165Y1867500D02*
D03*
Y2042500D02*
D03*
D11*
X3710000Y3310000D02*
Y3730000D01*
X3660000Y3780000D01*
X3550000D01*
X3660000Y3830000D02*
X3740000Y3750000D01*
Y3320000D01*
X3981260Y3078740D01*
Y1968425D01*
X3900000Y2410000D02*
Y3120000D01*
X3710000Y3310000D01*
X4121181Y3051181D02*
X4330709D01*
X4121181D02*
X4070000Y3000000D01*
X3660000Y3830000D02*
X3470000D01*
D12*
X1774000Y2625000D02*
Y2983481D01*
X1998480D01*
X2075000Y3060000D01*
Y3505000D01*
X2205000Y3635000D01*
X2335000D01*
X1774000Y2983481D02*
X1607480Y3150000D01*
X3105000Y4475000D02*
X3130000Y4500000D01*
X3330000D01*
X4380000Y4105000D02*
X4566339Y4291339D01*
X4821890D01*
X4970000Y4439449D01*
X4645472Y2927047D02*
X4645000Y2926575D01*
Y2855276D01*
Y2560000D02*
X4750000Y2455000D01*
X4825000D01*
D13*
X2636535Y2780000D02*
Y2912126D01*
X2754409Y3030000D01*
X2870000D01*
X3620000Y3003740D02*
Y3443740D01*
X3860000Y3490000D02*
Y3720000D01*
X3800000Y3780000D01*
X3470000Y3830000D02*
X2240000D01*
X2007874Y3597874D01*
Y3425197D01*
X2180000Y3920000D02*
X3010000D01*
X4330000Y2905000D02*
X4380000Y2955000D01*
Y3080000D01*
X4670000Y4530000D02*
X4480000Y4720000D01*
Y4725000D01*
D14*
X4775000Y2057481D02*
X4759088Y2073392D01*
Y2210991D01*
X4725984Y2244095D01*
D15*
X1805000Y1865000D02*
X1880000Y1940000D01*
X2045000D01*
X2114921Y1870079D01*
X2165354D01*
X2342520Y1922815D02*
X2397835Y1867500D01*
X2437205Y1957677D02*
X2712795D01*
X2762677D01*
X2795000Y1990000D01*
X3090000D01*
X3117323Y1962677D01*
X3457795D01*
X3497165Y2042500D02*
Y2099528D01*
Y2042500D02*
X3142835D01*
X2752165D01*
X2397835D01*
X2598425Y2106299D02*
X2618110Y2086614D01*
X2598425Y2106299D02*
X2362205D01*
X2342520Y2086614D01*
Y1922815D01*
X1929134Y2145669D02*
X1988189Y2204724D01*
X2716535D01*
X2775591Y2145669D01*
X3346457D01*
X3490787Y2290000D01*
X3560000D01*
X3287402Y2401575D02*
Y2736220D01*
X3208661Y2913386D02*
Y2401575D01*
X3149606Y2342520D01*
Y2263780D01*
X3136535Y2480000D02*
Y2650866D01*
X3087035Y2700366D01*
Y2890185D01*
X3110000Y2913150D01*
Y2980000D01*
X3130000Y3000000D01*
Y3060000D01*
X3110000Y3080000D01*
Y3275799D01*
X2858465Y3606496D02*
X2913386Y3661417D01*
X2858465Y3606496D02*
Y3173425D01*
X2924941Y3106949D01*
Y2858074D01*
X2887035Y2820169D01*
Y2746497D01*
X2893701Y2739831D01*
Y2618110D01*
X2886535Y2550000D02*
X2700000D01*
X2670000Y2580000D01*
X2540000D01*
X2525000Y2365000D02*
X2710000D01*
X2736535Y2391535D01*
Y2480000D01*
X2525000Y2365000D02*
X2355000Y2535000D01*
X2075000D01*
X1905000Y2365000D01*
X1476378Y2696850D02*
X1594488Y2578740D01*
Y2263780D01*
X1555118Y2224409D01*
X1476378Y2696850D02*
Y2952756D01*
X1519291Y3350000D02*
X1607480D01*
X1519291D02*
X1417323Y3248032D01*
X2661614Y1859252D02*
X2743917D01*
X2752165Y1867500D01*
X3073445D02*
X3142835D01*
X3409862D02*
X3497165D01*
X3409862D02*
X3406614Y1864252D01*
X4535000Y2580000D02*
X4570000Y2545000D01*
X4535000Y2580000D02*
Y2681378D01*
Y2732559D01*
X4190000Y3260000D02*
X3990000D01*
X4096360Y3510000D02*
X4126360Y3480000D01*
X4130000D01*
X4096360Y3510000D02*
X3960000D01*
X4528504Y3516496D02*
X4575000Y3470000D01*
X4528504Y3621378D02*
Y3672559D01*
Y3621378D02*
Y3516496D01*
X4310000Y4415000D02*
Y4555000D01*
X4480000Y4725000D01*
Y4918010D01*
Y4918812D01*
X4410000Y4580000D02*
X4350000Y4520000D01*
Y4470000D01*
X4310000Y4415000D02*
X4225000Y4330000D01*
X4175000D01*
X4265000Y4285000D02*
X4065000D01*
X3775000Y4795000D02*
Y4865000D01*
X3745000Y4895000D01*
X2685000D01*
X2585000Y4795000D01*
X3530000Y4140000D02*
Y4595000D01*
X3570000Y4635000D01*
D16*
X4704528Y3182953D02*
X4757480D01*
X4850000D01*
X4962047D01*
X5015000Y3130000D01*
X4962047D01*
X4850000D01*
X4855000Y3125000D01*
Y2657009D01*
X4989055Y2522954D01*
Y2387046D01*
X4970000Y2367991D01*
Y2065165D01*
X4975000Y2060165D01*
Y2057481D01*
X4850000Y3130000D02*
X4825000Y3155000D01*
Y3130000D02*
X4757480D01*
X4704528Y3182953D01*
D17*
X4405000Y1895000D02*
X4700000D01*
X4703189Y1898189D01*
X4770000D01*
X5590669D01*
X5592480Y1900000D01*
X6140779D01*
X4775000Y2057481D02*
Y1903189D01*
X4770000Y1898189D01*
X4335912Y1964088D02*
X4405000Y1895000D01*
X4335912Y1964088D02*
Y2031569D01*
X4320000Y2047480D01*
D18*
X4970000Y4439449D02*
X5209724Y4199724D01*
X5728346Y4192913D02*
X6062992D01*
X6510354Y4640276D01*
X6842764D01*
X6985000Y4782512D01*
Y4850000D01*
X7068740D01*
X7090000Y4871260D01*
X5725000Y4742520D02*
X5629921D01*
Y4744095D01*
Y4742520D02*
X5525000D01*
X5629921D02*
Y4547244D01*
Y4291338D01*
X5728346Y4192913D01*
D19*
X2970000Y2230000D02*
X3036535Y2296535D01*
Y2480000D01*
Y2780000D02*
Y2863465D01*
X2970000Y2930000D01*
Y3030000D01*
X5015000Y2830000D02*
X5140000D01*
X5170000Y2860000D01*
Y2990000D01*
X5210000Y3030000D01*
X5320000D01*
D20*
X4970000Y4439449D02*
Y4742520D01*
D21*
X3902520Y1968425D02*
D03*
D22*
X1505906Y2303150D02*
D03*
Y2381890D02*
D03*
X1407480D02*
D03*
Y2460630D02*
D03*
Y2303150D02*
D03*
X3902520Y1870000D02*
D03*
X3981260D02*
D03*
X4060000D02*
D03*
Y1968425D02*
D03*
X3981260D02*
D03*
D23*
X1456693Y2185039D02*
D03*
Y2578740D02*
D03*
X2437205Y1953740D02*
D03*
X2712795Y1957677D02*
D03*
X3182205Y1958740D02*
D03*
X3457795Y1962677D02*
D03*
X3784410Y1919213D02*
D03*
X4178110D02*
D03*
X4645472Y2927047D02*
D03*
X4704528Y3182953D02*
D03*
X4645472Y3887047D02*
D03*
X4704528Y4142953D02*
D03*
X5739528Y2647953D02*
D03*
X5680472Y2392047D02*
D03*
D24*
X1505906Y2460630D02*
D03*
D25*
X2870000Y2230000D02*
D03*
X2970000D02*
D03*
X3070000D02*
D03*
Y3030000D02*
D03*
X2970000D02*
D03*
X2870000D02*
D03*
X4645000Y2560000D02*
D03*
Y2855276D02*
D03*
Y3495000D02*
D03*
Y3790276D02*
D03*
X5472362Y3270000D02*
D03*
X5767638D02*
D03*
X6674724Y4160000D02*
D03*
X6970000D02*
D03*
X6161417Y4616142D02*
D03*
X5969488Y4400000D02*
D03*
X6161417Y4320866D02*
D03*
X5674213Y4400000D02*
D03*
D26*
X2580000Y3305000D02*
D03*
Y3705000D02*
D03*
Y4105000D02*
D03*
X4380000D02*
D03*
X4825000Y4135000D02*
D03*
Y3435000D02*
D03*
Y3155000D02*
D03*
Y2455000D02*
D03*
X5530000Y2390000D02*
D03*
Y3090000D02*
D03*
X6985000Y4377559D02*
D03*
Y4850000D02*
D03*
X6591299D02*
D03*
D27*
X1607480Y2750000D02*
D03*
Y3150000D02*
D03*
Y3550000D02*
D03*
Y3950000D02*
D03*
Y4350000D02*
D03*
X4520000Y2057481D02*
D03*
X4975000D02*
D03*
X5925000Y4742520D02*
D03*
X5525000D02*
D03*
X4770000D02*
D03*
D28*
X4320000Y2057481D02*
D03*
X4775000D02*
D03*
X6125000Y4742520D02*
D03*
X5725000D02*
D03*
X4970000D02*
D03*
D29*
X5015000Y2730000D02*
D03*
Y2830000D02*
D03*
Y2930000D02*
D03*
Y3130000D02*
D03*
X5320000Y2730000D02*
D03*
Y2930000D02*
D03*
Y3030000D02*
D03*
Y3130000D02*
D03*
X5015000Y3695000D02*
D03*
Y3795000D02*
D03*
Y3895000D02*
D03*
Y4095000D02*
D03*
D30*
X2300000Y4254724D02*
D03*
Y4550000D02*
D03*
X1878740D02*
D03*
Y4254724D02*
D03*
X5888661Y2580000D02*
D03*
X5870000Y2907323D02*
D03*
X6560000Y2908661D02*
D03*
X6640000Y2430000D02*
D03*
X6971339Y2580000D02*
D03*
X6560000Y2025748D02*
D03*
X6640000Y3512677D02*
D03*
X6560000Y3991339D02*
D03*
Y3994252D02*
D03*
X6794724Y4450000D02*
D03*
X7090000D02*
D03*
Y4871260D02*
D03*
X6794724D02*
D03*
X5870000Y3990000D02*
D03*
D31*
X2488386Y1859252D02*
D03*
X2661614D02*
D03*
X3233386Y1864252D02*
D03*
X3406614D02*
D03*
D32*
X4375000Y4795000D02*
D03*
X4275000D02*
D03*
X4175000D02*
D03*
X4075000D02*
D03*
X3875000D02*
D03*
X3185000D02*
D03*
X3085000D02*
D03*
X2985000D02*
D03*
X2885000D02*
D03*
X2685000D02*
D03*
D33*
X3775000Y4795000D02*
D03*
X2585000D02*
D03*
D34*
X2320000Y2475000D02*
D03*
X2330000Y2840000D02*
D03*
X2320000Y3530000D02*
D03*
Y3630000D02*
D03*
X3520000Y3003740D02*
D03*
X3620000D02*
D03*
X3720000D02*
D03*
X4725984Y2244095D02*
D03*
D35*
X2220000Y2475000D02*
D03*
X3420000Y3003740D02*
D03*
X3820000D02*
D03*
X4625984Y2244095D02*
D03*
D36*
X6591299Y4377559D02*
D03*
D37*
X2330000Y2740000D02*
D03*
X2320000Y3430000D02*
D03*
D38*
X1805000Y1865000D02*
D03*
X2005000D02*
D03*
X2105000Y2365000D02*
D03*
X1905000D02*
D03*
X1705000D02*
D03*
X2990000Y4500000D02*
D03*
X4180000D02*
D03*
D39*
X4520000Y4500000D02*
D03*
X3330000D02*
D03*
D40*
X3600000Y4418150D02*
D03*
Y4811850D02*
D03*
X2891850Y4500000D02*
D03*
X2498150D02*
D03*
D41*
X4380000Y3305000D02*
D03*
D42*
X1607480Y2950000D02*
D03*
Y3350000D02*
D03*
Y3750000D02*
D03*
Y4150000D02*
D03*
Y4550000D02*
D03*
D43*
X5480000Y3590000D02*
D03*
Y3991575D02*
D03*
X6562677Y3590000D02*
D03*
Y3991575D02*
D03*
D44*
X2270000Y1940000D02*
D03*
Y2040000D02*
D03*
X2840000D02*
D03*
Y1940000D02*
D03*
X3060000D02*
D03*
Y2040000D02*
D03*
D45*
X2636535Y2480000D02*
D03*
X2736535D02*
D03*
X2836535D02*
D03*
X2936535D02*
D03*
X3036535D02*
D03*
X3136535D02*
D03*
Y2780000D02*
D03*
X3036535D02*
D03*
X2936535D02*
D03*
X2836535D02*
D03*
X2736535D02*
D03*
X2636535D02*
D03*
X2536535D02*
D03*
D46*
X2536535Y2480000D02*
D03*
D47*
X1550000Y2000000D02*
D03*
Y4800000D02*
D03*
X7146850Y2000000D02*
D03*
Y3790000D02*
D03*
D48*
X5314961Y2047244D02*
D03*
Y4527559D02*
D03*
D49*
X2165354Y1870079D02*
D03*
X1929134Y2145669D02*
D03*
X1774000Y2625000D02*
D03*
X1555118Y2224409D02*
D03*
X1476378Y2952756D02*
D03*
X1417323Y3248032D02*
D03*
X2007874Y3425197D02*
D03*
X2086614Y3110236D02*
D03*
X2540000Y2580000D02*
D03*
X2886535Y2550000D02*
D03*
X2893701Y2618110D02*
D03*
X3149606Y2263780D02*
D03*
X3287402Y2401575D02*
D03*
X3497165Y2099528D02*
D03*
X3560000Y2290000D02*
D03*
X3900000Y2410000D02*
D03*
X4330000Y2905000D02*
D03*
X4330709Y3051181D02*
D03*
X4380000Y3080000D02*
D03*
X4190000Y3260000D02*
D03*
X4130000Y3480000D02*
D03*
X3990000Y3260000D02*
D03*
X3960000Y3510000D02*
D03*
X3860000Y3490000D02*
D03*
X3800000Y3780000D02*
D03*
X3550000D02*
D03*
X3620000Y3443740D02*
D03*
X4070000Y3000000D02*
D03*
X4570000Y2545000D02*
D03*
X4575000Y3470000D02*
D03*
X5590551Y4389764D02*
D03*
X5669291Y4468504D02*
D03*
Y4547244D02*
D03*
X5590551D02*
D03*
Y4468504D02*
D03*
X4670000Y4530000D02*
D03*
X4410000Y4580000D02*
D03*
X4350000Y4470000D02*
D03*
X4265000Y4285000D02*
D03*
X4175000Y4330000D02*
D03*
X4065000Y4285000D02*
D03*
X3570000Y4635000D02*
D03*
X3530000Y4140000D02*
D03*
X3105000Y4475000D02*
D03*
X3010000Y3920000D02*
D03*
X2913386Y3661417D02*
D03*
X3110000Y3281890D02*
D03*
X2858465Y3173425D02*
D03*
X3208661Y2913386D02*
D03*
X3287402Y2736220D02*
D03*
X3265000Y2040000D02*
D03*
X3073445Y1867500D02*
D03*
X2618110Y2086614D02*
D03*
X2520000Y2045000D02*
D03*
X2180000Y3920000D02*
D03*
X4480000Y4918010D02*
D03*
D50*
X4503504Y2657756D02*
D03*
Y2705000D02*
D03*
Y2752244D02*
D03*
X4535000Y2732559D02*
D03*
Y2681378D02*
D03*
X4566496Y2705000D02*
D03*
Y2657756D02*
D03*
Y2752244D02*
D03*
X4560000Y3597756D02*
D03*
Y3645000D02*
D03*
X4528504Y3621378D02*
D03*
Y3672559D02*
D03*
X4497008Y3645000D02*
D03*
Y3597756D02*
D03*
Y3692244D02*
D03*
X4560000D02*
D03*
%TF.MD5,4658d6a0a4e2bf0f66db6f02ce1129fc*%
M02*
