%TF.GenerationSoftware,Altium Limited,Altium Designer,21.3.2 (30)*%
G04 Layer_Color=0*
%FSLAX26Y26*%
%MOIN*%
%TF.SameCoordinates,53465ED1-0DC7-484A-8DCD-68ECABD516C6*%
%TF.FilePolarity,Positive*%
%TF.FileFunction,Plated,1,2,PTH,Drill*%
%TF.Part,Single*%
G01*
G75*
%TA.AperFunction,ComponentDrill*%
%ADD173C,0.031496*%
%ADD174C,0.051181*%
%ADD175C,0.051181*%
%ADD176C,0.031496*%
%ADD177C,0.040000*%
%ADD178C,0.033465*%
%ADD179C,0.062992*%
%ADD180C,0.059055*%
%ADD181C,0.047244*%
%ADD182C,0.047244*%
%ADD183C,0.035433*%
%ADD184C,0.030000*%
%ADD185C,0.040000*%
%ADD186C,0.066929*%
%ADD187C,0.043307*%
%ADD188C,0.055118*%
%ADD189C,0.062992*%
%ADD190C,0.055118*%
%ADD191C,0.029528*%
%ADD192C,0.029528*%
%ADD193C,0.033465*%
%TA.AperFunction,OtherDrill,Pad Free-0 (5314.961mil,2047.244mil)*%
%ADD194C,0.098425*%
%TA.AperFunction,OtherDrill,Pad Free-0 (5314.961mil,4527.559mil)*%
%ADD195C,0.098425*%
%TA.AperFunction,ViaDrill,NotFilled*%
%ADD196C,0.020000*%
%ADD197C,0.012992*%
D173*
X3902520Y1870000D02*
D03*
X3981260D02*
D03*
X4060000D02*
D03*
Y1968425D02*
D03*
X3981260D02*
D03*
X3902520D02*
D03*
X2891850Y4500000D02*
D03*
X2498150D02*
D03*
D174*
X3784410Y1919213D02*
D03*
X4178110D02*
D03*
D175*
X1456693Y2185039D02*
D03*
Y2578740D02*
D03*
X4825000Y2455000D02*
D03*
X5530000Y2390000D02*
D03*
Y3090000D02*
D03*
X4825000Y3435000D02*
D03*
Y3155000D02*
D03*
Y4135000D02*
D03*
D176*
X2270000Y1940000D02*
D03*
Y2040000D02*
D03*
X2840000D02*
D03*
Y1940000D02*
D03*
X3060000D02*
D03*
Y2040000D02*
D03*
X1505906Y2381890D02*
D03*
Y2460630D02*
D03*
Y2303150D02*
D03*
X1407480Y2381890D02*
D03*
Y2460630D02*
D03*
Y2303150D02*
D03*
X3600000Y4418150D02*
D03*
Y4811850D02*
D03*
D177*
X2330000Y2740000D02*
D03*
Y2840000D02*
D03*
X2320000Y3430000D02*
D03*
Y3530000D02*
D03*
Y3630000D02*
D03*
X4645472Y2927047D02*
D03*
X4704528Y3182953D02*
D03*
X4645472Y3887047D02*
D03*
X4704528Y4142953D02*
D03*
X5739528Y2647953D02*
D03*
X5680472Y2392047D02*
D03*
D178*
X5472362Y3270000D02*
D03*
X5767638D02*
D03*
X6674724Y4160000D02*
D03*
X6970000D02*
D03*
X5969488Y4400000D02*
D03*
X5674213D02*
D03*
D179*
X4320000Y2057481D02*
D03*
X4520000D02*
D03*
X4775000D02*
D03*
X4975000D02*
D03*
X6125000Y4742520D02*
D03*
X5925000D02*
D03*
X5725000D02*
D03*
X5525000D02*
D03*
X4970000D02*
D03*
X4770000D02*
D03*
D180*
X5015000Y2730000D02*
D03*
Y2830000D02*
D03*
Y2930000D02*
D03*
Y3130000D02*
D03*
X5320000Y2730000D02*
D03*
Y2930000D02*
D03*
Y3030000D02*
D03*
Y3130000D02*
D03*
X5015000Y3695000D02*
D03*
Y3795000D02*
D03*
Y3895000D02*
D03*
Y4095000D02*
D03*
D181*
X5870000Y2907323D02*
D03*
X6560000Y2908661D02*
D03*
X6640000Y2430000D02*
D03*
X6560000Y2025748D02*
D03*
X6640000Y3512677D02*
D03*
X6560000Y3991339D02*
D03*
Y3994252D02*
D03*
X5870000Y3990000D02*
D03*
D182*
X2437205Y1953740D02*
D03*
X2712795Y1957677D02*
D03*
X3182205Y1958740D02*
D03*
X3457795Y1962677D02*
D03*
X4380000Y3305000D02*
D03*
Y4105000D02*
D03*
X5888661Y2580000D02*
D03*
X6971339D02*
D03*
X2580000Y4105000D02*
D03*
Y3705000D02*
D03*
Y3305000D02*
D03*
D183*
X2488386Y1859252D02*
D03*
X2661614D02*
D03*
X3233386Y1864252D02*
D03*
X3406614D02*
D03*
D184*
X4375000Y4795000D02*
D03*
X4275000D02*
D03*
X4175000D02*
D03*
X4075000D02*
D03*
X3875000D02*
D03*
X3775000D02*
D03*
X3185000D02*
D03*
X3085000D02*
D03*
X2985000D02*
D03*
X2885000D02*
D03*
X2685000D02*
D03*
X2585000D02*
D03*
D185*
X2220000Y2475000D02*
D03*
X2320000D02*
D03*
X3420000Y3003740D02*
D03*
X3520000D02*
D03*
X3620000D02*
D03*
X3720000D02*
D03*
X3820000D02*
D03*
X4625984Y2244095D02*
D03*
X4725984D02*
D03*
D186*
X6591299Y4377559D02*
D03*
X6985000D02*
D03*
Y4850000D02*
D03*
X6591299D02*
D03*
D187*
X4520000Y4500000D02*
D03*
X4180000D02*
D03*
X3330000D02*
D03*
X2990000D02*
D03*
D188*
X1805000Y1865000D02*
D03*
X2005000D02*
D03*
X2105000Y2365000D02*
D03*
X1905000D02*
D03*
X1705000D02*
D03*
X2300000Y4254724D02*
D03*
Y4550000D02*
D03*
X1878740D02*
D03*
Y4254724D02*
D03*
X5480000Y3590000D02*
D03*
Y3991575D02*
D03*
X6562677Y3590000D02*
D03*
Y3991575D02*
D03*
D189*
X1607480Y2750000D02*
D03*
Y2950000D02*
D03*
Y3150000D02*
D03*
Y3350000D02*
D03*
Y3550000D02*
D03*
Y3750000D02*
D03*
Y3950000D02*
D03*
Y4150000D02*
D03*
Y4350000D02*
D03*
Y4550000D02*
D03*
D190*
X6794724Y4450000D02*
D03*
X7090000D02*
D03*
Y4871260D02*
D03*
X6794724D02*
D03*
D191*
X2870000Y2230000D02*
D03*
X2970000D02*
D03*
X3070000D02*
D03*
Y3030000D02*
D03*
X2970000D02*
D03*
X2870000D02*
D03*
D192*
X2536535Y2480000D02*
D03*
X2636535D02*
D03*
X2736535D02*
D03*
X2836535D02*
D03*
X2936535D02*
D03*
X3036535D02*
D03*
X3136535D02*
D03*
Y2780000D02*
D03*
X3036535D02*
D03*
X2936535D02*
D03*
X2836535D02*
D03*
X2736535D02*
D03*
X2636535D02*
D03*
X2536535D02*
D03*
D193*
X4645000Y2560000D02*
D03*
Y2855276D02*
D03*
Y3495000D02*
D03*
Y3790276D02*
D03*
X6161417Y4320866D02*
D03*
Y4616142D02*
D03*
D194*
X5314961Y2047244D02*
D03*
D195*
X5314961Y4527559D02*
D03*
D196*
X2165354Y1870079D02*
D03*
X1929134Y2145669D02*
D03*
X1774000Y2625000D02*
D03*
X1555118Y2224409D02*
D03*
X1476378Y2952756D02*
D03*
X1417323Y3248032D02*
D03*
X2007874Y3425197D02*
D03*
X2086614Y3110236D02*
D03*
X2540000Y2580000D02*
D03*
X2886535Y2550000D02*
D03*
X2893701Y2618110D02*
D03*
X3149606Y2263780D02*
D03*
X3287402Y2401575D02*
D03*
X3497165Y2099528D02*
D03*
X3560000Y2290000D02*
D03*
X3900000Y2410000D02*
D03*
X4330000Y2905000D02*
D03*
X4330709Y3051181D02*
D03*
X4380000Y3080000D02*
D03*
X4190000Y3260000D02*
D03*
X4130000Y3480000D02*
D03*
X3990000Y3260000D02*
D03*
X3960000Y3510000D02*
D03*
X3860000Y3490000D02*
D03*
X3800000Y3780000D02*
D03*
X3550000D02*
D03*
X3620000Y3443740D02*
D03*
X4070000Y3000000D02*
D03*
X4570000Y2545000D02*
D03*
X4575000Y3470000D02*
D03*
X5590551Y4389764D02*
D03*
X5669291Y4468504D02*
D03*
Y4547244D02*
D03*
X5590551D02*
D03*
Y4468504D02*
D03*
X4670000Y4530000D02*
D03*
X4410000Y4580000D02*
D03*
X4350000Y4470000D02*
D03*
X4265000Y4285000D02*
D03*
X4175000Y4330000D02*
D03*
X4065000Y4285000D02*
D03*
X3570000Y4635000D02*
D03*
X3530000Y4140000D02*
D03*
X3105000Y4475000D02*
D03*
X3010000Y3920000D02*
D03*
X2913386Y3661417D02*
D03*
X3110000Y3281890D02*
D03*
X2858465Y3173425D02*
D03*
X3208661Y2913386D02*
D03*
X3287402Y2736220D02*
D03*
X3265000Y2040000D02*
D03*
X3073445Y1867500D02*
D03*
X2618110Y2086614D02*
D03*
X2520000Y2045000D02*
D03*
X2180000Y3920000D02*
D03*
X4480000Y4918010D02*
D03*
D197*
X4503504Y2657756D02*
D03*
Y2705000D02*
D03*
Y2752244D02*
D03*
X4535000Y2732559D02*
D03*
Y2681378D02*
D03*
X4566496Y2705000D02*
D03*
Y2657756D02*
D03*
Y2752244D02*
D03*
X4560000Y3597756D02*
D03*
Y3645000D02*
D03*
X4528504Y3621378D02*
D03*
Y3672559D02*
D03*
X4497008Y3645000D02*
D03*
Y3597756D02*
D03*
Y3692244D02*
D03*
X4560000D02*
D03*
%TF.MD5,5a22e89ef71ad3cb0bafe8603a86c008*%
M02*
