M48
;Layer_Color=9474304
;FILE_FORMAT=2:5
INCH,LZ
;TYPE=PLATED
T1F00S00C0.01299
T2F00S00C0.02000
T3F00S00C0.02953
T4F00S00C0.03000
T5F00S00C0.03150
T6F00S00C0.03346
T7F00S00C0.03543
T8F00S00C0.04000
T9F00S00C0.04331
T10F00S00C0.04724
T11F00S00C0.05118
T12F00S00C0.05512
T13F00S00C0.05906
T14F00S00C0.06299
T15F00S00C0.06693
T16F00S00C0.09843
%
T01
X045035Y0265776
Y02705
Y0275224
X04535Y0273256
Y0268138
X045665Y02705
Y0265776
Y0275224
X0456Y0359776
Y03645
Y0369224
X045285Y0367256
X0449701Y0369224
Y03645
Y0359776
X045285Y0362138
T02
X03265Y0204
X0349716Y0209953
X0356Y0229
X032874Y0240158
X0314961Y0226378
X032874Y0273622
X0320866Y0291339
X0407Y03
X0433071Y0305118
X0438Y0308
X0433Y02905
X0457Y02545
X039Y0241
X0288653Y0255
X028937Y0261811
X0254Y0258
X0252Y02045
X0261811Y0208661
X0216535Y0187008
X0192913Y0214567
X01774Y02625
X0208661Y0311024
X0307345Y018675
X0155512Y0222441
X0147638Y0295276
X0141732Y0324803
X0200787Y034252
X0218Y0392
X0301
X0291339Y0366142
X0285846Y0317342
X0311Y0328189
X03105Y04475
X0357Y04635
X0353Y0414
X0355Y0378
X038
X0386Y0349
X0396Y0351
X0413Y0348
X0419Y0326
X0399
X0362Y0344374
X04575Y0347
X04265Y04285
X04175Y0433
X04065Y04285
X0435Y0447
X0441Y0458
X0467Y0453
X0559055Y0454724
X0566929
Y044685
X0559055
Y0438976
X0448Y0491801
T03
X0313653Y0248
Y0278
X0303654
X0293653
X0283653
X0273654
X0263653
X0253654
Y0248
X0263653
X0273654
X0283653
X0293653
X0303654
X0307Y0223
X0297
X0287
Y0303
X0297
X0307
T04
X03185Y04795
X03775
X03875
X04075
X04175
X04275
X04375
X03085
X02985
X02885
X02685
X02585
T05
X0390252Y0187
X0398126
X0406
Y0196843
X0398126
X0390252
X0306Y0194
Y0204
X0284
Y0194
X0227
Y0204
X0150591Y0230315
Y0238189
Y0246063
X0140748
Y0238189
Y0230315
X0249815Y045
X0289185
X036Y0441815
Y0481185
T06
X04645Y0256
Y0285528
Y03495
Y0379028
X0547236Y0327
X0576764
X0567421Y044
X0596949
X0616142Y0432087
Y0461614
X0667472Y0416
X0697
T07
X0323339Y0186425
X0340661
X0266161Y0185925
X0248839
T08
X0472598Y022441
X0568047Y0239205
X0573953Y0264795
X0464547Y0292705
X0462598Y022441
X0382Y0300374
X0372
X0362
X0352
X0342
X0233Y0284
Y0274
X0232Y02475
X0222
X0232Y0343
Y0353
Y0363
X0464547Y0388705
X0470453Y0414295
Y0318295
T09
X0299Y045
X0333
X0418
X0452
T10
X0656Y0202575
X0664Y0243
X0697134Y0258
X0656Y0290866
X0587Y0290732
X0588866Y0258
X0345779Y0196268
X031822Y0195874
X027128Y0195768
X0243721Y0195374
X0258Y03305
Y03705
Y04105
X0438
Y03305
X0587Y0399
X0656Y0399134
Y0399425
X0664Y0351268
T11
X04825Y02455
X0553Y0239
Y0309
X0417811Y0191921
X0378441
X0145669Y0218504
Y0257874
X04825Y03155
Y03435
Y04135
T12
X01805Y01865
X02005
X01905Y02365
X02105
X01705
X0187874Y0425472
Y0455
X023
Y0425472
X0548Y0399158
Y0359
X0656268
Y0399158
X0679472Y0445
X0709
Y0487126
X0679472
T13
X05015Y0273
Y0283
Y0293
X0532
Y0303
Y0273
Y0313
X05015
Y03695
Y03795
Y03895
Y04095
T14
X04775Y0205748
X04975
X0452
X0432
X0160748Y0275
Y0295
Y0315
Y0335
Y0355
Y0375
Y0395
Y0415
Y0435
Y0455
X0477Y0474252
X0497
X05525
X05725
X05925
X06125
T15
X065913Y0437756
X06985
Y0485
X065913
T16
X0531496Y0204724
Y0452756
M30
